<?xml version="1.0" standalone="no"?>
<!DOCTYPE svg PUBLIC "-//W3C//DTD SVG 1.1//EN" "http://www.w3.org/Graphics/SVG/1.1/DTD/svg11.dtd" >
<svg xmlns="http://www.w3.org/2000/svg" xmlns:xlink="http://www.w3.org/1999/xlink" version="1.1">
<metadata></metadata>
<defs>
<font id="webfontregular" horiz-adv-x="1179" >
<font-face units-per-em="2048" ascent="1526" descent="-522" />
<missing-glyph horiz-adv-x="458" />
<glyph unicode="&#xfb00;" horiz-adv-x="1482" d="M-188 -264q70 35 116.5 74.5t80.5 97t56.5 137.5t43.5 197l94 526q6 31 3 39t-20 12l-129 35l58 150h129l20 116q16 94 49 157.5t84.5 102.5t121 55.5t161.5 16.5q66 0 133.5 -11t101.5 -30l-73 -192q-33 12 -69 20t-71 8q-84 0 -125.5 -38t-54.5 -109l-16 -96h475 l23 131q16 94 48.5 157.5t84 102.5t121 55t161.5 16q66 0 133.5 -11t102.5 -30l-74 -192q-33 12 -68.5 20.5t-70.5 8.5q-84 0 -126 -38t-54 -110l-19 -110h273l-35 -199h-273l-96 -555q-27 -152 -64.5 -259.5t-95 -183t-137.5 -124t-188 -80.5l-72 161q70 35 117 75 t80.5 97.5t56 137.5t43.5 196l94 535h-475l-102 -584q-27 -152 -65 -259t-95 -183t-137 -124t-189 -81z" />
<glyph unicode="&#xfb01;" horiz-adv-x="1284" d="M-188 -264q70 35 116.5 74.5t80.5 97t56.5 137.5t43.5 197l94 526q6 31 3 39t-20 12l-129 35l58 150h129l22 131q16 94 49 157.5t84.5 102.5t121 55t161.5 16q66 0 133.5 -11t102.5 -30l-74 -192q-33 12 -69 20.5t-70 8.5q-84 0 -126 -38t-55 -110l-18 -110h708 q12 0 20.5 -3.5t4.5 -21.5l-174 -979h-262l141 805h-473l-102 -584q-27 -152 -65 -259t-95 -183t-137 -124t-189 -81zM1001 1257q0 88 46.5 135.5t132.5 47.5q133 0 133 -117q0 -90 -46 -137t-132 -47q-134 -1 -134 118z" />
<glyph unicode="&#xfb02;" horiz-adv-x="1288" d="M-188 -264q70 35 116.5 74.5t80.5 97t56.5 137.5t43.5 197l94 526q6 31 3 39t-20 12l-129 35l58 150h129l8 45q20 111 56 180t89 117q80 70 195 95t244 25q51 0 107 -4t111.5 -12t105.5 -18.5t89 -22.5q27 -8 34 -19.5t3 -39.5l-203 -1155q-4 -23 -1 -30t22 -15l67 -29 l-45 -121h-319q-18 0 -16 20l213 1221q-45 10 -93.5 15.5t-93.5 5.5q-63 0 -119.5 -12.5t-97.5 -41.5q-33 -23 -54.5 -60.5t-31.5 -92.5l-8 -51h272l-35 -199h-272l-102 -584q-27 -152 -65 -259t-95 -183t-137 -124t-189 -81z" />
<glyph unicode="&#xfb03;" horiz-adv-x="2021" d="M-188 -264q70 35 116.5 74.5t80.5 97t56.5 137.5t43.5 197l94 526q6 31 3 39t-20 12l-129 35l58 150h129l22 131q16 94 49 157.5t84.5 102.5t121 55t161.5 16q66 0 133.5 -11t102.5 -30l-74 -192q-33 12 -69 20.5t-70 8.5q-84 0 -126 -38t-55 -110l-18 -110h475l23 131 q16 94 48.5 157.5t84 102.5t121 55t161.5 16q66 0 133.5 -11t102.5 -30l-74 -192q-33 12 -68.5 20.5t-70.5 8.5q-84 0 -126 -38t-54 -110l-19 -110h709q12 0 20 -3.5t4 -21.5l-174 -979h-262l141 805h-473l-96 -555q-27 -152 -64.5 -259.5t-95 -183t-137.5 -124t-188 -80.5 l-72 161q70 35 117 75t80.5 97.5t56 137.5t43.5 196l94 535h-475l-102 -584q-27 -152 -65 -259t-95 -183t-137 -124t-189 -81zM1739 1257q0 88 46 135.5t132 47.5q133 0 133 -117q0 -90 -46 -137t-132 -47q-133 -1 -133 118z" />
<glyph unicode="&#xfb04;" horiz-adv-x="2025" d="M-188 -264q70 35 116.5 74.5t80.5 97t56.5 137.5t43.5 197l94 526q6 31 3 39t-20 12l-129 35l58 150h129l18 102q31 172 125 252q57 49 137 71.5t181 22.5q63 0 126.5 -9t129.5 -36l-74 -193q-33 12 -72 22.5t-88 10.5q-86 0 -137 -33q-55 -37 -70 -129l-14 -81h475l8 45 q20 111 56 180t90 117q80 70 194.5 95t243.5 25q51 0 107.5 -4t111.5 -12t105.5 -18.5t89.5 -22.5q27 -8 34 -19.5t2 -39.5l-202 -1155q-4 -23 -1 -30t21 -15l68 -29l-45 -121h-320q-18 0 -16 20l213 1221q-45 10 -93.5 15.5t-93.5 5.5q-63 0 -119.5 -12.5t-97.5 -41.5 q-33 -23 -54 -60.5t-32 -92.5l-8 -51h273l-35 -199h-273l-96 -555q-27 -152 -64.5 -259.5t-95 -183t-137.5 -124t-188 -80.5l-72 161q70 35 117 75t80.5 97.5t56 137.5t43.5 196l94 535h-475l-102 -584q-27 -152 -65 -259t-95 -183t-137 -124t-189 -81z" />
<glyph horiz-adv-x="0" />
<glyph horiz-adv-x="0" />
<glyph unicode="&#xd;" horiz-adv-x="458" />
<glyph unicode=" "  horiz-adv-x="458" />
<glyph unicode="&#x09;" horiz-adv-x="458" />
<glyph unicode="&#xa0;" horiz-adv-x="458" />
<glyph unicode="!" horiz-adv-x="542" d="M49 100q0 90 47 138.5t135 48.5q137 0 138 -121q0 -90 -47.5 -139.5t-135.5 -49.5q-137 0 -137 123zM139 434l154 942h262l-176 -942h-240z" />
<glyph unicode="&#x22;" horiz-adv-x="952" d="M205 858l92 518h221l-92 -518h-221zM616 858l93 518h221l-92 -518h-222z" />
<glyph unicode="#" horiz-adv-x="1351" d="M10 326l31 180h235l109 364h-211l31 181h233l99 325h198l-96 -325h354l97 325h200l-98 -325h211l-31 -181h-233l-109 -364h211l-31 -180h-235l-96 -326h-201l98 326h-354l-98 -326h-199l96 326h-211zM475 506h354l109 364h-354z" />
<glyph unicode="$" d="M61 117l37 213q102 -39 203.5 -59.5t212.5 -20.5q127 0 194.5 46t67.5 140q0 63 -43 93t-107.5 48.5t-140 35t-140 50t-107.5 95t-43 170.5q0 172 106.5 276.5t310.5 126.5l62 340h241l-61 -344q150 -16 281 -55l-39 -213q-92 29 -182.5 48t-188.5 19q-123 0 -188.5 -45 t-65.5 -133q0 -61 43 -89t108.5 -45t140.5 -32.5t140.5 -50.5t108.5 -98.5t43 -175.5q0 -178 -107.5 -284.5t-318.5 -127.5l-60 -340h-241l59 342q-86 8 -168 25.5t-158 44.5z" />
<glyph unicode="%" horiz-adv-x="1769" d="M156 920q0 227 108.5 354t302.5 127q166 0 239 -60.5t73 -195.5q0 -227 -108.5 -354t-301.5 -127q-166 0 -239.5 60.5t-73.5 195.5zM346 944q0 -68 32 -98.5t103 -30.5q98 0 153.5 83t55.5 226q0 68 -32.5 97.5t-104.5 29.5q-98 0 -152.5 -83t-54.5 -224zM406 0l849 1376 h172l-847 -1376h-174zM954 231q0 227 108.5 354.5t303.5 127.5q166 0 238.5 -60.5t72.5 -195.5q0 -227 -108.5 -354.5t-300.5 -127.5q-166 0 -240 60.5t-74 195.5zM1145 256q0 -68 31.5 -98.5t103.5 -30.5q98 0 153.5 83t55.5 226q0 68 -33 97.5t-104 29.5q-98 0 -152.5 -83 t-54.5 -224z" />
<glyph unicode="&#x26;" horiz-adv-x="1374" d="M57 332q0 154 86 258t275 186q-111 135 -111 271q0 162 116 258t314 96q182 0 272.5 -70.5t90.5 -206.5q0 -143 -84 -242.5t-271 -176.5l201 -254q63 94 80 225h236q-41 -252 -179 -412l195 -264h-277l-94 115q-84 -72 -189.5 -106t-223.5 -34q-217 0 -327 90.5 t-110 266.5zM303 362q0 -92 58.5 -140t168.5 -48q145 0 258 113l-266 344q-117 -51 -168 -114t-51 -155zM549 1042q0 -84 86 -182q117 43 171 96.5t54 130.5q0 119 -137 119q-84 0 -129 -44t-45 -120z" />
<glyph unicode="'" horiz-adv-x="509" d="M205 858l92 518h221l-92 -518h-221z" />
<glyph unicode="(" horiz-adv-x="673" d="M129 393q0 301 103.5 571.5t302.5 477.5h278q-217 -205 -327.5 -467t-110.5 -561q0 -180 34.5 -351.5t106.5 -324.5h-244q-72 135 -107.5 302t-35.5 353z" />
<glyph unicode=")" horiz-adv-x="673" d="M-113 -262q217 205 328 467t111 561q0 180 -35 351t-107 325h244q72 -135 108.5 -302.5t36.5 -353.5q0 -301 -104 -571t-303 -477h-279z" />
<glyph unicode="*" horiz-adv-x="1001" d="M190 793l236 170l-236 170l105 145l235 -170l91 276l170 -55l-89 -278h291v-179h-291l89 -276l-170 -55l-91 276l-235 -170z" />
<glyph unicode="+" d="M158 479v221h336v336h221v-336h336v-221h-336v-336h-221v336h-336z" />
<glyph unicode="," horiz-adv-x="509" d="M-104 -295l198 518h273l-254 -518h-217z" />
<glyph unicode="-" horiz-adv-x="655" d="M29 410l34 200h566l-35 -200h-565z" />
<glyph unicode="." horiz-adv-x="509" d="M29 102q0 92 48 141.5t138 49.5q137 0 137 -125q0 -92 -47 -141.5t-137 -49.5q-139 0 -139 125z" />
<glyph unicode="/" horiz-adv-x="786" d="M-160 -262l887 1704h250l-889 -1704h-248z" />
<glyph unicode="0" d="M76 414q0 213 43 394t126 313t203.5 206t274.5 74q233 0 338.5 -104.5t105.5 -333.5q0 -213 -44 -394.5t-127 -313.5t-202.5 -206t-273.5 -74q-231 0 -337.5 105t-106.5 334zM328 434q0 -129 50 -186.5t161 -57.5q80 0 149.5 56.5t119.5 157t78.5 238.5t28.5 300 q0 129 -49 186.5t-159 57.5q-82 0 -152 -56.5t-120 -157t-78.5 -238.5t-28.5 -300z" />
<glyph unicode="1" d="M301 993l39 219l440 164h209l-241 -1376h-263l201 1137z" />
<glyph unicode="2" d="M10 0l35 195l590 477q113 92 165 171t52 161q0 182 -250 182q-158 0 -354 -49l37 213q98 29 193 40t196 11q229 0 337.5 -79t108.5 -245q0 -287 -274 -510l-438 -358h575l-37 -209h-936z" />
<glyph unicode="3" d="M18 39l35 207q180 -66 340 -66q193 0 284 67.5t91 211.5q0 86 -75 127t-238 41h-82l30 168l402 383h-572l35 198h865l-33 -194l-402 -381q168 -18 252 -98t84 -214q0 -514 -641 -514q-100 0 -194.5 16.5t-180.5 47.5z" />
<glyph unicode="4" d="M4 287l35 200l792 889h281l-158 -891h179l-35 -198h-178l-50 -287h-241l49 287h-674zM279 485h434l106 607z" />
<glyph unicode="5" d="M47 39l35 207q86 -31 171 -48.5t169 -17.5q190 0 279.5 68.5t89.5 216.5q0 178 -334 178q-63 0 -129 -2t-138 -8l129 743h836l-35 -198h-594l-61 -349q29 2 58.5 3.5t58.5 1.5q236 0 355.5 -86t119.5 -252q0 -520 -635 -521q-104 0 -196.5 17.5t-178.5 46.5z" />
<glyph unicode="6" d="M96 393q0 238 51.5 425.5t148.5 316.5t235.5 197.5t312.5 68.5q92 0 177 -14.5t167 -40.5l-35 -203q-78 25 -158 39t-161 14q-174 0 -292 -106.5t-155 -309.5q61 61 141 90t183 29q193 0 297 -91t104 -253q0 -274 -147.5 -427t-415.5 -153q-227 0 -340 106.5t-113 311.5z M340 401q0 -102 56.5 -161.5t170.5 -59.5q135 0 215 85t80 239q0 195 -217 194q-145 0 -225 -78t-80 -219z" />
<glyph unicode="7" d="M180 0l721 1167h-678l35 209h963l-35 -200l-721 -1176h-285z" />
<glyph unicode="8" d="M41 309q0 160 86 261.5t252 142.5q-92 29 -140.5 93t-48.5 163q0 209 137.5 320.5t395.5 111.5q231 0 338.5 -77t107.5 -241q0 -147 -76.5 -245.5t-224.5 -141.5q219 -66 219 -272q0 -221 -143 -335t-424 -114q-250 0 -364.5 79t-114.5 255zM297 346q0 -172 246 -172 q137 0 211.5 62.5t74.5 173.5q0 80 -49 128t-176 66q-307 -39 -307 -258zM442 983q0 -74 46 -118t155 -60q276 43 277 242q0 80 -52.5 117.5t-167.5 37.5q-123 0 -190.5 -58.5t-67.5 -160.5z" />
<glyph unicode="9" d="M55 31l35 202q76 -25 157 -39t165 -14q174 0 290.5 106.5t155.5 309.5q-119 -119 -323 -119q-195 0 -299.5 91t-104.5 253q0 274 148.5 427t416.5 153q225 0 338 -106.5t113 -311.5q0 -238 -51.5 -425t-147.5 -316t-234.5 -198t-312.5 -69q-92 0 -179 14.5t-167 41.5z M383 872q0 -195 217 -194q145 0 225 78t80 219q0 102 -56 161.5t-171 59.5q-135 0 -215 -85t-80 -239z" />
<glyph unicode=":" horiz-adv-x="542" d="M45 102q0 92 48 141.5t138 49.5q137 0 137 -125q0 -92 -47 -141.5t-137 -49.5q-139 0 -139 125zM172 835q0 92 48 141.5t138 49.5q137 0 137 -125q0 -92 -47 -141.5t-137 -49.5q-139 0 -139 125z" />
<glyph unicode=";" horiz-adv-x="542" d="M-88 -295l198 518h273l-254 -518h-217zM172 835q0 92 48 141.5t138 49.5q137 0 137 -125q0 -92 -47 -141.5t-137 -49.5q-139 0 -139 125z" />
<glyph unicode="&#x3c;" d="M158 467v246l893 354v-233l-631 -244l631 -244v-233z" />
<glyph unicode="=" d="M158 258v219h893v-219h-893zM158 702v220h893v-220h-893z" />
<glyph unicode="&#x3e;" d="M158 113v233l628 244l-628 244v233l893 -354v-246z" />
<glyph unicode="?" horiz-adv-x="925" d="M160 100q0 90 47 138.5t135 48.5q137 0 137 -121q0 -90 -47 -139.5t-135 -49.5q-137 0 -137 123zM164 1149l35 205q84 25 167 36t169 11q219 0 321 -74t102 -227q0 -102 -31.5 -173t-80.5 -120t-108.5 -85t-112 -72t-91 -78t-49.5 -103l-6 -35h-221l8 49q12 96 49 160 t84 109t99.5 76.5t95.5 63.5t70.5 69.5t27.5 95.5q0 72 -50 105.5t-159 33.5q-72 0 -150.5 -12.5t-168.5 -34.5z" />
<glyph unicode="@" horiz-adv-x="1996" d="M80 266q0 268 70.5 482.5t207 364t335 229t452.5 79.5q383 0 582.5 -160.5t199.5 -461.5q0 -168 -36 -306.5t-103.5 -236.5t-164.5 -151.5t-220 -53.5q-78 0 -136.5 29t-92.5 82q-117 -111 -304 -111q-160 0 -243.5 81t-83.5 230q0 137 29.5 246t86 185.5t136 117.5 t180.5 41q86 0 154.5 -27.5t109.5 -78.5l37 82h205l-97 -545q-6 -29 -6 -53q0 -84 82 -84q53 0 98.5 38t79 106.5t52 161.5t18.5 204q0 231 -143.5 351t-436.5 120q-199 0 -352 -63.5t-257.5 -183.5t-159 -292t-54.5 -391q0 -262 155.5 -391t491.5 -129q141 0 281.5 25.5 t275.5 70.5l-36 -203q-123 -45 -258.5 -66.5t-276.5 -21.5q-858 0 -858 684zM799 410q0 -78 37.5 -116t109.5 -38q162 0 195 170l18 119q4 23 6 43t2 39q0 53 -40 87t-105 34q-98 0 -160.5 -91t-62.5 -247z" />
<glyph unicode="A" horiz-adv-x="1349" d="M-92 0q41 96 99.5 215t125 248t138 260t142 252t137 224.5t120.5 176.5h299q29 -74 57.5 -177t57 -224t54 -252t47 -260t37 -248t23.5 -215h-270q-8 84 -17.5 164t-19.5 158h-606q-39 -78 -76 -158t-76 -164h-272zM432 522h475q-27 160 -58.5 312.5t-70.5 302.5 q-92 -150 -177 -302.5t-169 -312.5z" />
<glyph unicode="B" horiz-adv-x="1335" d="M61 0l207 1184q4 23 0 30t-22 15l-68 28l43 119h692q385 0 385 -282q0 -141 -54 -241.5t-167 -147.5q162 -51 162 -252q0 -223 -125 -338t-364 -115h-689zM358 199h357q256 0 256 254q0 78 -49.5 114.5t-155.5 36.5h-338zM463 797h332q241 0 241 237q0 74 -46 109 t-144 35h-316z" />
<glyph unicode="C" horiz-adv-x="1236" d="M96 477q0 227 55.5 400.5t157 289t246.5 175t328 59.5q133 0 236.5 -20.5t187.5 -55.5l-76 -211q-59 23 -150.5 47.5t-189.5 24.5q-246 0 -381 -171t-135 -491q0 -334 368 -334q98 0 188.5 12.5t184.5 35.5l-39 -220q-92 -23 -191.5 -33t-199.5 -10q-293 0 -441.5 127 t-148.5 375z" />
<glyph unicode="D" horiz-adv-x="1449" d="M61 0l207 1184q4 23 0 30t-22 15l-68 28l43 119h561q328 0 481.5 -124t153.5 -386q0 -209 -54 -369.5t-157.5 -271t-254 -168t-345.5 -57.5h-545zM369 209h247q254 0 388.5 166t134.5 471q0 166 -94.5 243.5t-303.5 77.5h-202z" />
<glyph unicode="E" horiz-adv-x="1214" d="M61 0l207 1184q4 23 0 30t-22 15l-68 28l43 119h1057l-35 -209h-702l-66 -366h555l-37 -201h-553l-69 -391h719l-37 -209h-992z" />
<glyph unicode="F" horiz-adv-x="1181" d="M61 0l207 1184q4 23 0 30t-22 15l-68 28l43 119h1057l-37 -209h-702l-76 -422h557l-37 -204h-555l-94 -541h-273z" />
<glyph unicode="G" horiz-adv-x="1374" d="M96 483q0 225 57.5 397.5t163 288t258 174t343.5 58.5q59 0 123.5 -6t125 -16.5t111.5 -24t86 -29.5l-76 -209q-66 29 -166 52.5t-198 23.5q-272 0 -415.5 -170t-143.5 -492q0 -174 93 -260t292 -86q51 0 108 7.5t113 17.5l63 356h-309l33 191h557l-129 -733 q-119 -23 -238 -35.5t-246 -12.5q-297 0 -451.5 130.5t-154.5 377.5z" />
<glyph unicode="H" horiz-adv-x="1499" d="M61 0l207 1184q4 23 0 30t-22 15l-68 28l43 119h326q12 0 20 -3t4 -21l-94 -545h662l100 569h272l-241 -1376h-273l105 596h-662l-106 -596h-273z" />
<glyph unicode="I" horiz-adv-x="563" d="M61 0l207 1184q4 23 0 30t-22 15l-68 28l43 119h326q12 0 20 -3t4 -21l-237 -1352h-273z" />
<glyph unicode="J" horiz-adv-x="935" d="M-33 10l39 213q61 -16 119.5 -24.5t114.5 -8.5q123 0 184 51.5t82 172.5l170 962h272l-178 -1003q-35 -209 -153.5 -303.5t-344.5 -94.5q-82 0 -157.5 9.5t-147.5 25.5z" />
<glyph unicode="K" horiz-adv-x="1277" d="M61 0l207 1184q4 23 0 30t-22 15l-68 28l43 119h316q12 0 20 -3t4 -21l-100 -570l649 594h309l-684 -635l447 -741h-281l-348 582l-152 -138l-77 -444h-263z" />
<glyph unicode="L" horiz-adv-x="1073" d="M61 0l207 1184q4 23 0 30t-22 15l-68 28l43 119h326q12 0 20 -3t4 -21l-200 -1143h628l-38 -209h-900z" />
<glyph unicode="M" horiz-adv-x="1679" d="M61 0l207 1184q4 23 0 30t-22 15l-68 28l43 119h291q33 0 42 -8t21 -39l279 -698l561 745h277l-242 -1376h-252l172 981l-461 -606h-104q-27 0 -42 1t-23.5 6t-14.5 16.5t-14 31.5l-226 553l-172 -983h-252z" />
<glyph unicode="N" horiz-adv-x="1499" d="M61 0l207 1184q4 23 0 30t-22 15l-68 28l43 119h309q31 0 39.5 -6t26.5 -41l487 -956l177 1003h251l-241 -1376h-269l-509 1004l-179 -1004h-252z" />
<glyph unicode="O" horiz-adv-x="1488" d="M96 477q0 217 52.5 389t151.5 291t241.5 181.5t324.5 62.5q293 0 441.5 -127t148.5 -375q0 -219 -52 -390t-151.5 -290t-243 -181.5t-323.5 -62.5q-293 0 -441.5 127t-148.5 375zM375 508q0 -317 327 -318q111 0 199 46.5t149.5 134.5t94.5 213t33 284q0 317 -328 318 q-111 0 -199 -46t-149.5 -134t-94 -213t-32.5 -285z" />
<glyph unicode="P" horiz-adv-x="1302" d="M61 0l207 1184q4 23 0 30t-22 15l-68 28l43 119h633q246 0 357.5 -81t111.5 -255q0 -272 -150.5 -413.5t-437.5 -141.5h-325l-86 -485h-263zM446 696h299q309 0 310 299q0 88 -57.5 130t-184.5 42h-285z" />
<glyph unicode="Q" horiz-adv-x="1488" d="M96 477q0 219 52.5 391t150.5 290t241.5 180.5t325.5 62.5q293 0 441.5 -127t148.5 -375q0 -315 -103.5 -528t-297.5 -314l131 -299h-244l-100 230q-74 -12 -156 -13q-293 0 -441.5 127t-148.5 375zM365 504q0 -324 337 -324h26.5t27.5 2l-90 207h243l54 -125 q106 80 165.5 231.5t59.5 366.5q0 324 -338 324q-111 0 -201 -46t-153.5 -134t-97 -215t-33.5 -287z" />
<glyph unicode="R" horiz-adv-x="1335" d="M61 0l207 1184q4 23 0 30t-22 15l-68 28l43 119h649q231 0 342 -81t111 -248q0 -211 -97.5 -337t-281.5 -161l238 -549h-264l-222 518h-282l-90 -518h-263zM451 723h311q293 0 293 287q0 161 -223 161h-3h-301z" />
<glyph unicode="S" horiz-adv-x="1204" d="M25 55l38 211q221 -82 459 -82q147 0 232.5 55.5t85.5 166.5q0 72 -49.5 109.5t-123 62t-159.5 45t-160 59.5t-123 106.5t-49 184.5q0 104 42 184t116 134.5t176 82t223 27.5q76 0 147.5 -8.5t133 -19.5t107.5 -25.5t71 -26.5l-74 -203q-74 29 -167 51.5t-201 22.5 q-143 0 -227.5 -46t-84.5 -155q0 -68 49.5 -103.5t123 -59t160.5 -46t161 -62.5t123 -109.5t49 -186.5q0 -106 -39 -190t-112.5 -141.5t-179 -87.5t-236.5 -30q-135 0 -265.5 20.5t-246.5 59.5z" />
<glyph unicode="T" horiz-adv-x="1226" d="M154 1167l39 209h1146l-36 -209h-439l-202 -1167h-275l205 1167h-438z" />
<glyph unicode="U" horiz-adv-x="1499" d="M141 375q0 43 5.5 89t13.5 91l108 629q4 23 0 30t-22 15l-68 28l43 119h326q12 0 20 -3t4 -21l-139 -797q-6 -33 -10 -66.5t-4 -66.5q0 -106 75.5 -169t204.5 -63q174 0 267.5 77t121.5 243l152 866h272l-155 -887q-23 -135 -74 -231t-135 -159.5t-202 -93.5t-273 -30 q-123 0 -220.5 28t-167 80t-106.5 126t-37 166z" />
<glyph unicode="V" horiz-adv-x="1345" d="M164 1376h270q33 -322 80 -598t117 -536q162 260 307 536.5t291 597.5h274q-43 -96 -100 -215t-125 -248t-139.5 -260t-142 -251.5t-137 -224t-120.5 -177.5h-299q-29 74 -57.5 177.5t-57 224t-54 251.5t-47 260t-37 248t-23.5 215z" />
<glyph unicode="W" horiz-adv-x="2068" d="M158 1376h262q14 -281 39.5 -559t72.5 -563h3q135 264 256.5 537.5t238.5 556.5h260q12 -260 39 -539t72 -555h2q129 242 252 516t258 606h266q-55 -145 -136 -327.5t-171 -369.5t-182.5 -365.5t-169.5 -313.5h-303q-100 463 -130 961q-86 -248 -201.5 -485.5 t-246.5 -475.5h-309q-31 135 -59.5 313.5t-52 365.5t-39 369.5t-21.5 327.5z" />
<glyph unicode="X" horiz-adv-x="1345" d="M-74 0l606 723l-329 653h282l244 -506l414 506h315l-586 -698l342 -678h-284l-252 530l-432 -530h-320z" />
<glyph unicode="Y" horiz-adv-x="1247" d="M152 1376h286l226 -575l423 575h316l-637 -827l-94 -549h-273l99 571z" />
<glyph unicode="Z" horiz-adv-x="1269" d="M-16 0l34 199l928 968h-741l37 209h1091l-35 -198l-925 -969h774l-39 -209h-1124z" />
<glyph unicode="[" horiz-adv-x="673" d="M33 -262l299 1704h463l-35 -199h-221l-230 -1306h221l-34 -199h-463z" />
<glyph unicode="\" horiz-adv-x="786" d="M154 1442h219l289 -1704h-222z" />
<glyph unicode="]" horiz-adv-x="673" d="M-88 -262l35 199h219l229 1306h-219l35 199h461l-299 -1704h-461z" />
<glyph unicode="^" d="M115 483l397 893h266l398 -893h-254l-277 629l-276 -629h-254z" />
<glyph unicode="_" horiz-adv-x="983" d="M-154 -362l37 200h983l-37 -200h-983z" />
<glyph unicode="`" horiz-adv-x="491" d="M51 1442h256l199 -303h-213z" />
<glyph unicode="a" horiz-adv-x="1189" d="M57 332q0 160 35 289t100.5 219t157.5 139t207 49q100 0 184 -32.5t136 -92.5l41 101h210l-143 -809q-4 -23 -1 -30t22 -15l67 -29l-45 -121h-254q-10 0 -13 3t-3 17v103q-141 -147 -332 -148q-180 0 -274.5 92.5t-94.5 264.5zM324 375q0 -98 48 -146.5t138 -48.5 q209 0 250 226l61 344q-27 23 -77 48t-134 25q-135 0 -210.5 -121.5t-75.5 -326.5z" />
<glyph unicode="b" horiz-adv-x="1167" d="M39 0l219 1247q4 23 1 30t-21 15l-68 29l47 121h309q12 0 20.5 -3t4.5 -22l-88 -491q51 49 121.5 75.5t154.5 26.5q180 0 275.5 -91t95.5 -265q0 -160 -35 -289t-100.5 -219t-158.5 -139.5t-208 -49.5q-102 0 -188 36t-129 108l-41 -119h-211zM346 252q35 -25 90.5 -48.5 t120.5 -23.5q66 0 119 32t90 90t57.5 142.5t20.5 186.5q0 96 -48 144t-139 48q-215 0 -251 -225z" />
<glyph unicode="c" horiz-adv-x="956" d="M57 348q0 168 43 296t122 213t190.5 128t249.5 43q86 0 169.5 -14.5t143.5 -38.5l-74 -197q-41 16 -103.5 30.5t-131.5 14.5q-166 0 -254 -112.5t-88 -319.5q0 -211 241 -211q139 0 273 33l-35 -207q-141 -31 -295 -31q-225 0 -338 94.5t-113 278.5z" />
<glyph unicode="d" horiz-adv-x="1187" d="M57 332q0 160 35 289t100.5 219t157.5 139t207 49q92 0 168 -27.5t125 -78.5l92 520h262l-219 -1247q-4 -23 -1 -30t22 -15l67 -29l-45 -121h-254q-10 0 -13 3t-3 17v86q-61 -70 -146.5 -100.5t-185.5 -30.5q-180 0 -274.5 92.5t-94.5 264.5zM324 375q0 -98 48 -146.5 t138 -48.5q61 0 120.5 19.5t100.5 52.5l57 313q10 57 11 109q0 68 -52.5 108.5t-136.5 40.5q-131 0 -208.5 -121.5t-77.5 -326.5z" />
<glyph unicode="e" horiz-adv-x="1097" d="M57 348q0 160 38 286t109.5 214t175 134t236.5 46q211 0 313.5 -89t102.5 -277q0 -115 -35 -236h-686q-2 -18 -2 -37t2 -41q18 -174 269 -174q82 0 166.5 11.5t173.5 29.5l-35 -201q-80 -18 -164 -28.5t-174 -10.5q-244 0 -367 94.5t-123 278.5zM340 594h438q6 33 6 78 q0 86 -43 129t-139 43q-104 0 -172 -64.5t-90 -185.5z" />
<glyph unicode="f" horiz-adv-x="745" d="M-188 -264q70 35 116.5 74.5t80.5 97t56.5 137.5t43.5 197l94 526q6 31 3 39t-20 12l-129 35l58 150h129l22 131q16 94 49 157.5t84.5 102.5t121 55t161.5 16q66 0 133.5 -11t102.5 -30l-74 -192q-33 12 -69 20.5t-70 8.5q-84 0 -126 -38t-55 -110l-18 -110h272l-35 -199 h-272l-102 -584q-27 -152 -65 -259t-95 -183t-137 -124t-189 -81z" />
<glyph unicode="g" horiz-adv-x="1165" d="M57 332q0 160 35 289t100.5 219t157.5 139t207 49q100 0 184 -32.5t136 -92.5l41 101h210l-178 -1006q-18 -109 -57 -193t-106.5 -141t-167 -86t-238.5 -29q-66 0 -124 4.5t-91 14.5l37 199q41 -10 89 -14.5t89 -4.5q84 0 139 19.5t89 50t50.5 71.5t24.5 84l18 103 q-47 -53 -118.5 -77t-157.5 -24q-180 0 -274.5 92.5t-94.5 264.5zM324 375q0 -98 48 -146.5t138 -48.5q209 0 250 226l61 344q-27 23 -77 48t-134 25q-135 0 -210.5 -121.5t-75.5 -326.5z" />
<glyph unicode="h" horiz-adv-x="1187" d="M39 0l219 1247q4 23 1 30t-21 15l-68 29l47 121h309q12 0 20.5 -3t4.5 -22l-88 -491q53 47 122.5 74.5t153.5 27.5q166 0 256 -82t90 -229q0 -70 -12 -131l-69 -391q-4 -23 -1 -30t21 -15l68 -29l-45 -121h-320q-18 0 -16 20l100 566q8 47 8 84q0 149 -166 149h-2 q-63 0 -121.5 -20.5t-93.5 -38.5l-135 -760h-262z" />
<glyph unicode="i" horiz-adv-x="538" d="M57 0l144 809q4 23 1 30t-22 15l-69 29l47 121h311q12 0 20.5 -3.5t4.5 -21.5l-175 -979h-262zM256 1257q0 88 46 135.5t132 47.5q133 0 133 -117q0 -90 -46 -137t-132 -47h-2q-131 0 -131 118z" />
<glyph unicode="j" horiz-adv-x="538" d="M-238 -438l33 192q10 -2 26.5 -2h31.5q90 0 133 41q23 23 38 59.5t25 100.5l152 856q4 23 1 30t-22 15l-69 29l47 121h311q12 0 20.5 -3.5t4.5 -21.5l-181 -1016q-23 -119 -53.5 -190.5t-79.5 -118.5q-104 -98 -315 -98q-25 0 -54.5 1t-48.5 5zM256 1257q0 88 46 135.5 t132 47.5q133 0 133 -117q0 -90 -46 -137t-132 -47h-2q-131 0 -131 118z" />
<glyph unicode="k" horiz-adv-x="1036" d="M39 0l219 1247q4 23 1 30t-21 15l-68 29l47 121h299q12 0 20.5 -3t4.5 -22l-140 -792l398 379h299l-471 -445l295 -559h-271l-200 403l-107 -100l-53 -303h-252z" />
<glyph unicode="l" horiz-adv-x="542" d="M45 20l215 1227q4 23 1 30t-21 15l-68 29l47 121h309q12 0 20.5 -3t4.5 -22l-215 -1222q-4 -23 -1 -30t21 -15l68 -29l-45 -121h-320q-18 0 -16 20z" />
<glyph unicode="m" horiz-adv-x="1820" d="M49 0l144 809q4 23 0.5 30t-21.5 15l-68 29l48 121h301q12 0 20 -4.5t4 -20.5l-10 -59q51 47 121.5 77.5t154.5 30.5q106 0 179 -38t104 -91q63 66 149.5 97.5t208.5 31.5q160 0 247 -80t87 -221q0 -68 -12 -131l-70 -401q-4 -23 -1 -30t22 -15l67 -29l-45 -121h-319 q-18 0 -17 20l103 576q4 23 6 44.5t2 39.5q0 139 -158 139q-82 0 -133 -15.5t-92 -41.5q4 -14 4 -54t-10 -90l-109 -618h-262l107 596q10 47 10 84q0 139 -160 139q-68 0 -116 -16.5t-89 -42.5l-135 -760h-262z" />
<glyph unicode="n" horiz-adv-x="1198" d="M49 0l144 809q4 23 0.5 30t-21.5 15l-68 29l48 121h301q12 0 20 -4.5t4 -20.5l-10 -59q57 53 130 80.5t153 27.5q166 0 256 -82t90 -229q0 -70 -13 -131l-69 -391q-4 -23 -1 -30t21 -15l68 -29l-45 -121h-320q-18 0 -16 20l100 566q8 47 8 84q0 149 -165 149h-2 q-63 0 -122 -20.5t-94 -38.5l-135 -760h-262z" />
<glyph unicode="o" horiz-adv-x="1148" d="M57 348q0 160 40 286t115 213t182.5 134t244.5 47q453 0 453 -373q0 -160 -40 -285.5t-115 -212.5t-183.5 -134.5t-245.5 -47.5q-225 0 -338 94.5t-113 278.5zM324 379q0 -199 200 -199q70 0 125.5 32t94 89t60 139t21.5 185q0 198 -198 198h-2q-70 0 -125.5 -31.5 t-94 -89t-60 -140.5t-21.5 -183z" />
<glyph unicode="p" horiz-adv-x="1177" d="M-25 -426l218 1235q4 23 0.5 30t-21.5 15l-68 29l48 121h297q12 0 20 -3.5t4 -21.5l-10 -59q51 47 127 77.5t160 30.5q180 0 275 -91t95 -265q0 -160 -34.5 -289t-100 -219t-159 -139.5t-208.5 -49.5q-88 0 -164.5 28t-125.5 81l-90 -510h-263zM356 252 q35 -25 90.5 -48.5t120.5 -23.5q66 0 119 32t90 90t57.5 142.5t20.5 186.5q0 96 -48 144t-138 48q-215 0 -252 -225z" />
<glyph unicode="q" horiz-adv-x="1165" d="M57 332q0 160 35 289t100.5 219t157.5 139t207 49q100 0 184 -32.5t136 -92.5l41 101h210l-247 -1407l-273 -46l94 525q-53 -53 -121.5 -77t-154.5 -24q-180 0 -274.5 92.5t-94.5 264.5zM324 375q0 -98 48 -146.5t138 -48.5q61 0 120.5 19.5t100.5 52.5l57 313 q10 57 11 109q0 68 -52.5 108.5t-136.5 40.5q-131 0 -208.5 -121.5t-77.5 -326.5z" />
<glyph unicode="r" horiz-adv-x="813" d="M49 0l144 809q4 23 0.5 30t-21.5 15l-68 29l48 121h301q12 0 20 -4.5t4 -20.5l-16 -98q66 82 140.5 114.5t150.5 32.5q33 0 64.5 -3t47.5 -7l-37 -213q-12 4 -43.5 9t-68.5 5q-88 0 -149.5 -26.5t-125.5 -71.5l-129 -721h-262z" />
<glyph unicode="s" horiz-adv-x="940" d="M10 33l35 205q172 -68 340 -68q98 0 152.5 35t54.5 102q0 45 -36 66.5t-89 37t-115.5 32t-116 46t-89 82t-35.5 142.5q0 147 114.5 231t321.5 84q106 0 200.5 -16.5t159.5 -42.5l-73 -195q-51 25 -123 42.5t-148 17.5q-92 0 -146.5 -29t-54.5 -90q0 -39 36 -59.5 t89.5 -35t116 -30t115.5 -46t89 -81.5t36 -135q0 -166 -114 -259.5t-331 -93.5q-104 0 -201.5 14.5t-187.5 43.5z" />
<glyph unicode="t" horiz-adv-x="802" d="M49 854l57 150h130l51 288h262l-51 -288h313l-35 -199h-315l-76 -432q-6 -35 -6 -68q0 -125 153 -125q66 0 136 16l-37 -206q-39 -6 -79 -10.5t-83 -4.5q-182 0 -269 71t-87 208q0 27 3 53.5t7 54.5l70 406q6 31 3 39t-20 12z" />
<glyph unicode="u" horiz-adv-x="1169" d="M88 883l47 121h311q12 0 20.5 -3.5t4.5 -21.5l-102 -571q-4 -20 -6.5 -42t-2.5 -42q0 -66 46.5 -105t128.5 -39q104 0 160.5 47t74.5 152l111 625h262l-115 -646q-35 -201 -160 -292t-362 -91q-193 0 -301.5 80t-108.5 221q0 35 3 68t7 64l72 401q4 23 1 30t-21 15z" />
<glyph unicode="v" horiz-adv-x="1071" d="M102 1004h271q16 -180 44.5 -373t69.5 -379q106 186 202.5 378.5t180.5 373.5h275q-29 -63 -70 -146.5t-90 -174.5t-103.5 -185.5t-107.5 -184.5t-104.5 -171t-94.5 -142h-262q-31 92 -64.5 224t-63 273.5t-52 275.5t-31.5 231z" />
<glyph unicode="w" horiz-adv-x="1687" d="M104 1004h256q12 -193 34 -378.5t55 -371.5h2q98 186 180 362.5t160 354.5h241q12 -186 33.5 -362.5t52.5 -354.5h2q100 188 187.5 373.5t167.5 376.5h254q-47 -109 -105.5 -232t-124 -252t-138.5 -261t-147 -259h-262q-31 135 -58.5 299t-41.5 326h-4 q-70 -162 -152 -326t-161 -299h-273q-31 127 -55.5 259t-45 261t-34.5 252t-23 232z" />
<glyph unicode="x" horiz-adv-x="1071" d="M-63 0l438 524l-244 480h264l160 -330l266 330h295l-424 -508l252 -496h-266l-166 346l-279 -346h-296z" />
<glyph unicode="y" d="M88 883l47 121h311q12 0 20.5 -3.5t4.5 -21.5l-102 -571q-4 -20 -6.5 -42t-2.5 -42q0 -66 46.5 -105t128.5 -39q106 0 162.5 56.5t76.5 169.5l107 598h262l-178 -1006q-18 -109 -57.5 -193t-107 -141t-166.5 -86t-239 -29q-66 0 -124 4.5t-91 14.5l37 199 q41 -10 89 -14.5t89 -4.5q84 0 139.5 19.5t89 50t50 71.5t24.5 84l19 103q-47 -49 -120 -75t-148 -26q-78 0 -142.5 20.5t-112 59.5t-73 94.5t-25.5 126.5q0 35 3 68t7 64l72 401q4 23 1 30t-21 15z" />
<glyph unicode="z" horiz-adv-x="980" d="M-12 0l35 188l628 617h-506l35 199h817l-32 -189l-629 -616h538l-34 -199h-852z" />
<glyph unicode="{" horiz-adv-x="673" d="M10 489l35 201h21q88 0 134 41t62 129l45 254q14 88 44 150.5t78 101.5t117.5 57.5t166.5 18.5h82l-37 -199h-33q-156 0 -182 -162l-45 -262q-18 -100 -67.5 -162.5t-129.5 -83.5q117 -31 117 -170q0 -20 -2 -40.5t-6 -43.5l-39 -204q-6 -35 -6 -68q0 -59 35.5 -84.5 t103.5 -25.5h24l-34 -199h-68q-311 0 -311 237q0 27 2 51.5t8 55.5l43 237q6 31 6 64q0 106 -131 106h-33z" />
<glyph unicode="|" horiz-adv-x="491" d="M135 -459v1966h221v-1966h-221z" />
<glyph unicode="}" horiz-adv-x="673" d="M-92 -262l37 199h30q158 0 185 161l45 262q18 100 67.5 163t128.5 83q-117 31 -116 170q0 45 8 84l37 205q6 33 6 68q0 59 -35 84.5t-104 25.5h-23l35 199h67q311 0 312 -238q0 -27 -3 -51.5t-7 -54.5l-43 -238q-6 -31 -7 -63q0 -106 131 -107h33l-35 -201h-20 q-88 0 -134 -40.5t-63 -129.5l-45 -253q-16 -88 -44.5 -150.5t-77 -101.5t-118 -57.5t-165.5 -18.5h-82z" />
<glyph unicode="~" d="M72 395q2 211 78.5 306.5t244.5 95.5q84 0 139.5 -30t97.5 -64.5t77.5 -64.5t81.5 -30q66 0 94 42t30 134h220q0 -211 -77 -306t-245 -95q-84 0 -140.5 29.5t-98.5 64.5t-77.5 64.5t-80.5 29.5q-66 0 -94.5 -42t-28.5 -134h-221z" />
<glyph unicode="&#xa1;" horiz-adv-x="542" d="M-16 -373l176 942h239l-153 -942h-262zM170 838q0 90 47 139t135 49q137 0 137 -123q0 -90 -47 -138t-135 -48q-137 0 -137 121z" />
<glyph unicode="&#xa2;" d="M205 535q0 283 118.5 455.5t340.5 213.5l61 346h242l-62 -342q55 -6 108.5 -15t106.5 -26l-35 -206q-66 23 -134 36t-138 13q-166 0 -254 -112t-88 -323q0 -209 244 -208q135 0 272 32l-37 -206q-115 -25 -229 -31l-59 -336h-242l61 354q-276 64 -276 355z" />
<glyph unicode="&#xa3;" d="M45 0l37 205h176l68 395h-144l35 201h143l33 184q39 213 164 314.5t348 101.5q70 0 144.5 -11.5t152.5 -29.5l-35 -205q-61 16 -119.5 26.5t-111.5 10.5q-121 0 -186.5 -56.5t-87.5 -181.5l-29 -153h364l-34 -201h-365l-68 -395h486l-37 -205h-934z" />
<glyph unicode="&#xa5;" d="M109 244l28 157h297l29 158h-299l26 160h234l-291 657h285l219 -549l403 549h314l-512 -657h219l-27 -160h-299l-28 -158h299l-29 -157h-297l-43 -244h-272l43 244h-299z" />
<glyph unicode="&#xa8;" horiz-adv-x="491" d="M8 1257q0 86 43 132.5t129 46.5q129 0 129 -113q0 -86 -44 -132t-130 -46q-127 -1 -127 112zM451 1257q0 86 44 132.5t130 46.5q127 0 127 -113q0 -86 -43 -132t-129 -46q-129 -1 -129 112z" />
<glyph unicode="&#xa9;" horiz-adv-x="1703" d="M111 688q0 195 44 337t138 234.5t240.5 137.5t351.5 45t351 -45t240.5 -137.5t138.5 -234.5t44 -337t-44 -337t-138.5 -234t-240.5 -137.5t-351 -45.5t-351.5 45.5t-240.5 137.5t-138 234t-44 337zM262 688q0 -330 153.5 -476t469.5 -146q315 0 468.5 146t153.5 476 q0 166 -35.5 284t-110.5 192.5t-192.5 110.5t-283.5 36t-284 -36t-192.5 -110.5t-110.5 -192.5t-36 -284zM483 688q0 233 102.5 337.5t336.5 104.5q70 0 134 -8t128 -24v-160q-59 16 -114.5 25.5t-115.5 9.5q-147 0 -208.5 -66.5t-61.5 -218.5t61.5 -218.5t208.5 -66.5 q59 0 114.5 9.5t115.5 25.5v-159q-63 -16 -128 -24.5t-134 -8.5q-233 0 -336 104.5t-103 337.5z" />
<glyph unicode="&#xab;" horiz-adv-x="1083" d="M35 502l348 407h244l-334 -420l203 -395h-232zM512 502l348 407h244l-336 -420l205 -395h-232z" />
<glyph unicode="&#xad;" horiz-adv-x="655" d="M29 410l34 200h566l-35 -200h-565z" />
<glyph unicode="&#xae;" horiz-adv-x="1703" d="M111 688q0 195 44 337t138 234.5t240.5 137.5t351.5 45t351 -45t240.5 -137.5t138.5 -234.5t44 -337t-44 -337t-138.5 -234t-240.5 -137.5t-351 -45.5t-351.5 45.5t-240.5 137.5t-138 234t-44 337zM262 688q0 -330 153.5 -476t469.5 -146q315 0 468.5 146t153.5 476 q0 166 -35.5 284t-110.5 192.5t-192.5 110.5t-283.5 36t-284 -36t-192.5 -110.5t-110.5 -192.5t-36 -284zM549 262v852h391q170 0 245 -63.5t75 -208.5q0 -211 -177 -250l199 -330h-209l-178 309h-160v-309h-186zM735 721h189q76 0 107.5 28.5t31.5 94.5t-32 93.5t-107 27.5 h-189v-244z" />
<glyph unicode="&#xb4;" horiz-adv-x="491" d="M205 1139l289 303h290l-333 -303h-246z" />
<glyph unicode="&#xb8;" horiz-adv-x="491" d="M-145 -457l24 142q37 -12 76 -19.5t78 -7.5q119 0 119 86q0 29 -24 44t-83 15h-12l35 197h178l-15 -90q125 -25 125 -150q0 -117 -79.5 -181t-225.5 -64q-47 0 -97 8t-99 20z" />
<glyph unicode="&#xbb;" horiz-adv-x="1083" d="M-18 94l333 420l-202 395h231l227 -407l-346 -408h-243zM457 94l336 420l-205 395h231l230 -407l-349 -408h-243z" />
<glyph unicode="&#xbf;" horiz-adv-x="860" d="M-35 -96q0 104 32 173.5t81 119t108.5 85t111.5 71.5t91 78t49 104l6 34h222l-9 -49q-12 -94 -49 -158.5t-84 -108.5t-99 -76t-95 -64.5t-71 -70.5t-28 -95q0 -72 50.5 -106t158.5 -34q139 0 322 48l-37 -205q-82 -25 -166 -36t-170 -11q-219 0 -321.5 73.5t-102.5 227.5 zM444 838q0 90 47.5 139t135.5 49q137 0 137 -123q0 -90 -47 -138t-135 -48q-137 0 -138 121z" />
<glyph unicode="&#xc0;" horiz-adv-x="1349" d="M-92 0q41 96 99.5 215t125 248t138 260t142 252t137 224.5t120.5 176.5h299q29 -74 57.5 -177t57 -224t54 -252t47 -260t37 -248t23.5 -215h-270q-8 84 -17.5 164t-19.5 158h-606q-39 -78 -76 -158t-76 -164h-272zM432 522h475q-27 160 -58.5 312.5t-70.5 302.5 q-92 -150 -177 -302.5t-169 -312.5zM540 1802h256l199 -303h-213z" />
<glyph unicode="&#xc1;" horiz-adv-x="1349" d="M-92 0q41 96 99.5 215t125 248t138 260t142 252t137 224.5t120.5 176.5h299q29 -74 57.5 -177t57 -224t54 -252t47 -260t37 -248t23.5 -215h-270q-8 84 -17.5 164t-19.5 158h-606q-39 -78 -76 -158t-76 -164h-272zM432 522h475q-27 160 -58.5 312.5t-70.5 302.5 q-92 -150 -177 -302.5t-169 -312.5zM694 1499l289 303h290l-333 -303h-246z" />
<glyph unicode="&#xc2;" horiz-adv-x="1349" d="M-92 0q41 96 99.5 215t125 248t138 260t142 252t137 224.5t120.5 176.5h299q29 -74 57.5 -177t57 -224t54 -252t47 -260t37 -248t23.5 -215h-270q-8 84 -17.5 164t-19.5 158h-606q-39 -78 -76 -158t-76 -164h-272zM432 522h475q-27 160 -58.5 312.5t-70.5 302.5 q-92 -150 -177 -302.5t-169 -312.5zM456 1499l303 303h254l201 -303h-213l-125 166l-184 -166h-236z" />
<glyph unicode="&#xc3;" horiz-adv-x="1349" d="M-92 0q41 96 99.5 215t125 248t138 260t142 252t137 224.5t120.5 176.5h299q29 -74 57.5 -177t57 -224t54 -252t47 -260t37 -248t23.5 -215h-270q-8 84 -17.5 164t-19.5 158h-606q-39 -78 -76 -158t-76 -164h-272zM432 522h475q-27 160 -58.5 312.5t-70.5 302.5 q-92 -150 -177 -302.5t-169 -312.5zM499 1509l4 33q16 129 69.5 183t164.5 54q39 0 72.5 -13t62.5 -28.5t53.5 -29t46.5 -13.5q66 0 80 78l2 17h187l-4 -33q-16 -127 -70.5 -181.5t-165.5 -54.5q-41 0 -73.5 13.5t-61.5 29t-53.5 28.5t-47.5 13q-66 0 -77 -78l-4 -18h-185z " />
<glyph unicode="&#xc4;" horiz-adv-x="1349" d="M-92 0q41 96 99.5 215t125 248t138 260t142 252t137 224.5t120.5 176.5h299q29 -74 57.5 -177t57 -224t54 -252t47 -260t37 -248t23.5 -215h-270q-8 84 -17.5 164t-19.5 158h-606q-39 -78 -76 -158t-76 -164h-272zM432 522h475q-27 160 -58.5 312.5t-70.5 302.5 q-92 -150 -177 -302.5t-169 -312.5zM497 1617q0 86 43 132.5t129 46.5q129 0 129 -113q0 -86 -44 -132t-130 -46q-127 -1 -127 112zM940 1617q0 86 44 132.5t130 46.5q127 0 127 -113q0 -86 -43 -132t-129 -46q-129 -1 -129 112z" />
<glyph unicode="&#xc5;" horiz-adv-x="1349" d="M-92 0q41 96 99.5 215t125 248t138 260t142 252t137 224.5t120.5 176.5h299q29 -74 57.5 -177t57 -224t54 -252t47 -260t37 -248t23.5 -215h-270q-8 84 -17.5 164t-19.5 158h-606q-39 -78 -76 -158t-76 -164h-272zM432 522h475q-27 160 -58.5 312.5t-70.5 302.5 q-92 -150 -177 -302.5t-169 -312.5zM624 1605q0 119 73 186.5t202 67.5q215 0 215 -164q0 -121 -74 -187.5t-201 -66.5q-215 0 -215 164zM768 1624q0 -72 83 -72q53 0 86 34t33 91q0 70 -84 69q-53 0 -85.5 -32.5t-32.5 -89.5z" />
<glyph unicode="&#xc6;" horiz-adv-x="2078" d="M-111 0q141 197 299 399.5t310.5 386t289 337t236.5 253.5h1118l-37 -209h-702l-66 -366h555l-34 -201h-555l-70 -391h719l-37 -209h-991l57 322h-565q-66 -86 -127.5 -167t-114.5 -155h-285zM571 522h445l117 662q-55 -59 -121 -133t-137.5 -160t-149.5 -179.5 t-154 -189.5z" />
<glyph unicode="&#xc7;" horiz-adv-x="1236" d="M96 477q0 227 55.5 400.5t157 289t246.5 175t328 59.5q133 0 236.5 -20.5t187.5 -55.5l-76 -211q-59 23 -150.5 47.5t-189.5 24.5q-246 0 -381 -171t-135 -491q0 -334 368 -334q98 0 188.5 12.5t184.5 35.5l-39 -220q-166 -37 -348 -43l-10 -65q125 -25 125 -150 q0 -117 -80 -181t-225 -64q-47 0 -97.5 8t-99.5 20l25 142q37 -12 75.5 -19.5t77.5 -7.5q119 0 119 86q0 29 -23.5 44t-83.5 15h-12l31 181q-225 29 -340 152.5t-115 340.5z" />
<glyph unicode="&#xc8;" horiz-adv-x="1214" d="M61 0l207 1184q4 23 0 30t-22 15l-68 28l43 119h1057l-35 -209h-702l-66 -366h555l-37 -201h-553l-69 -391h719l-37 -209h-992zM502 1802h256l199 -303h-213z" />
<glyph unicode="&#xc9;" horiz-adv-x="1214" d="M61 0l207 1184q4 23 0 30t-22 15l-68 28l43 119h1057l-35 -209h-702l-66 -366h555l-37 -201h-553l-69 -391h719l-37 -209h-992zM656 1499l289 303h290l-333 -303h-246z" />
<glyph unicode="&#xca;" horiz-adv-x="1214" d="M61 0l207 1184q4 23 0 30t-22 15l-68 28l43 119h1057l-35 -209h-702l-66 -366h555l-37 -201h-553l-69 -391h719l-37 -209h-992zM418 1499l303 303h254l201 -303h-213l-125 166l-184 -166h-236z" />
<glyph unicode="&#xcb;" horiz-adv-x="1214" d="M61 0l207 1184q4 23 0 30t-22 15l-68 28l43 119h1057l-35 -209h-702l-66 -366h555l-37 -201h-553l-69 -391h719l-37 -209h-992zM459 1617q0 86 43 132.5t129 46.5q129 0 129 -113q0 -86 -44 -132t-130 -46q-127 -1 -127 112zM902 1617q0 86 44 132.5t130 46.5 q127 0 127 -113q0 -86 -43 -132t-129 -46q-129 -1 -129 112z" />
<glyph unicode="&#xcc;" horiz-adv-x="563" d="M61 0l207 1184q4 23 0 30t-22 15l-68 28l43 119h326q12 0 20 -3t4 -21l-237 -1352h-273zM164 1802h256l199 -303h-213z" />
<glyph unicode="&#xcd;" horiz-adv-x="563" d="M61 0l207 1184q4 23 0 30t-22 15l-68 28l43 119h326q12 0 20 -3t4 -21l-237 -1352h-273zM318 1499l289 303h290l-333 -303h-246z" />
<glyph unicode="&#xce;" horiz-adv-x="563" d="M61 0l207 1184q4 23 0 30t-22 15l-68 28l43 119h326q12 0 20 -3t4 -21l-237 -1352h-273zM80 1499l303 303h254l201 -303h-213l-125 166l-184 -166h-236z" />
<glyph unicode="&#xcf;" horiz-adv-x="563" d="M61 0l207 1184q4 23 0 30t-22 15l-68 28l43 119h326q12 0 20 -3t4 -21l-237 -1352h-273zM121 1617q0 86 43 132.5t129 46.5q129 0 129 -113q0 -86 -44 -132t-130 -46q-127 -1 -127 112zM564 1617q0 86 44 132.5t130 46.5q127 0 127 -113q0 -86 -43 -132t-129 -46 q-129 -1 -129 112z" />
<glyph unicode="&#xd0;" horiz-adv-x="1482" d="M66 606l34 189h133l68 389q4 23 0 30t-22 15l-68 28l43 119h561q328 0 481.5 -124t153.5 -386q0 -209 -54.5 -369.5t-157.5 -271t-253.5 -168t-345.5 -57.5h-545l107 606h-135zM401 209h248q254 0 388 166t134 471q0 166 -94 243.5t-303 77.5h-203l-65 -372h332l-35 -189 h-332z" />
<glyph unicode="&#xd1;" horiz-adv-x="1499" d="M61 0l207 1184q4 23 0 30t-22 15l-68 28l43 119h309q31 0 39.5 -6t26.5 -41l487 -956l177 1003h251l-241 -1376h-269l-509 1004l-179 -1004h-252zM579 1509l4 33q16 129 69.5 183t164.5 54q39 0 72.5 -13t62.5 -28.5t53.5 -29t46.5 -13.5q66 0 80 78l2 17h187l-4 -33 q-16 -127 -70.5 -181.5t-165.5 -54.5q-41 0 -73.5 13.5t-61.5 29t-53.5 28.5t-47.5 13q-66 0 -77 -78l-4 -18h-185z" />
<glyph unicode="&#xd2;" horiz-adv-x="1488" d="M96 477q0 217 52.5 389t151.5 291t241.5 181.5t324.5 62.5q293 0 441.5 -127t148.5 -375q0 -219 -52 -390t-151.5 -290t-243 -181.5t-323.5 -62.5q-293 0 -441.5 127t-148.5 375zM375 508q0 -317 327 -318q111 0 199 46.5t149.5 134.5t94.5 213t33 284q0 317 -328 318 q-111 0 -199 -46t-149.5 -134t-94 -213t-32.5 -285zM610 1802h256l199 -303h-213z" />
<glyph unicode="&#xd3;" horiz-adv-x="1488" d="M96 477q0 217 52.5 389t151.5 291t241.5 181.5t324.5 62.5q293 0 441.5 -127t148.5 -375q0 -219 -52 -390t-151.5 -290t-243 -181.5t-323.5 -62.5q-293 0 -441.5 127t-148.5 375zM375 508q0 -317 327 -318q111 0 199 46.5t149.5 134.5t94.5 213t33 284q0 317 -328 318 q-111 0 -199 -46t-149.5 -134t-94 -213t-32.5 -285zM764 1499l289 303h290l-333 -303h-246z" />
<glyph unicode="&#xd4;" horiz-adv-x="1488" d="M96 477q0 217 52.5 389t151.5 291t241.5 181.5t324.5 62.5q293 0 441.5 -127t148.5 -375q0 -219 -52 -390t-151.5 -290t-243 -181.5t-323.5 -62.5q-293 0 -441.5 127t-148.5 375zM375 508q0 -317 327 -318q111 0 199 46.5t149.5 134.5t94.5 213t33 284q0 317 -328 318 q-111 0 -199 -46t-149.5 -134t-94 -213t-32.5 -285zM526 1499l303 303h254l201 -303h-213l-125 166l-184 -166h-236z" />
<glyph unicode="&#xd5;" horiz-adv-x="1488" d="M96 477q0 217 52.5 389t151.5 291t241.5 181.5t324.5 62.5q293 0 441.5 -127t148.5 -375q0 -219 -52 -390t-151.5 -290t-243 -181.5t-323.5 -62.5q-293 0 -441.5 127t-148.5 375zM375 508q0 -317 327 -318q111 0 199 46.5t149.5 134.5t94.5 213t33 284q0 317 -328 318 q-111 0 -199 -46t-149.5 -134t-94 -213t-32.5 -285zM569 1509l4 33q16 129 69.5 183t164.5 54q39 0 72.5 -13t62.5 -28.5t53.5 -29t46.5 -13.5q66 0 80 78l2 17h187l-4 -33q-16 -127 -70.5 -181.5t-165.5 -54.5q-41 0 -73.5 13.5t-61.5 29t-53.5 28.5t-47.5 13 q-66 0 -77 -78l-4 -18h-185z" />
<glyph unicode="&#xd6;" horiz-adv-x="1488" d="M96 477q0 217 52.5 389t151.5 291t241.5 181.5t324.5 62.5q293 0 441.5 -127t148.5 -375q0 -219 -52 -390t-151.5 -290t-243 -181.5t-323.5 -62.5q-293 0 -441.5 127t-148.5 375zM375 508q0 -317 327 -318q111 0 199 46.5t149.5 134.5t94.5 213t33 284q0 317 -328 318 q-111 0 -199 -46t-149.5 -134t-94 -213t-32.5 -285zM567 1617q0 86 43 132.5t129 46.5q129 0 129 -113q0 -86 -44 -132t-130 -46q-127 -1 -127 112zM1010 1617q0 86 44 132.5t130 46.5q127 0 127 -113q0 -86 -43 -132t-129 -46q-129 -1 -129 112z" />
<glyph unicode="&#xd8;" horiz-adv-x="1488" d="M-2 -66l197 222q-99 118 -99 321q0 217 52.5 389t151.5 291t241.5 181.5t324.5 62.5q227 0 369 -80l106 121h213l-196 -221q98 -127 98 -322q0 -219 -52 -390t-151.5 -290t-243 -181.5t-323.5 -62.5q-225 0 -369 78l-106 -119h-213zM354 504q0 -41 5.5 -77t17.5 -67 l698 783q-84 53 -223 53q-115 0 -207 -48t-156.5 -137t-99.5 -218t-35 -289zM477 233q80 -53 223 -53q115 0 207 48t156.5 137.5t99.5 218t35 288.5q0 80 -22 144z" />
<glyph unicode="&#xd9;" horiz-adv-x="1499" d="M141 375q0 43 5.5 89t13.5 91l108 629q4 23 0 30t-22 15l-68 28l43 119h326q12 0 20 -3t4 -21l-139 -797q-6 -33 -10 -66.5t-4 -66.5q0 -106 75.5 -169t204.5 -63q174 0 267.5 77t121.5 243l152 866h272l-155 -887q-23 -135 -74 -231t-135 -159.5t-202 -93.5t-273 -30 q-123 0 -220.5 28t-167 80t-106.5 126t-37 166zM620 1802h256l199 -303h-213z" />
<glyph unicode="&#xda;" horiz-adv-x="1499" d="M141 375q0 43 5.5 89t13.5 91l108 629q4 23 0 30t-22 15l-68 28l43 119h326q12 0 20 -3t4 -21l-139 -797q-6 -33 -10 -66.5t-4 -66.5q0 -106 75.5 -169t204.5 -63q174 0 267.5 77t121.5 243l152 866h272l-155 -887q-23 -135 -74 -231t-135 -159.5t-202 -93.5t-273 -30 q-123 0 -220.5 28t-167 80t-106.5 126t-37 166zM774 1499l289 303h290l-333 -303h-246z" />
<glyph unicode="&#xdb;" horiz-adv-x="1499" d="M141 375q0 43 5.5 89t13.5 91l108 629q4 23 0 30t-22 15l-68 28l43 119h326q12 0 20 -3t4 -21l-139 -797q-6 -33 -10 -66.5t-4 -66.5q0 -106 75.5 -169t204.5 -63q174 0 267.5 77t121.5 243l152 866h272l-155 -887q-23 -135 -74 -231t-135 -159.5t-202 -93.5t-273 -30 q-123 0 -220.5 28t-167 80t-106.5 126t-37 166zM536 1499l303 303h254l201 -303h-213l-125 166l-184 -166h-236z" />
<glyph unicode="&#xdc;" horiz-adv-x="1499" d="M141 375q0 43 5.5 89t13.5 91l108 629q4 23 0 30t-22 15l-68 28l43 119h326q12 0 20 -3t4 -21l-139 -797q-6 -33 -10 -66.5t-4 -66.5q0 -106 75.5 -169t204.5 -63q174 0 267.5 77t121.5 243l152 866h272l-155 -887q-23 -135 -74 -231t-135 -159.5t-202 -93.5t-273 -30 q-123 0 -220.5 28t-167 80t-106.5 126t-37 166zM577 1617q0 86 43 132.5t129 46.5q129 0 129 -113q0 -86 -44 -132t-130 -46q-127 -1 -127 112zM1020 1617q0 86 44 132.5t130 46.5q127 0 127 -113q0 -86 -43 -132t-129 -46q-129 -1 -129 112z" />
<glyph unicode="&#xdd;" horiz-adv-x="1247" d="M152 1376h286l226 -575l423 575h316l-637 -827l-94 -549h-273l99 571zM643 1499l289 303h290l-333 -303h-246z" />
<glyph unicode="&#xde;" horiz-adv-x="1302" d="M61 0l207 1184q4 23 0 30t-22 15l-68 28l43 119h316q12 0 20 -3t4 -21l-37 -207h291q244 0 355.5 -80t111.5 -256q0 -270 -149.5 -411.5t-436.5 -141.5h-327l-45 -256h-263zM406 465h290q319 0 320 303q0 168 -244 168h-285z" />
<glyph unicode="&#xdf;" horiz-adv-x="1165" d="M29 0l186 1055q37 207 166 309t360 102q199 0 302.5 -78.5t103.5 -238.5q0 -135 -58.5 -236.5t-166.5 -146.5q178 -59 178 -285q0 -238 -134.5 -372t-373.5 -134q-47 0 -97.5 5.5t-103.5 15.5l35 197q68 -12 133 -13q133 0 209 78t76 213q0 96 -54.5 139t-173.5 43h-51 l35 201h55q113 0 176.5 71.5t63.5 186.5q0 150 -176 150q-215 0 -258 -238l-180 -1024h-252z" />
<glyph unicode="&#xe0;" horiz-adv-x="1189" d="M57 332q0 160 35 289t100.5 219t157.5 139t207 49q100 0 184 -32.5t136 -92.5l41 101h210l-143 -809q-4 -23 -1 -30t22 -15l67 -29l-45 -121h-254q-10 0 -13 3t-3 17v103q-141 -147 -332 -148q-180 0 -274.5 92.5t-94.5 264.5zM324 375q0 -98 48 -146.5t138 -48.5 q209 0 250 226l61 344q-27 23 -77 48t-134 25q-135 0 -210.5 -121.5t-75.5 -326.5zM385 1442h256l199 -303h-213z" />
<glyph unicode="&#xe1;" horiz-adv-x="1189" d="M57 332q0 160 35 289t100.5 219t157.5 139t207 49q100 0 184 -32.5t136 -92.5l41 101h210l-143 -809q-4 -23 -1 -30t22 -15l67 -29l-45 -121h-254q-10 0 -13 3t-3 17v103q-141 -147 -332 -148q-180 0 -274.5 92.5t-94.5 264.5zM324 375q0 -98 48 -146.5t138 -48.5 q209 0 250 226l61 344q-27 23 -77 48t-134 25q-135 0 -210.5 -121.5t-75.5 -326.5zM498 1139l289 303h290l-333 -303h-246z" />
<glyph unicode="&#xe2;" horiz-adv-x="1189" d="M57 332q0 160 35 289t100.5 219t157.5 139t207 49q100 0 184 -32.5t136 -92.5l41 101h210l-143 -809q-4 -23 -1 -30t22 -15l67 -29l-45 -121h-254q-10 0 -13 3t-3 17v103q-141 -147 -332 -148q-180 0 -274.5 92.5t-94.5 264.5zM280 1139l303 303h254l201 -303h-213 l-125 166l-184 -166h-236zM324 375q0 -98 48 -146.5t138 -48.5q209 0 250 226l61 344q-27 23 -77 48t-134 25q-135 0 -210.5 -121.5t-75.5 -326.5z" />
<glyph unicode="&#xe3;" horiz-adv-x="1189" d="M57 332q0 160 35 289t100.5 219t157.5 139t207 49q100 0 184 -32.5t136 -92.5l41 101h210l-143 -809q-4 -23 -1 -30t22 -15l67 -29l-45 -121h-254q-10 0 -13 3t-3 17v103q-141 -147 -332 -148q-180 0 -274.5 92.5t-94.5 264.5zM324 375q0 -98 48 -146.5t138 -48.5 q209 0 250 226l61 344q-27 23 -77 48t-134 25q-135 0 -210.5 -121.5t-75.5 -326.5zM344 1149l4 33q16 129 69.5 183t164.5 54q39 0 72.5 -13t62.5 -28.5t53.5 -29t46.5 -13.5q66 0 80 78l2 17h187l-4 -33q-16 -127 -70.5 -181.5t-165.5 -54.5q-41 0 -73.5 13.5t-61.5 29 t-53.5 28.5t-47.5 13q-66 0 -77 -78l-4 -18h-185z" />
<glyph unicode="&#xe4;" horiz-adv-x="1189" d="M57 332q0 160 35 289t100.5 219t157.5 139t207 49q100 0 184 -32.5t136 -92.5l41 101h210l-143 -809q-4 -23 -1 -30t22 -15l67 -29l-45 -121h-254q-10 0 -13 3t-3 17v103q-141 -147 -332 -148q-180 0 -274.5 92.5t-94.5 264.5zM321 1257q0 86 43 132.5t129 46.5 q129 0 129 -113q0 -86 -44 -132t-130 -46q-127 -1 -127 112zM324 375q0 -98 48 -146.5t138 -48.5q209 0 250 226l61 344q-27 23 -77 48t-134 25q-135 0 -210.5 -121.5t-75.5 -326.5zM764 1257q0 86 44 132.5t130 46.5q127 0 127 -113q0 -86 -43 -132t-129 -46 q-129 -1 -129 112z" />
<glyph unicode="&#xe5;" horiz-adv-x="1189" d="M57 332q0 160 35 289t100.5 219t157.5 139t207 49q100 0 184 -32.5t136 -92.5l41 101h210l-143 -809q-4 -23 -1 -30t22 -15l67 -29l-45 -121h-254q-10 0 -13 3t-3 17v103q-141 -147 -332 -148q-180 0 -274.5 92.5t-94.5 264.5zM324 375q0 -98 48 -146.5t138 -48.5 q209 0 250 226l61 344q-27 23 -77 48t-134 25q-135 0 -210.5 -121.5t-75.5 -326.5zM448 1245q0 119 73 186.5t202 67.5q215 0 215 -164q0 -121 -74 -187.5t-201 -66.5q-215 0 -215 164zM592 1264q0 -72 83 -72q53 0 86 34t33 91q0 70 -84 69q-53 0 -85.5 -32.5t-32.5 -89.5z " />
<glyph unicode="&#xe6;" horiz-adv-x="1738" d="M25 231q0 174 108.5 262.5t323.5 88.5q76 0 143.5 -10.5t124.5 -28.5l12 67q4 16 5 35t1 35q0 150 -235 149q-147 0 -303 -38l35 198q162 39 329 39q258 0 342 -135q135 135 346 135t313.5 -89t102.5 -277q0 -115 -35 -236h-686q-4 -41 2 -80q8 -84 76 -128t191 -44 q164 0 340 41l-35 -201q-80 -18 -163 -28.5t-173 -10.5q-150 0 -254.5 42t-157.5 120q-61 -78 -161.5 -120t-229.5 -42q-362 0 -362 256zM283 268q0 -109 168 -108q98 0 157.5 41t73.5 112l12 64q-84 37 -200 37q-211 -1 -211 -146zM981 594h438q4 16 6 36.5t2 41.5 q0 172 -182 172q-104 0 -171.5 -64.5t-92.5 -185.5z" />
<glyph unicode="&#xe7;" horiz-adv-x="956" d="M57 348q0 168 43 296t122 213t190.5 128t249.5 43q86 0 169.5 -14.5t143.5 -38.5l-74 -197q-41 16 -103.5 30.5t-131.5 14.5q-166 0 -254 -112.5t-88 -319.5q0 -211 241 -211q139 0 273 33l-35 -207q-127 -29 -262 -31l-11 -65q125 -25 125 -150q0 -117 -79.5 -181 t-225.5 -64q-47 0 -97 8t-99 20l24 142q37 -12 76 -19.5t78 -7.5q119 0 119 86q0 29 -24 44t-83 15h-12l33 185q-307 55 -308 360z" />
<glyph unicode="&#xe8;" horiz-adv-x="1097" d="M57 348q0 160 38 286t109.5 214t175 134t236.5 46q211 0 313.5 -89t102.5 -277q0 -115 -35 -236h-686q-4 -35 0 -78q18 -174 269 -174q82 0 166.5 11.5t173.5 29.5l-35 -201q-80 -18 -164 -28.5t-174 -10.5q-244 0 -367 94.5t-123 278.5zM340 594h438q6 33 6 78 q0 86 -43 129t-139 43q-104 0 -172 -64.5t-90 -185.5zM344 1442h256l199 -303h-213z" />
<glyph unicode="&#xe9;" horiz-adv-x="1097" d="M57 348q0 160 38 286t109.5 214t175 134t236.5 46q211 0 313.5 -89t102.5 -277q0 -115 -35 -236h-686q-4 -35 0 -78q18 -174 269 -174q82 0 166.5 11.5t173.5 29.5l-35 -201q-80 -18 -164 -28.5t-174 -10.5q-244 0 -367 94.5t-123 278.5zM340 594h438q6 33 6 78 q0 86 -43 129t-139 43q-104 0 -172 -64.5t-90 -185.5zM498 1139l289 303h290l-333 -303h-246z" />
<glyph unicode="&#xea;" horiz-adv-x="1097" d="M57 348q0 160 38 286t109.5 214t175 134t236.5 46q211 0 313.5 -89t102.5 -277q0 -115 -35 -236h-686q-4 -35 0 -78q18 -174 269 -174q82 0 166.5 11.5t173.5 29.5l-35 -201q-80 -18 -164 -28.5t-174 -10.5q-244 0 -367 94.5t-123 278.5zM260 1139l303 303h254l201 -303 h-213l-125 166l-184 -166h-236zM340 594h438q6 33 6 78q0 86 -43 129t-139 43q-104 0 -172 -64.5t-90 -185.5z" />
<glyph unicode="&#xeb;" horiz-adv-x="1097" d="M57 348q0 160 38 286t109.5 214t175 134t236.5 46q211 0 313.5 -89t102.5 -277q0 -115 -35 -236h-686q-4 -35 0 -78q18 -174 269 -174q82 0 166.5 11.5t173.5 29.5l-35 -201q-80 -18 -164 -28.5t-174 -10.5q-244 0 -367 94.5t-123 278.5zM301 1257q0 86 43 132.5 t129 46.5q129 0 129 -113q0 -86 -44 -132t-130 -46q-127 -1 -127 112zM340 594h438q6 33 6 78q0 86 -43 129t-139 43q-104 0 -172 -64.5t-90 -185.5zM744 1257q0 86 44 132.5t130 46.5q127 0 127 -113q0 -86 -43 -132t-129 -46q-129 -1 -129 112z" />
<glyph unicode="&#xec;" horiz-adv-x="538" d="M57 0l144 809q4 23 1 30t-22 15l-69 29l47 121h311q12 0 20.5 -3.5t4.5 -21.5l-175 -979h-262zM76 1442h256l199 -303h-213z" />
<glyph unicode="&#xed;" horiz-adv-x="538" d="M57 0l144 809q4 23 1 30t-22 15l-69 29l47 121h311q12 0 20.5 -3.5t4.5 -21.5l-175 -979h-262zM230 1139l289 303h290l-333 -303h-246z" />
<glyph unicode="&#xee;" horiz-adv-x="538" d="M-8 1139l303 303h254l201 -303h-213l-125 166l-184 -166h-236zM57 0l144 809q4 23 1 30t-22 15l-69 29l47 121h311q12 0 20.5 -3.5t4.5 -21.5l-175 -979h-262z" />
<glyph unicode="&#xef;" horiz-adv-x="538" d="M33 1257q0 86 43 132.5t129 46.5q129 0 129 -113q0 -86 -44 -132t-130 -46q-127 -1 -127 112zM57 0l144 809q4 23 1 30t-22 15l-69 29l47 121h311q12 0 20.5 -3.5t4.5 -21.5l-175 -979h-262zM476 1257q0 86 44 132.5t130 46.5q127 0 127 -113q0 -86 -43 -132t-129 -46 q-129 -1 -129 112z" />
<glyph unicode="&#xf0;" horiz-adv-x="1165" d="M66 348q0 145 35.5 264t102 202t161 128t210.5 45q84 0 157 -28.5t116 -79.5q0 94 -24.5 164.5t-80.5 119.5l-73 -80h-238l152 162q-41 10 -89.5 19.5t-103.5 13.5l35 188q182 -8 315 -53l78 82h238l-156 -166q104 -80 153.5 -210t49.5 -320q0 -199 -41 -352.5t-119 -258 t-189.5 -159t-254.5 -54.5q-221 0 -327.5 96.5t-106.5 276.5zM328 369q0 -199 188 -199q137 0 218 115.5t81 312.5q0 195 -199 195q-133 0 -210.5 -114.5t-77.5 -309.5z" />
<glyph unicode="&#xf1;" horiz-adv-x="1198" d="M49 0l144 809q4 23 0.5 30t-21.5 15l-68 29l48 121h301q12 0 20 -4.5t4 -20.5l-10 -59q57 53 130 80.5t153 27.5q166 0 256 -82t90 -229q0 -70 -13 -131l-69 -391q-4 -23 -1 -30t21 -15l68 -29l-45 -121h-320q-18 0 -16 20l100 566q8 47 8 84q0 150 -167 149 q-63 0 -122 -20.5t-94 -38.5l-135 -760h-262zM366 1149l4 33q16 129 69.5 183t164.5 54q39 0 72.5 -13t62.5 -28.5t53.5 -29t46.5 -13.5q66 0 80 78l2 17h187l-4 -33q-16 -127 -70.5 -181.5t-165.5 -54.5q-41 0 -73.5 13.5t-61.5 29t-53.5 28.5t-47.5 13q-66 0 -77 -78 l-4 -18h-185z" />
<glyph unicode="&#xf2;" horiz-adv-x="1148" d="M57 348q0 160 40 286t115 213t182.5 134t244.5 47q453 0 453 -373q0 -160 -40 -285.5t-115 -212.5t-183.5 -134.5t-245.5 -47.5q-225 0 -338 94.5t-113 278.5zM324 379q0 -199 200 -199q70 0 125.5 32t94 89t60 139t21.5 185q0 199 -200 198q-70 0 -125.5 -31.5t-94 -89 t-60 -140.5t-21.5 -183zM375 1442h256l199 -303h-213z" />
<glyph unicode="&#xf3;" horiz-adv-x="1148" d="M57 348q0 160 40 286t115 213t182.5 134t244.5 47q453 0 453 -373q0 -160 -40 -285.5t-115 -212.5t-183.5 -134.5t-245.5 -47.5q-225 0 -338 94.5t-113 278.5zM324 379q0 -199 200 -199q70 0 125.5 32t94 89t60 139t21.5 185q0 199 -200 198q-70 0 -125.5 -31.5t-94 -89 t-60 -140.5t-21.5 -183zM529 1139l289 303h290l-333 -303h-246z" />
<glyph unicode="&#xf4;" horiz-adv-x="1148" d="M57 348q0 160 40 286t115 213t182.5 134t244.5 47q453 0 453 -373q0 -160 -40 -285.5t-115 -212.5t-183.5 -134.5t-245.5 -47.5q-225 0 -338 94.5t-113 278.5zM291 1139l303 303h254l201 -303h-213l-125 166l-184 -166h-236zM324 379q0 -199 200 -199q70 0 125.5 32 t94 89t60 139t21.5 185q0 199 -200 198q-70 0 -125.5 -31.5t-94 -89t-60 -140.5t-21.5 -183z" />
<glyph unicode="&#xf5;" horiz-adv-x="1148" d="M57 348q0 160 40 286t115 213t182.5 134t244.5 47q453 0 453 -373q0 -160 -40 -285.5t-115 -212.5t-183.5 -134.5t-245.5 -47.5q-225 0 -338 94.5t-113 278.5zM324 379q0 -199 200 -199q70 0 125.5 32t94 89t60 139t21.5 185q0 199 -200 198q-70 0 -125.5 -31.5t-94 -89 t-60 -140.5t-21.5 -183zM334 1149l4 33q16 129 69.5 183t164.5 54q39 0 72.5 -13t62.5 -28.5t53.5 -29t46.5 -13.5q66 0 80 78l2 17h187l-4 -33q-16 -127 -70.5 -181.5t-165.5 -54.5q-41 0 -73.5 13.5t-61.5 29t-53.5 28.5t-47.5 13q-66 0 -77 -78l-4 -18h-185z" />
<glyph unicode="&#xf6;" horiz-adv-x="1148" d="M57 348q0 160 40 286t115 213t182.5 134t244.5 47q453 0 453 -373q0 -160 -40 -285.5t-115 -212.5t-183.5 -134.5t-245.5 -47.5q-225 0 -338 94.5t-113 278.5zM324 379q0 -199 200 -199q70 0 125.5 32t94 89t60 139t21.5 185q0 199 -200 198q-70 0 -125.5 -31.5t-94 -89 t-60 -140.5t-21.5 -183zM332 1257q0 86 43 132.5t129 46.5q129 0 129 -113q0 -86 -44 -132t-130 -46q-127 -1 -127 112zM775 1257q0 86 44 132.5t130 46.5q127 0 127 -113q0 -86 -43 -132t-129 -46q-129 -1 -129 112z" />
<glyph unicode="&#xf8;" horiz-adv-x="1148" d="M-20 -66l153 172q-76 90 -76 242q0 160 40 286t115 213t182.5 134t244.5 47q162 0 266 -49l80 90h184l-153 -174q76 -92 76 -240q0 -160 -40 -285.5t-115 -212.5t-183.5 -134.5t-245.5 -47.5q-164 0 -264 50l-80 -91h-184zM293 385q0 -25 2 -46.5t8 -39.5l457 516 q-53 29 -133 29q-76 0 -137.5 -34t-105.5 -94.5t-67.5 -144.5t-23.5 -186zM387 186q51 -27 135 -26q76 0 137.5 33.5t105.5 94t67.5 144.5t23.5 186q0 25 -3 45.5t-7 41.5z" />
<glyph unicode="&#xf9;" horiz-adv-x="1169" d="M88 883l47 121h311q12 0 20.5 -3.5t4.5 -21.5l-102 -571q-4 -20 -6.5 -42t-2.5 -42q0 -66 46.5 -105t128.5 -39q104 0 160.5 47t74.5 152l111 625h262l-115 -646q-35 -201 -160 -292t-362 -91q-193 0 -301.5 80t-108.5 221q0 35 3 68t7 64l72 401q4 23 1 30t-21 15z M393 1442h256l199 -303h-213z" />
<glyph unicode="&#xfa;" horiz-adv-x="1169" d="M88 883l47 121h311q12 0 20.5 -3.5t4.5 -21.5l-102 -571q-4 -20 -6.5 -42t-2.5 -42q0 -66 46.5 -105t128.5 -39q104 0 160.5 47t74.5 152l111 625h262l-115 -646q-35 -201 -160 -292t-362 -91q-193 0 -301.5 80t-108.5 221q0 35 3 68t7 64l72 401q4 23 1 30t-21 15z M547 1139l289 303h290l-333 -303h-246z" />
<glyph unicode="&#xfb;" horiz-adv-x="1169" d="M88 883l47 121h311q12 0 20.5 -3.5t4.5 -21.5l-102 -571q-4 -20 -6.5 -42t-2.5 -42q0 -66 46.5 -105t128.5 -39q104 0 160.5 47t74.5 152l111 625h262l-115 -646q-35 -201 -160 -292t-362 -91q-193 0 -301.5 80t-108.5 221q0 35 3 68t7 64l72 401q4 23 1 30t-21 15z M309 1139l303 303h254l201 -303h-213l-125 166l-184 -166h-236z" />
<glyph unicode="&#xfc;" horiz-adv-x="1169" d="M88 883l47 121h311q12 0 20.5 -3.5t4.5 -21.5l-102 -571q-4 -20 -6.5 -42t-2.5 -42q0 -66 46.5 -105t128.5 -39q104 0 160.5 47t74.5 152l111 625h262l-115 -646q-35 -201 -160 -292t-362 -91q-193 0 -301.5 80t-108.5 221q0 35 3 68t7 64l72 401q4 23 1 30t-21 15z M350 1257q0 86 43 132.5t129 46.5q129 0 129 -113q0 -86 -44 -132t-130 -46q-127 -1 -127 112zM793 1257q0 86 44 132.5t130 46.5q127 0 127 -113q0 -86 -43 -132t-129 -46q-129 -1 -129 112z" />
<glyph unicode="&#xfd;" d="M88 883l47 121h311q12 0 20.5 -3.5t4.5 -21.5l-102 -571q-4 -20 -6.5 -42t-2.5 -42q0 -66 46.5 -105t128.5 -39q106 0 162.5 56.5t76.5 169.5l107 598h262l-178 -1006q-18 -109 -57.5 -193t-107 -141t-166.5 -86t-239 -29q-66 0 -124 4.5t-91 14.5l37 199 q41 -10 89 -14.5t89 -4.5q84 0 139.5 19.5t89 50t50 71.5t24.5 84l19 103q-47 -49 -120 -75t-148 -26q-78 0 -142.5 20.5t-112 59.5t-73 94.5t-25.5 126.5q0 35 3 68t7 64l72 401q4 23 1 30t-21 15zM494 1139l289 303h290l-333 -303h-246z" />
<glyph unicode="&#xfe;" horiz-adv-x="1169" d="M-33 -426l293 1673q4 23 1 30t-21 15l-68 29l47 121h309q12 0 20.5 -3t4.5 -22l-86 -487q45 41 117.5 69.5t156.5 28.5q180 0 275.5 -91t95.5 -265q0 -160 -35 -289t-100.5 -219t-158.5 -139.5t-208 -49.5q-88 0 -164.5 28t-126.5 81l-90 -510h-262zM348 252 q35 -25 90.5 -48.5t120.5 -23.5q66 0 119 32t90 90t57.5 142.5t20.5 186.5q0 96 -48 144t-139 48q-215 0 -251 -225z" />
<glyph unicode="&#xff;" d="M88 883l47 121h311q12 0 20.5 -3.5t4.5 -21.5l-102 -571q-4 -20 -6.5 -42t-2.5 -42q0 -66 46.5 -105t128.5 -39q106 0 162.5 56.5t76.5 169.5l107 598h262l-178 -1006q-18 -109 -57.5 -193t-107 -141t-166.5 -86t-239 -29q-66 0 -124 4.5t-91 14.5l37 199 q41 -10 89 -14.5t89 -4.5q84 0 139.5 19.5t89 50t50 71.5t24.5 84l19 103q-47 -49 -120 -75t-148 -26q-78 0 -142.5 20.5t-112 59.5t-73 94.5t-25.5 126.5q0 35 3 68t7 64l72 401q4 23 1 30t-21 15zM344 1257q0 86 43 132.5t129 46.5q129 0 129 -113q0 -86 -44 -132 t-130 -46q-127 -1 -127 112zM787 1257q0 86 44 132.5t130 46.5q127 0 127 -113q0 -86 -43 -132t-129 -46q-129 -1 -129 112z" />
<glyph unicode="&#x131;" horiz-adv-x="538" d="M57 0l144 809q4 23 1 30t-22 15l-69 29l47 121h311q12 0 20.5 -3.5t4.5 -21.5l-175 -979h-262z" />
<glyph unicode="&#x141;" horiz-adv-x="1095" d="M33 481l37 207l145 60l76 436q4 23 0 30t-23 15l-67 28l43 119h325q12 0 20.5 -3t4.5 -21l-86 -488l323 131l-34 -207l-324 -126l-80 -453h629l-39 -209h-899l94 541z" />
<glyph unicode="&#x142;" horiz-adv-x="628" d="M4 498l37 204l190 76l82 469q4 23 1 30t-21 15l-68 29l47 121h310q12 0 20 -3t4 -22l-92 -526l191 78l-37 -207l-191 -76l-86 -491q-4 -23 -1 -30t22 -15l67 -29l-45 -121h-319q-18 0 -17 20l97 553z" />
<glyph unicode="&#x152;" horiz-adv-x="2068" d="M96 510q0 209 54.5 369.5t158 271.5t254 168t344.5 57h1225l-35 -205h-692l-64 -370h543l-37 -201h-542l-68 -395h707l-37 -205h-1176q-328 0 -481.5 124t-153.5 386zM375 530q0 -166 94 -243.5t303 -77.5h193l168 958h-236q-254 0 -388 -165.5t-134 -471.5z" />
<glyph unicode="&#x153;" horiz-adv-x="1851" d="M57 348q0 160 39 286t114 214t183.5 134t245.5 46q281 0 365 -172q63 84 155 128t213 44q211 0 312.5 -89t101.5 -277q0 -115 -35 -236h-684q-4 -43 0 -78q18 -174 268 -174q82 0 168 11.5t174 29.5l-35 -201q-80 -18 -163.5 -28.5t-173.5 -10.5q-154 0 -257.5 46.5 t-146.5 132.5q-66 -86 -165 -132.5t-228 -46.5q-225 0 -338 94.5t-113 278.5zM324 379q0 -199 200 -199q141 0 221 119t80 326q0 199 -200 198q-141 0 -221 -118.5t-80 -325.5zM1096 594h436q6 33 6 78q0 86 -43 129t-137 43q-104 0 -171 -64.5t-91 -185.5z" />
<glyph unicode="&#x160;" horiz-adv-x="1204" d="M25 55l38 211q221 -82 459 -82q147 0 232.5 55.5t85.5 166.5q0 72 -49.5 109.5t-123 62t-159.5 45t-160 59.5t-123 106.5t-49 184.5q0 104 42 184t116 134.5t176 82t223 27.5q76 0 147.5 -8.5t133 -19.5t107.5 -25.5t71 -26.5l-74 -203q-74 29 -167 51.5t-201 22.5 q-143 0 -227.5 -46t-84.5 -155q0 -68 49.5 -103.5t123 -59t160.5 -46t161 -62.5t123 -109.5t49 -186.5q0 -106 -39 -190t-112.5 -141.5t-179 -87.5t-236.5 -30q-135 0 -265.5 20.5t-246.5 59.5zM453 1802h213l125 -166l184 166h236l-304 -303h-253z" />
<glyph unicode="&#x161;" horiz-adv-x="940" d="M10 33l35 205q172 -68 340 -68q98 0 152.5 35t54.5 102q0 45 -36 66.5t-89 37t-115.5 32t-116 46t-89 82t-35.5 142.5q0 147 114.5 231t321.5 84q106 0 200.5 -16.5t159.5 -42.5l-73 -195q-51 25 -123 42.5t-148 17.5q-92 0 -146.5 -29t-54.5 -90q0 -39 36 -59.5 t89.5 -35t116 -30t115.5 -46t89 -81.5t36 -135q0 -166 -114 -259.5t-331 -93.5q-104 0 -201.5 14.5t-187.5 43.5zM256 1442h213l125 -166l184 166h236l-304 -303h-253z" />
<glyph unicode="&#x178;" horiz-adv-x="1247" d="M152 1376h286l226 -575l423 575h316l-637 -827l-94 -549h-273l99 571zM446 1617q0 86 43 132.5t129 46.5q129 0 129 -113q0 -86 -44 -132t-130 -46q-127 -1 -127 112zM889 1617q0 86 44 132.5t130 46.5q127 0 127 -113q0 -86 -43 -132t-129 -46q-129 -1 -129 112z" />
<glyph unicode="&#x17d;" horiz-adv-x="1269" d="M-16 0l34 199l928 968h-741l37 209h1091l-35 -198l-925 -969h774l-39 -209h-1124zM486 1802h213l125 -166l184 166h236l-304 -303h-253z" />
<glyph unicode="&#x17e;" horiz-adv-x="997" d="M-16 0l35 188l628 617h-506l35 199h817l-32 -189l-629 -616h538l-34 -199h-852zM287 1442h213l125 -166l184 166h236l-304 -303h-253z" />
<glyph unicode="&#x192;" d="M80 -2l37 199q35 -8 64.5 -12.5t60.5 -4.5q139 0 159 131l64 363h-215l35 198h217l37 207q29 160 122 241t265 81q53 0 107 -6t102 -17l-35 -198q-72 16 -137 16q-141 0 -166 -137l-33 -187h231l-34 -198h-234l-68 -383q-29 -160 -121 -238t-259 -78q-49 0 -99.5 6.5 t-99.5 16.5z" />
<glyph unicode="&#x2c6;" horiz-adv-x="491" d="M-33 1139l303 303h254l201 -303h-213l-125 166l-184 -166h-236z" />
<glyph unicode="&#x2da;" horiz-adv-x="491" d="M135 1245q0 119 73 186.5t202 67.5q215 0 215 -164q0 -121 -74 -187.5t-201 -66.5q-215 0 -215 164zM279 1264q0 -72 83 -72q53 0 86 34t33 91q0 70 -84 69q-53 0 -85.5 -32.5t-32.5 -89.5z" />
<glyph unicode="&#x2dc;" horiz-adv-x="491" d="M10 1149l4 33q16 129 69.5 183t164.5 54q39 0 72.5 -13t62.5 -28.5t53.5 -29t46.5 -13.5q66 0 80 78l2 17h187l-4 -33q-16 -127 -70.5 -181.5t-165.5 -54.5q-41 0 -73.5 13.5t-61.5 29t-53.5 28.5t-47.5 13q-66 0 -77 -78l-4 -18h-185z" />
<glyph unicode="&#x394;" horiz-adv-x="1411" d="M-23 0l33 182l695 1194h296l283 -1206l-29 -170h-1278zM297 209h727l-205 926z" />
<glyph unicode="&#x3a9;" horiz-adv-x="1488" d="M-43 0l37 209h325q-170 207 -169 473q0 168 46 301t135 226.5t222 142.5t309 49q293 0 438.5 -127t145.5 -356q0 -238 -93 -407t-278 -302h318l-39 -209h-609l35 203q193 119 290 290t97 384q0 156 -79.5 232.5t-245.5 76.5q-211 0 -323.5 -136.5t-112.5 -387.5 q0 -141 46 -258t134 -209l-37 -195h-592z" />
<glyph unicode="&#x3bc;" horiz-adv-x="1165" d="M-45 -426l252 1430h262l-102 -580q-4 -23 -8.5 -44.5t-4.5 -41.5q0 -74 46 -114t132 -40q197 0 234 211l108 609h263l-179 -1004h-188l-12 96q-104 -115 -275 -114q-61 0 -110 17t-72 50l-84 -475h-262z" />
<glyph unicode="&#x3c0;" horiz-adv-x="1230" d="M94 0l144 805h-123l35 199h1107l-34 -199h-121l-144 -805h-251l143 805h-361l-143 -805h-252z" />
<glyph unicode="&#x400;" horiz-adv-x="1214" d="M61 0l207 1184q4 23 0 30t-22 15l-68 28l43 119h1057l-35 -209h-702l-66 -366h555l-37 -201h-553l-69 -391h719l-37 -209h-992zM491 1802h256l199 -303h-213z" />
<glyph unicode="&#x401;" horiz-adv-x="1214" d="M61 0l207 1184q4 23 0 30t-22 15l-68 28l43 119h1057l-35 -209h-702l-66 -366h555l-37 -201h-553l-69 -391h719l-37 -209h-992zM448 1617q0 86 43 132.5t129 46.5q129 0 129 -113q0 -86 -44 -132t-130 -46q-127 -1 -127 112zM891 1617q0 86 44 132.5t130 46.5 q127 0 127 -113q0 -86 -43 -132t-129 -46q-129 -1 -129 112z" />
<glyph unicode="&#x402;" horiz-adv-x="1720" d="M154 1167l39 209h1146l-36 -209h-439l-65 -374q186 43 364 43q252 0 365.5 -81t113.5 -261q0 -117 -35.5 -213.5t-104 -164t-171 -104.5t-235.5 -37q-137 0 -262 27l36 211q109 -23 203 -23q143 0 217 67t74 192q0 90 -63.5 131t-202.5 41q-84 0 -168 -8.5t-166 -24.5 l-102 -588h-275l205 1167h-438z" />
<glyph unicode="&#x403;" horiz-adv-x="1062" d="M61 0l209 1184q4 23 0 30t-22 15l-68 28l43 119h963l-37 -209h-610l-205 -1167h-273zM612 1499l289 303h291l-334 -303h-246z" />
<glyph unicode="&#x404;" horiz-adv-x="1236" d="M96 477q0 238 60.5 418t177.5 299q98 102 237.5 154.5t337.5 52.5q94 0 199.5 -16.5t220.5 -57.5l-65 -194q-88 33 -175.5 48t-168.5 15q-123 0 -210 -30.5t-153 -90.5q-111 -100 -156 -274h666l-35 -201h-663q-2 -23 -3 -43t-1 -43q0 -162 97 -248t281 -86 q98 0 188.5 12.5t184.5 34.5l-39 -209q-92 -23 -191.5 -33t-199.5 -10q-293 0 -441.5 127t-148.5 375z" />
<glyph unicode="&#x405;" horiz-adv-x="1204" d="M25 55l38 211q221 -82 459 -82q147 0 232.5 55.5t85.5 166.5q0 72 -49.5 109.5t-123 62t-159.5 45t-160 59.5t-123 106.5t-49 184.5q0 104 42 184t116 134.5t176 82t223 27.5q76 0 147.5 -8.5t133 -19.5t107.5 -25.5t71 -26.5l-74 -203q-74 29 -167 51.5t-201 22.5 q-143 0 -227.5 -46t-84.5 -155q0 -68 49.5 -103.5t123 -59t160.5 -46t161 -62.5t123 -109.5t49 -186.5q0 -106 -39 -190t-112.5 -141.5t-179 -87.5t-236.5 -30q-135 0 -265.5 20.5t-246.5 59.5z" />
<glyph unicode="&#x406;" horiz-adv-x="552" d="M61 0l207 1184q4 23 0 30t-22 15l-68 28l43 119h326q12 0 20 -3t4 -21l-237 -1352h-273z" />
<glyph unicode="&#x407;" horiz-adv-x="552" d="M61 0l207 1184q4 23 0 30t-22 15l-68 28l43 119h326q12 0 20 -3t4 -21l-237 -1352h-273zM100 1617q0 86 43 132.5t129 46.5q129 0 129 -113q0 -86 -44 -132t-130 -46q-127 -1 -127 112zM543 1617q0 86 44 132.5t130 46.5q127 0 127 -113q0 -86 -43 -132t-129 -46 q-129 -1 -129 112z" />
<glyph unicode="&#x408;" horiz-adv-x="935" d="M-33 10l39 213q61 -16 119.5 -24.5t114.5 -8.5q123 0 184 51.5t82 172.5l170 962h272l-178 -1003q-35 -209 -153.5 -303.5t-344.5 -94.5q-82 0 -157.5 9.5t-147.5 25.5z" />
<glyph unicode="&#x409;" horiz-adv-x="2258" d="M-51 -6l39 221q27 -6 55 -6q76 0 133 31.5t102.5 107.5t80 200t67.5 308l57 328q4 23 0 30t-22 15l-68 28l43 119h1104l-86 -485h272q227 0 348 -85t121 -284q0 -248 -150.5 -385t-436.5 -137h-572l205 1167h-504l-57 -331q-41 -238 -93 -401t-125 -263t-170 -144 t-229 -44q-29 0 -57.5 3t-56.5 7zM1333 209h285q309 0 309 301q0 88 -57.5 129t-183.5 41h-271z" />
<glyph unicode="&#x40a;" horiz-adv-x="2236" d="M61 0l207 1184q4 23 0 30t-22 15l-68 28l43 119h344l-96 -551h690l96 551h263l-97 -551h316q219 0 323.5 -77.5t106.5 -237.5q0 -244 -138.5 -377t-390.5 -133h-624l106 614h-688l-108 -614h-263zM1311 209h315q135 0 205 65.5t67 194.5q-2 74 -48 109.5t-156 35.5h-312z " />
<glyph unicode="&#x40b;" horiz-adv-x="1720" d="M154 1167l39 209h1146l-36 -209h-439l-65 -374q174 43 329 43q471 0 471 -396q0 -33 -4 -66.5t-10 -68.5l-53 -305h-272l51 295q4 25 7 48.5t3 45.5q0 231 -285 232q-66 0 -134 -8.5t-138 -24.5l-102 -588h-275l205 1167h-438z" />
<glyph unicode="&#x40c;" horiz-adv-x="1267" d="M61 0l207 1184q4 23 0 30t-22 15l-68 28l43 119h316q12 0 20 -3t4 -21l-100 -570l649 594h309l-684 -635l447 -741h-281l-348 582l-152 -138l-77 -444h-263zM643 1499l289 303h290l-333 -303h-246z" />
<glyph unicode="&#x40d;" horiz-adv-x="1499" d="M61 0l209 1184q4 23 0 30t-22 15l-68 28l43 119h332l-172 -981l870 981h258l-241 -1376h-252l172 981l-871 -981h-258zM620 1802h256l199 -303h-213z" />
<glyph unicode="&#x40e;" horiz-adv-x="1280" d="M23 2l36 213q88 -25 164 -25q96 0 159.5 37t121.5 125l33 49l-359 975h275l249 -733l441 733h297l-682 -1073q-57 -92 -113.5 -154.5t-120 -100.5t-136.5 -55.5t-165 -17.5q-49 0 -100 7.5t-100 19.5zM528 1710q0 23 2 45t7 47h182q-25 -152 135 -152q86 0 129 35t55 117 h187q-25 -172 -117 -249t-272 -77q-307 0 -308 234z" />
<glyph unicode="&#x40f;" horiz-adv-x="1499" d="M61 0l209 1184q4 23 0 30t-22 15l-68 28l43 119h352l-204 -1167h663l205 1167h272l-241 -1376h-479l-58 -328h-250l58 328h-480z" />
<glyph unicode="&#x410;" horiz-adv-x="1349" d="M-92 0q41 96 99.5 215t125 248t138 260t142 252t137 224.5t120.5 176.5h299q29 -74 57.5 -177t57 -224t54 -252t47 -260t37 -248t23.5 -215h-270q-8 84 -17.5 164t-19.5 158h-606q-39 -78 -76 -158t-76 -164h-272zM432 522h475q-27 160 -58.5 312.5t-70.5 302.5 q-92 -150 -177 -302.5t-169 -312.5z" />
<glyph unicode="&#x411;" horiz-adv-x="1335" d="M61 0l209 1184q4 23 0 30t-22 15l-68 28l43 119h1088l-37 -205h-746l-61 -354h336q223 0 329.5 -79t106.5 -244q0 -242 -132 -368t-388 -126h-658zM358 199h347q268 0 268 266q0 152 -211 151h-330z" />
<glyph unicode="&#x412;" horiz-adv-x="1335" d="M61 0l207 1184q4 23 0 30t-22 15l-68 28l43 119h692q385 0 385 -282q0 -141 -54 -241.5t-167 -147.5q162 -51 162 -252q0 -223 -125 -338t-364 -115h-689zM358 199h357q256 0 256 254q0 78 -49.5 114.5t-155.5 36.5h-338zM463 797h332q242 0 241 239q0 72 -46 107 t-144 35h-316z" />
<glyph unicode="&#x413;" horiz-adv-x="1073" d="M61 0l209 1184q4 23 0 30t-22 15l-68 28l43 119h963l-37 -209h-610l-205 -1167h-273z" />
<glyph unicode="&#x414;" horiz-adv-x="1619" d="M-106 -328l92 537h110q66 37 116 89t89 128t68.5 181.5t56.5 248.5l57 328q4 23 0 30t-22 15l-68 28l43 119h1110l-207 -1167h172l-96 -537h-252l60 328h-1022l-60 -328h-247zM444 209h633l168 958h-502l-57 -331q-23 -129 -46.5 -226.5t-52 -172.5t-63.5 -130t-80 -98z " />
<glyph unicode="&#x415;" horiz-adv-x="1214" d="M61 0l207 1184q4 23 0 30t-22 15l-68 28l43 119h1057l-35 -209h-702l-66 -366h555l-37 -201h-553l-69 -391h719l-37 -209h-992z" />
<glyph unicode="&#x416;" horiz-adv-x="1914" d="M-86 0l686 754l-418 622h273l422 -622l108 622h252l-111 -622l629 622h291l-647 -651l420 -725h-271l-336 584l-139 -138l-78 -446h-252l80 457l-92 131l-526 -588h-291z" />
<glyph unicode="&#x417;" horiz-adv-x="1204" d="M-6 59l37 211q104 -43 203.5 -66.5t207.5 -23.5q188 0 284.5 61.5t96.5 178.5q0 94 -75.5 137t-241.5 43h-215l35 201h200q182 0 275.5 56t93.5 169q0 92 -68.5 131t-222.5 39q-86 0 -182 -14.5t-201 -38.5v198q119 33 223.5 46.5t202.5 13.5q279 0 399.5 -80t120.5 -248 q0 -145 -71.5 -239.5t-206.5 -131.5q213 -53 213 -290q0 -209 -164 -323t-475 -114q-242 0 -469 84z" />
<glyph unicode="&#x418;" horiz-adv-x="1499" d="M61 0l209 1184q4 23 0 30t-22 15l-68 28l43 119h332l-172 -981l870 981h258l-241 -1376h-252l172 981l-871 -981h-258z" />
<glyph unicode="&#x419;" horiz-adv-x="1499" d="M61 0l209 1184q4 23 0 30t-22 15l-68 28l43 119h332l-172 -981l870 981h258l-241 -1376h-252l172 981l-871 -981h-258zM626 1710q0 23 2 45t7 47h182q-25 -152 135 -152q86 0 129 35t55 117h187q-25 -172 -117 -249t-272 -77q-307 0 -308 234z" />
<glyph unicode="&#x41a;" horiz-adv-x="1267" d="M61 0l207 1184q4 23 0 30t-22 15l-68 28l43 119h316q12 0 20 -3t4 -21l-100 -570l649 594h309l-684 -635l447 -741h-281l-348 582l-152 -138l-77 -444h-263z" />
<glyph unicode="&#x41b;" horiz-adv-x="1554" d="M-51 -6l39 221q27 -6 55 -6q76 0 133 31.5t102.5 107.5t80 200t67.5 308l57 328q4 23 0 30t-22 15l-68 28l43 119h1131l-242 -1376h-272l204 1167h-509l-58 -331q-41 -238 -94 -401t-127 -263t-172 -144t-234 -44q-29 0 -57.5 3t-56.5 7z" />
<glyph unicode="&#x41c;" horiz-adv-x="1679" d="M61 0l207 1184q4 23 0 30t-22 15l-68 28l43 119h291q33 0 42 -8t21 -39l279 -698l561 745h277l-242 -1376h-252l172 981l-461 -606h-104q-27 0 -42 1t-23.5 6t-14.5 16.5t-14 31.5l-226 553l-172 -983h-252z" />
<glyph unicode="&#x41d;" horiz-adv-x="1499" d="M61 0l207 1184q4 23 0 30t-22 15l-68 28l43 119h326q12 0 20 -3t4 -21l-94 -545h662l100 569h272l-241 -1376h-273l105 596h-662l-106 -596h-273z" />
<glyph unicode="&#x41e;" horiz-adv-x="1488" d="M96 477q0 217 52.5 389t151.5 291t241.5 181.5t324.5 62.5q293 0 441.5 -127t148.5 -375q0 -219 -52 -390t-151.5 -290t-243 -181.5t-323.5 -62.5q-293 0 -441.5 127t-148.5 375zM375 508q0 -317 327 -318q111 0 199 46.5t149.5 134.5t94.5 213t33 284q0 317 -328 318 q-111 0 -199 -46t-149.5 -134t-94 -213t-32.5 -285z" />
<glyph unicode="&#x41f;" horiz-adv-x="1499" d="M61 0l209 1184q4 23 0 30t-22 15l-68 28l43 119h1288l-241 -1376h-273l205 1167h-663l-205 -1167h-273z" />
<glyph unicode="&#x420;" horiz-adv-x="1302" d="M61 0l207 1184q4 23 0 30t-22 15l-68 28l43 119h633q246 0 357.5 -81t111.5 -255q0 -272 -150.5 -413.5t-437.5 -141.5h-325l-86 -485h-263zM446 696h299q309 0 310 299q0 88 -57.5 130t-184.5 42h-285z" />
<glyph unicode="&#x421;" horiz-adv-x="1236" d="M96 477q0 227 55.5 400.5t157 289t246.5 175t328 59.5q133 0 236.5 -20.5t187.5 -55.5l-76 -211q-59 23 -150.5 47.5t-189.5 24.5q-246 0 -381 -171t-135 -491q0 -334 368 -334q98 0 188.5 12.5t184.5 35.5l-39 -220q-92 -23 -191.5 -33t-199.5 -10q-293 0 -441.5 127 t-148.5 375z" />
<glyph unicode="&#x422;" horiz-adv-x="1226" d="M154 1167l39 209h1146l-36 -209h-439l-202 -1167h-275l205 1167h-438z" />
<glyph unicode="&#x423;" horiz-adv-x="1280" d="M23 2l36 213q88 -25 164 -25q96 0 159.5 37t121.5 125l33 49l-359 975h275l249 -733l441 733h297l-682 -1073q-57 -92 -113.5 -154.5t-120 -100.5t-136.5 -55.5t-165 -17.5q-49 0 -100 7.5t-100 19.5z" />
<glyph unicode="&#x424;" horiz-adv-x="1636" d="M82 563q0 168 51 303t146.5 232.5t231.5 153t306 61.5l29 162h250l-27 -166q520 -35 520 -471q0 -168 -51 -303.5t-146.5 -232.5t-232.5 -152.5t-307 -61.5l-33 -186h-250l31 190q-518 35 -518 471zM338 584q0 -131 73.5 -203t227.5 -80l141 803q-213 -12 -327.5 -148 t-114.5 -372zM889 297q213 12 327.5 149.5t114.5 370.5q0 131 -72.5 203t-226.5 80z" />
<glyph unicode="&#x425;" horiz-adv-x="1345" d="M-74 0l606 723l-329 653h282l244 -506l414 506h315l-586 -698l342 -678h-284l-252 530l-432 -530h-320z" />
<glyph unicode="&#x426;" horiz-adv-x="1585" d="M61 0l209 1184q4 23 0 30t-22 15l-68 28l43 119h352l-204 -1167h663l205 1167h272l-204 -1167h172l-97 -537h-252l60 328h-1129z" />
<glyph unicode="&#x427;" horiz-adv-x="1402" d="M143 1257l43 119h353l-58 -327q-4 -25 -7 -48.5t-3 -46.5q0 -231 285 -231q66 0 135.5 8t140.5 25l111 620h272l-241 -1376h-273l96 551q-170 -43 -335 -43q-469 0 -469 395q0 33 4 67t10 68l26 146q4 23 -1 30t-21 15z" />
<glyph unicode="&#x428;" horiz-adv-x="2121" d="M61 0l207 1184q4 23 -1 30t-21 15l-68 28l43 119h354l-204 -1167h508l202 1167h275l-205 -1167h506l205 1167h272l-242 -1376h-1831z" />
<glyph unicode="&#x429;" horiz-adv-x="2207" d="M61 0l207 1184q4 23 -1 30t-21 15l-68 28l43 119h354l-204 -1167h510l204 1167h273l-205 -1167h504l205 1167h272l-205 -1167h172l-94 -537h-252l57 328h-1751z" />
<glyph unicode="&#x42a;" horiz-adv-x="1603" d="M154 1167l39 209h698l-86 -485h254q242 0 364.5 -83t126.5 -269q-4 -260 -153.5 -399.5t-435.5 -139.5h-584l205 1167h-428zM686 209h285q309 0 309 301q0 88 -57.5 129t-184.5 41h-270z" />
<glyph unicode="&#x42b;" horiz-adv-x="1853" d="M61 0l209 1184q4 23 -1 30t-21 15l-68 28l43 119h342l-86 -485h275q233 0 358 -85t125 -280q0 -250 -149.5 -388t-436.5 -138h-590zM360 209h302q309 0 309 301q0 88 -57.5 129t-184.5 41h-287zM1364 0l207 1184q4 23 0 30t-22 15l-68 28l43 119h326q12 0 20 -3t4 -21 l-237 -1352h-273z" />
<glyph unicode="&#x42c;" horiz-adv-x="1302" d="M61 0l209 1184q4 23 -1 30t-21 15l-68 28l43 119h342l-86 -485h275q233 0 358 -85t125 -280q0 -250 -149.5 -388t-436.5 -138h-590zM360 209h302q309 0 309 301q0 88 -57.5 129t-184.5 41h-287z" />
<glyph unicode="&#x42d;" horiz-adv-x="1236" d="M-8 43l37 203q186 -66 381 -66t322.5 107.5t174.5 312.5h-671l34 201h664q2 18 2 36.5v41.5q0 154 -98.5 235.5t-278.5 81.5q-98 0 -187 -12.5t-184 -34.5v201q119 31 222.5 41t205.5 10q289 0 439.5 -127t150.5 -375q0 -219 -52 -390t-151.5 -290t-243 -181.5 t-323.5 -62.5q-233 0 -444 68z" />
<glyph unicode="&#x42e;" horiz-adv-x="2007" d="M61 0l209 1184q4 23 0 30t-22 15l-68 28l43 119h342l-100 -571h223q66 287 249 441.5t464 154.5q287 0 430 -127t143 -375q0 -219 -51 -390t-147.5 -290t-235.5 -181.5t-317 -62.5q-285 0 -429.5 127t-144.5 375q0 31 1 60.5t3 58.5h-227l-102 -596h-263zM915 508 q0 -160 82 -239t242 -79q106 0 193.5 46.5t148.5 134.5t94 213t33 284q0 160 -82 239t-240 79q-109 0 -195.5 -46t-148 -134t-94.5 -213t-33 -285z" />
<glyph unicode="&#x42f;" horiz-adv-x="1325" d="M-31 0l430 553q-115 29 -174 102.5t-59 194.5q0 256 146.5 391t424.5 135h600l-241 -1376h-262l90 518h-271l-385 -518h-299zM434 885q0 -162 225 -162h302l77 448h-311q-293 0 -293 -286z" />
<glyph unicode="&#x430;" horiz-adv-x="1189" d="M57 332q0 160 35 289t100.5 219t157.5 139t207 49q100 0 184 -32.5t136 -92.5l41 101h210l-143 -809q-4 -23 -1 -30t22 -15l67 -29l-45 -121h-254q-10 0 -13 3t-3 17v103q-141 -147 -332 -148q-180 0 -274.5 92.5t-94.5 264.5zM324 375q0 -98 48 -146.5t138 -48.5 q209 0 250 226l61 344q-27 23 -77 48t-134 25q-135 0 -210.5 -121.5t-75.5 -326.5z" />
<glyph unicode="&#x431;" horiz-adv-x="1165" d="M90 420q0 141 28.5 301t90.5 307q39 94 92 165t124 119t162 77.5t208 42.5q111 12 213 22t184 27l-78 -230q-39 -6 -108.5 -13t-161.5 -17q-178 -18 -278.5 -92t-139.5 -240q74 57 164 91t164 34q180 0 263 -91t83 -288q0 -147 -38 -269t-110.5 -209t-178 -134.5 t-238.5 -47.5q-229 0 -338 107.5t-107 337.5zM352 408q0 -111 50.5 -169.5t146.5 -58.5q131 0 208 114t77 310q0 199 -185 199q-33 0 -69.5 -7.5t-70.5 -19.5t-62.5 -26.5t-47.5 -28.5q-23 -76 -35 -158.5t-12 -154.5z" />
<glyph unicode="&#x432;" horiz-adv-x="1091" d="M49 0l144 809q4 23 0.5 30t-21.5 15l-68 29l48 121h606q285 0 284 -216q0 -197 -153 -272q109 -41 108 -184q0 -162 -95 -247t-277 -85h-576zM328 178h250q168 0 167 152q0 49 -30.5 71.5t-102.5 22.5h-241zM401 596h238q76 0 117 38t41 109q0 82 -121 82h-236z" />
<glyph unicode="&#x433;" horiz-adv-x="890" d="M49 0l144 809q4 23 0.5 30t-21.5 15l-68 29l48 121h788l-35 -199h-450l-144 -805h-262z" />
<glyph unicode="&#x434;" horiz-adv-x="1288" d="M-61 -295l86 494h81q84 51 133.5 153.5t82.5 278.5l32 178q4 23 1 30t-21 15l-68 29l47 121h889l-141 -805h149l-88 -494h-241l53 295h-705l-53 -295h-237zM418 199h391l106 606h-311l-35 -195q-29 -152 -62.5 -248t-88.5 -163z" />
<glyph unicode="&#x435;" horiz-adv-x="1097" d="M57 348q0 160 38 286t109.5 214t175 134t236.5 46q211 0 313.5 -89t102.5 -277q0 -115 -35 -236h-686q-4 -35 0 -78q18 -174 269 -174q82 0 166.5 11.5t173.5 29.5l-35 -201q-80 -18 -164 -28.5t-174 -10.5q-244 0 -367 94.5t-123 278.5zM340 594h438q6 33 6 78 q0 86 -43 129t-139 43q-104 0 -172 -64.5t-90 -185.5z" />
<glyph unicode="&#x436;" horiz-adv-x="1509" d="M-74 0l490 559l-299 445h254l280 -412l72 412h242l-74 -412l412 412h274l-471 -474l297 -530h-250l-225 395l-86 -86l-56 -309h-239l53 315l-59 86l-346 -401h-269z" />
<glyph unicode="&#x437;" horiz-adv-x="964" d="M-16 35l34 196q82 -33 162 -50t160 -17q117 0 179.5 39t62.5 110q0 57 -49.5 85t-159.5 28h-172l28 168h164q119 0 182.5 36t63.5 107q0 53 -45 78t-143 25q-133 0 -301 -41v186q98 23 188 33t156 10q209 0 308 -59.5t99 -188.5q0 -102 -49 -169.5t-147 -96.5 q70 -18 107.5 -73.5t37.5 -133.5q2 -160 -127 -246t-365 -86q-98 0 -189 14.5t-185 45.5z" />
<glyph unicode="&#x438;" horiz-adv-x="1193" d="M49 0l144 809q4 23 0.5 30t-21.5 15l-68 29l48 121h317l-113 -629l551 629h250l-178 -1004h-242l111 629l-551 -629h-248z" />
<glyph unicode="&#x439;" horiz-adv-x="1193" d="M49 0l144 809q4 23 0.5 30t-21.5 15l-68 29l48 121h317l-113 -629l551 629h250l-178 -1004h-242l111 629l-551 -629h-248zM413 1350q0 23 2 45t7 47h182q-25 -152 135 -152q86 0 129 35t55 117h187q-25 -172 -117 -249t-272 -77q-307 0 -308 234z" />
<glyph unicode="&#x43a;" horiz-adv-x="1046" d="M49 0l144 809q4 23 0.5 30t-21.5 15l-70 29l48 121h301q12 0 20 -3.5t4 -21.5l-63 -354l397 379h299l-485 -459l309 -545h-270l-216 389l-92 -86l-53 -303h-252z" />
<glyph unicode="&#x43b;" horiz-adv-x="1241" d="M-33 -8l39 211q10 -2 19.5 -3t19.5 -1q51 0 89 21.5t67.5 72.5t53.5 133t46 205l33 178q4 23 1 30t-22 15l-67 29l47 121h911l-178 -1004h-262l143 805h-317l-35 -195q-31 -172 -73 -291.5t-100 -193.5t-135 -107.5t-181 -33.5q-23 0 -48.5 2t-50.5 6z" />
<glyph unicode="&#x43c;" horiz-adv-x="1325" d="M49 0l144 809q4 23 0.5 30t-21.5 15l-68 29l48 121h317l186 -482l365 482h268l-178 -1004h-242l111 631l-274 -361h-156l-146 361l-112 -631h-242z" />
<glyph unicode="&#x43d;" horiz-adv-x="1193" d="M49 0l144 809q4 23 0.5 30t-21.5 15l-68 29l48 121h337l-71 -394h405l72 394h262l-178 -1004h-262l71 410h-405l-72 -410h-262z" />
<glyph unicode="&#x43e;" horiz-adv-x="1148" d="M57 348q0 160 40 286t115 213t182.5 134t244.5 47q453 0 453 -373q0 -160 -40 -285.5t-115 -212.5t-183.5 -134.5t-245.5 -47.5q-225 0 -338 94.5t-113 278.5zM324 379q0 -199 200 -199q70 0 125.5 32t94 89t60 139t21.5 185q0 199 -200 198q-70 0 -125.5 -31.5t-94 -89 t-60 -140.5t-21.5 -183z" />
<glyph unicode="&#x43f;" horiz-adv-x="1193" d="M49 0l144 809q4 23 0.5 30t-21.5 15l-68 29l48 121h1005l-178 -1004h-262l141 805h-405l-142 -805h-262z" />
<glyph unicode="&#x440;" horiz-adv-x="1177" d="M-25 -426l218 1235q4 23 0.5 30t-21.5 15l-68 29l48 121h297q12 0 20 -3.5t4 -21.5l-10 -59q51 47 127 77.5t160 30.5q180 0 275 -91t95 -265q0 -160 -34.5 -289t-100 -219t-159 -139.5t-208.5 -49.5q-88 0 -164.5 28t-125.5 81l-90 -510h-263zM356 252 q35 -25 90.5 -48.5t120.5 -23.5q66 0 119 32t90 90t57.5 142.5t20.5 186.5q0 96 -48 144t-138 48q-215 0 -252 -225z" />
<glyph unicode="&#x441;" horiz-adv-x="956" d="M57 348q0 168 43 296t122 213t190.5 128t249.5 43q86 0 169.5 -14.5t143.5 -38.5l-74 -197q-41 16 -103.5 30.5t-131.5 14.5q-166 0 -254 -112.5t-88 -319.5q0 -211 241 -211q139 0 273 33l-35 -207q-141 -31 -295 -31q-225 0 -338 94.5t-113 278.5z" />
<glyph unicode="&#x442;" horiz-adv-x="952" d="M92 805l35 199h874l-34 -199h-305l-144 -805h-262l143 805h-307z" />
<glyph unicode="&#x443;" d="M88 883l47 121h311q12 0 20.5 -3.5t4.5 -21.5l-102 -571q-4 -20 -6.5 -42t-2.5 -42q0 -66 46.5 -105t128.5 -39q106 0 162.5 56.5t76.5 169.5l107 598h262l-178 -1006q-18 -109 -57.5 -193t-107 -141t-166.5 -86t-239 -29q-66 0 -124 4.5t-91 14.5l37 199 q41 -10 89 -14.5t89 -4.5q84 0 139.5 19.5t89 50t50 71.5t24.5 84l19 103q-47 -49 -120 -75t-148 -26q-78 0 -142.5 20.5t-112 59.5t-73 94.5t-25.5 126.5q0 35 3 68t7 64l72 401q4 23 1 30t-21 15z" />
<glyph unicode="&#x444;" horiz-adv-x="1427" d="M49 381q0 147 44 265t126 202t200 130t265 50q39 172 135 270.5t238 149.5l92 -160q-104 -53 -153.5 -116.5t-69.5 -147.5q238 -18 345 -113.5t107 -287.5q0 -145 -46 -262t-131 -201t-204 -131.5t-262 -53.5q-37 -168 -133 -266t-237 -149l-93 159q104 53 152.5 117 t71.5 148q-231 16 -339 111t-108 286zM295 401q0 -195 242 -213l112 631q-170 -6 -262 -114.5t-92 -303.5zM778 184q170 6 262.5 114.5t92.5 303.5t-242 213z" />
<glyph unicode="&#x445;" horiz-adv-x="1071" d="M-63 0l438 524l-244 480h264l160 -330l266 330h295l-424 -508l252 -496h-266l-166 346l-279 -346h-296z" />
<glyph unicode="&#x446;" horiz-adv-x="1241" d="M49 0l144 809q4 23 0.5 30t-21.5 15l-68 29l48 121h337l-141 -805h406l141 805h262l-141 -805h147l-88 -494h-241l53 295h-838z" />
<glyph unicode="&#x447;" horiz-adv-x="1116" d="M37 883l47 121h338l-45 -240q-6 -31 -6 -62q2 -145 190 -145q94 0 180 25l76 422h262l-178 -1004l-262 -2l68 389q-115 -35 -222 -35q-381 0 -381 299q0 45 11 103l10 55q4 23 1 30t-22 15z" />
<glyph unicode="&#x448;" horiz-adv-x="1751" d="M49 0l144 809q4 23 0.5 30t-21.5 15l-68 29l48 121h337l-141 -805h350l142 805h262l-141 -805h350l141 805h262l-178 -1004h-1487z" />
<glyph unicode="&#x449;" horiz-adv-x="1798" d="M49 0l144 809q4 23 0.5 30t-21.5 15l-68 29l48 121h337l-141 -805h350l142 805h262l-141 -805h350l141 805h262l-141 -805h147l-88 -494h-241l53 295h-1395z" />
<glyph unicode="&#x44a;" horiz-adv-x="1222" d="M74 805l35 199h544l-57 -332h203q190 0 272 -58.5t82 -193.5q0 -203 -114.5 -311.5t-331.5 -108.5h-482l140 805h-291zM510 188h186q201 0 201 191q0 104 -156 104h-180z" />
<glyph unicode="&#x44b;" horiz-adv-x="1576" d="M49 0l144 809q4 23 0.5 30t-21.5 15l-68 29l48 121h327l-59 -332h217q190 0 272 -58.5t82 -193.5q0 -203 -114.5 -311.5t-331.5 -108.5h-496zM334 188h201q201 0 200 191q0 104 -155 104h-193zM1108 0l144 809q4 23 1 30t-22 15l-69 29l47 121h311q12 0 20.5 -3.5 t4.5 -21.5l-175 -979h-262z" />
<glyph unicode="&#x44c;" horiz-adv-x="1060" d="M49 0l144 809q4 23 0.5 30t-21.5 15l-68 29l48 121h327l-59 -332h217q190 0 272 -58.5t82 -193.5q0 -203 -114.5 -311.5t-331.5 -108.5h-496zM334 188h201q201 0 200 191q0 104 -155 104h-193z" />
<glyph unicode="&#x44d;" horiz-adv-x="964" d="M-18 23l34 194q135 -47 273 -47q123 0 206 66.5t113 183.5h-458l30 180h453q4 29 0 62q-25 172 -244 172q-68 0 -129 -8.5t-127 -22.5l-6 188q78 18 159 27.5t160 9.5q453 0 453 -373q0 -160 -40 -285.5t-114.5 -212.5t-183 -134.5t-246.5 -47.5q-170 0 -333 48z" />
<glyph unicode="&#x44e;" horiz-adv-x="1642" d="M49 0l144 809q4 23 0.5 30t-21.5 15l-68 29l48 121h327l-71 -394h210q53 199 189.5 308.5t341.5 109.5q436 0 436 -373q0 -160 -39 -285.5t-111.5 -212.5t-178 -134.5t-238.5 -47.5q-217 0 -325.5 94.5t-108.5 276.5v31.5t2 32.5h-213l-72 -410h-252zM840 379 q0 -199 194 -199q135 0 215 121t80 324q0 199 -194 198q-137 0 -216 -120.5t-79 -323.5z" />
<glyph unicode="&#x44f;" horiz-adv-x="1083" d="M-31 0l299 385q-74 25 -113.5 82t-39.5 137q0 193 113.5 296.5t326.5 103.5h500l-178 -1004h-246l59 348h-192l-248 -348h-281zM367 639q0 -100 135 -100h223l49 276h-229q-178 0 -178 -176z" />
<glyph unicode="&#x450;" horiz-adv-x="1097" d="M57 348q0 160 38 286t109.5 214t175 134t236.5 46q211 0 313.5 -89t102.5 -277q0 -115 -35 -236h-686q-4 -35 0 -78q18 -174 269 -174q82 0 166.5 11.5t173.5 29.5l-35 -201q-80 -18 -164 -28.5t-174 -10.5q-244 0 -367 94.5t-123 278.5zM340 594h438q6 33 6 78 q0 86 -43 129t-139 43q-104 0 -172 -64.5t-90 -185.5zM348 1442h256l199 -303h-213z" />
<glyph unicode="&#x451;" horiz-adv-x="1097" d="M57 348q0 160 38 286t109.5 214t175 134t236.5 46q211 0 313.5 -89t102.5 -277q0 -115 -35 -236h-686q-4 -35 0 -78q18 -174 269 -174q82 0 166.5 11.5t173.5 29.5l-35 -201q-80 -18 -164 -28.5t-174 -10.5q-244 0 -367 94.5t-123 278.5zM305 1257q0 86 43 132.5 t129 46.5q129 0 129 -113q0 -86 -44 -132t-130 -46q-127 -1 -127 112zM340 594h438q6 33 6 78q0 86 -43 129t-139 43q-104 0 -172 -64.5t-90 -185.5zM748 1257q0 86 44 132.5t130 46.5q127 0 127 -113q0 -86 -43 -132t-129 -46q-129 -1 -129 112z" />
<glyph unicode="&#x452;" horiz-adv-x="1187" d="M39 0l199 1128h-111l31 181h110l25 133h262l-25 -133h342l-30 -181h-342l-37 -202q53 47 122.5 74.5t153.5 27.5q166 0 256 -82t90 -229q0 -70 -12 -131l-129 -721q-29 -168 -123 -242t-280 -74q-55 0 -110.5 7.5t-111.5 19.5l35 201q86 -23 156 -23q82 0 124 35t56 117 l121 680q8 47 8 84q0 150 -168 149q-63 0 -121.5 -20.5t-93.5 -38.5l-135 -760h-262z" />
<glyph unicode="&#x453;" horiz-adv-x="890" d="M49 0l144 809q4 23 0.5 30t-21.5 15l-68 29l48 121h788l-35 -199h-450l-144 -805h-262zM441 1139l289 303h290l-333 -303h-246z" />
<glyph unicode="&#x454;" horiz-adv-x="964" d="M66 348q0 184 52 322.5t150 226.5q147 131 402 131q90 0 166.5 -12t152.5 -37l-69 -184q-59 18 -117 28.5t-111 10.5q-131 0 -214 -61.5t-116 -172.5h453l-33 -180h-454q-4 -31 0 -70q8 -88 71.5 -134t173.5 -46q72 0 136.5 8t136.5 25l-35 -197q-141 -31 -295 -31 q-225 0 -337.5 94.5t-112.5 278.5z" />
<glyph unicode="&#x455;" horiz-adv-x="940" d="M10 33l35 205q172 -68 340 -68q98 0 152.5 35t54.5 102q0 45 -36 66.5t-89 37t-115.5 32t-116 46t-89 82t-35.5 142.5q0 147 114.5 231t321.5 84q106 0 200.5 -16.5t159.5 -42.5l-73 -195q-51 25 -123 42.5t-148 17.5q-92 0 -146.5 -29t-54.5 -90q0 -39 36 -59.5 t89.5 -35t116 -30t115.5 -46t89 -81.5t36 -135q0 -166 -114 -259.5t-331 -93.5q-104 0 -201.5 14.5t-187.5 43.5z" />
<glyph unicode="&#x456;" horiz-adv-x="538" d="M57 0l144 809q4 23 1 30t-22 15l-69 29l47 121h311q12 0 20.5 -3.5t4.5 -21.5l-175 -979h-262zM256 1257q0 88 46 135.5t132 47.5q133 0 133 -117q0 -90 -46 -137t-132 -47q-133 -1 -133 118z" />
<glyph unicode="&#x457;" horiz-adv-x="538" d="M31 1257q0 86 43 132.5t129 46.5q129 0 129 -113q0 -86 -44 -132t-130 -46q-127 -1 -127 112zM57 0l144 809q4 23 1 30t-22 15l-69 29l47 121h311q12 0 20.5 -3.5t4.5 -21.5l-175 -979h-262zM474 1257q0 86 44 132.5t130 46.5q127 0 127 -113q0 -86 -43 -132t-129 -46 q-129 -1 -129 112z" />
<glyph unicode="&#x458;" horiz-adv-x="538" d="M-238 -438l33 192q10 -2 26.5 -2h31.5q90 0 133 41q23 23 38 59.5t25 100.5l152 856q4 23 1 30t-22 15l-69 29l47 121h311q12 0 20.5 -3.5t4.5 -21.5l-181 -1016q-23 -119 -53.5 -190.5t-79.5 -118.5q-104 -98 -315 -98q-25 0 -54.5 1t-48.5 5zM256 1257q0 88 46 135.5 t132 47.5q133 0 133 -117q0 -90 -46 -137t-132 -47q-133 -1 -133 118z" />
<glyph unicode="&#x459;" horiz-adv-x="1753" d="M-33 -8l39 211q10 -2 19.5 -3t19.5 -1q51 0 89 21.5t67.5 72.5t53.5 133t46 205l33 178q4 23 1 30t-22 15l-67 29l47 121h883l-58 -332h201q190 0 272 -58.5t82 -193.5q0 -203 -114.5 -311.5t-331.5 -108.5h-479l143 805h-313l-35 -195q-31 -172 -72 -291.5t-97.5 -193.5 t-132 -107.5t-175.5 -33.5q-23 0 -48.5 2t-50.5 6zM1032 188h185q201 0 200 191q0 104 -155 104h-177z" />
<glyph unicode="&#x45a;" horiz-adv-x="1722" d="M49 0l144 809q4 23 0.5 30t-21.5 15l-68 29l48 121h325l-65 -375h415l66 375h252l-66 -375h230q170 0 248.5 -59.5t78.5 -186.5q0 -184 -111.5 -283.5t-310.5 -99.5h-497l74 428h-416l-74 -428h-252zM999 178h205q176 0 176 174q0 98 -133 99h-200z" />
<glyph unicode="&#x45b;" horiz-adv-x="1187" d="M39 0l199 1128h-111l31 181h110l25 133h262l-25 -133h342l-30 -181h-342l-37 -202q53 47 122.5 74.5t153.5 27.5q166 0 256 -82t90 -229q0 -70 -12 -131l-69 -391q-4 -23 -1 -30t21 -15l68 -29l-45 -121h-320q-18 0 -16 20l100 566q8 47 8 84q0 150 -168 149 q-63 0 -121.5 -20.5t-93.5 -38.5l-135 -760h-262z" />
<glyph unicode="&#x45c;" horiz-adv-x="1046" d="M49 0l144 809q4 23 0.5 30t-21.5 15l-70 29l48 121h301q12 0 20 -3.5t4 -21.5l-63 -354l397 379h299l-485 -459l309 -545h-270l-216 389l-92 -86l-53 -303h-252zM475 1139l289 303h291l-334 -303h-246z" />
<glyph unicode="&#x45d;" horiz-adv-x="1193" d="M49 0l144 809q4 23 0.5 30t-21.5 15l-68 29l48 121h317l-113 -629l551 629h250l-178 -1004h-242l111 629l-551 -629h-248zM407 1442h256l199 -303h-213z" />
<glyph unicode="&#x45e;" d="M88 883l47 121h311q12 0 20.5 -3.5t4.5 -21.5l-102 -571q-4 -20 -6.5 -42t-2.5 -42q0 -66 46.5 -105t128.5 -39q106 0 162.5 56.5t76.5 169.5l107 598h262l-178 -1006q-18 -109 -57.5 -193t-107 -141t-166.5 -86t-239 -29q-66 0 -124 4.5t-91 14.5l37 199 q41 -10 89 -14.5t89 -4.5q84 0 139.5 19.5t89 50t50 71.5t24.5 84l19 103q-47 -49 -120 -75t-148 -26q-78 0 -142.5 20.5t-112 59.5t-73 94.5t-25.5 126.5q0 35 3 68t7 64l72 401q4 23 1 30t-21 15zM366 1350q0 23 2 45t7 47h182q-25 -152 135 -152q86 0 129 35t55 117h187 q-25 -172 -117 -249t-272 -77q-307 0 -308 234z" />
<glyph unicode="&#x45f;" horiz-adv-x="1191" d="M49 0l144 809q4 23 0.5 30t-21.5 15l-68 29l48 121h337l-141 -805h406l141 805h262l-178 -1004h-344l-53 -295h-242l53 295h-344z" />
<glyph unicode="&#x490;" horiz-adv-x="1073" d="M61 0l207 1184q4 23 0 30t-22 15l-68 28l43 119h713l57 328h252l-94 -537h-610l-205 -1167h-273z" />
<glyph unicode="&#x491;" horiz-adv-x="890" d="M49 0l144 809q4 23 0.5 30t-21.5 15l-68 29l48 121h563l53 294h242l-90 -493h-467l-142 -805h-262z" />
<glyph unicode="&#x492;" horiz-adv-x="1105" d="M39 547l35 190h149l78 447q4 23 0 30t-22 15l-68 28l43 119h965l-37 -209h-611l-75 -430h370l-35 -190h-368l-96 -547h-273l96 547h-151z" />
<glyph unicode="&#x493;" horiz-adv-x="909" d="M-12 373l32 178h146l45 258q4 23 1 30t-22 15l-67 29l47 121h788l-36 -199h-451l-45 -254h256l-33 -178h-254l-65 -373h-262l65 373h-145z" />
<glyph unicode="&#x49a;" horiz-adv-x="1388" d="M61 0l207 1184q4 23 0 30t-22 15l-68 28l43 119h344l-104 -594l649 594h309l-684 -635l330 -532h248l-94 -537h-252l57 328h-123l-348 582l-152 -138l-77 -444h-263z" />
<glyph unicode="&#x49b;" horiz-adv-x="1144" d="M49 0l144 809q4 23 0.5 30t-21.5 15l-68 29l48 121h325l-65 -379l397 379h299l-485 -459l206 -346h240l-88 -494h-242l54 295h-131l-216 389l-92 -86l-53 -303h-252z" />
<glyph unicode="&#x4a2;" horiz-adv-x="1585" d="M61 0l207 1184q4 23 0 30t-22 15l-68 28l43 119h354l-100 -571h664l100 571h272l-206 -1167h172l-93 -537h-251l57 328h-193l105 596h-664l-104 -596h-273z" />
<glyph unicode="&#x4a3;" horiz-adv-x="1241" d="M49 0l144 809q4 23 0.5 30t-21.5 15l-68 29l48 121h337l-71 -394h405l72 394h262l-143 -805h149l-88 -494h-241l53 295h-170l71 410h-405l-72 -410h-262z" />
<glyph unicode="&#x4ae;" horiz-adv-x="1247" d="M152 1376h286l226 -575l423 575h316l-637 -827l-94 -549h-273l99 571z" />
<glyph unicode="&#x4af;" horiz-adv-x="1071" d="M113 1004h254l118 -740l375 740h275l-566 -1045l-67 -385h-262l69 397z" />
<glyph unicode="&#x4b0;" horiz-adv-x="1247" d="M152 1376h286l226 -575l423 575h316l-541 -696h256l-35 -188h-327l-84 -492h-273l84 492h-311l35 188h246z" />
<glyph unicode="&#x4b1;" horiz-adv-x="1099" d="M41 -45l31 178h213l-166 871h254l119 -740l374 740h275l-471 -871h237l-30 -178h-304l-65 -381h-262l65 381h-270z" />
<glyph unicode="&#x4ba;" horiz-adv-x="1400" d="M61 0l207 1184q4 23 0 30t-22 15l-68 28l43 119h354l-96 -551q86 20 169 31.5t167 11.5q469 0 469 -395q0 -33 -4 -66.5t-10 -68.5l-60 -338h-272l57 328q4 25 7.5 48t3.5 46q0 231 -285 231q-66 0 -135.5 -8t-141.5 -24l-110 -621h-273z" />
<glyph unicode="&#x4bb;" horiz-adv-x="1187" d="M39 0l219 1247q4 23 1 30t-21 15l-68 29l47 121h309q12 0 20.5 -3t4.5 -22l-88 -491q53 47 122.5 74.5t153.5 27.5q166 0 256 -82t90 -229q0 -70 -12 -131l-69 -391q-4 -23 -1 -30t21 -15l68 -29l-45 -121h-320q-18 0 -16 20l100 566q8 47 8 84q0 150 -168 149 q-63 0 -121.5 -20.5t-93.5 -38.5l-135 -760h-262z" />
<glyph unicode="&#x4d8;" horiz-adv-x="1400" d="M88 461q0 76 10.5 155.5t30.5 153.5h973q4 31 5 66.5t-1 72.5q-10 147 -115.5 217t-300.5 70q-201 0 -416 -49v196q209 57 447 58q315 0 482 -125t167 -375q0 -219 -49 -391t-143.5 -291t-231.5 -181.5t-311 -62.5q-276 0 -411.5 117t-135.5 369zM344 451 q0 -147 73.5 -214t227.5 -67q174 0 281.5 103.5t144.5 308.5h-715q-6 -29 -9 -65t-3 -66z" />
<glyph unicode="&#x4d9;" horiz-adv-x="1095" d="M55 342q0 119 35 236h686q2 16 1 36.5t-3 42.5q-18 172 -266 172q-76 0 -155 -9t-158 -25l-5 190q90 23 174.5 33t174.5 10q491 0 491 -373q0 -160 -38 -285.5t-109.5 -213.5t-176 -134.5t-235.5 -46.5q-211 0 -313.5 89.5t-102.5 277.5zM301 332q0 -172 182 -172 q104 0 172 64.5t93 185.5h-439q-4 -16 -6 -37t-2 -41z" />
<glyph unicode="&#x4e8;" horiz-adv-x="1488" d="M96 477q0 217 52.5 389t151.5 291t241.5 181.5t324.5 62.5q293 0 441.5 -127t148.5 -375q0 -219 -52 -390t-151.5 -290t-243 -181.5t-323.5 -62.5q-293 0 -441.5 127t-148.5 375zM354 504q0 -324 346 -324q178 0 298 109.5t169 310.5h-811q-2 -23 -2 -47v-49zM391 801 h805q0 16 1 34.5t1 36.5q0 324 -346 324q-174 0 -291 -103.5t-170 -291.5z" />
<glyph unicode="&#x4e9;" horiz-adv-x="1148" d="M57 348q0 160 40 286t115 213t182.5 134t244.5 47q453 0 453 -373q0 -160 -40 -285.5t-115 -212.5t-183.5 -134.5t-245.5 -47.5q-225 0 -338 94.5t-113 278.5zM293 385q0 -225 229 -225q111 0 190 68.5t115 187.5h-534v-31zM324 596h532v22q0 226 -229 226 q-109 0 -188 -66.5t-115 -181.5z" />
<glyph unicode="&#x2000;" horiz-adv-x="929" />
<glyph unicode="&#x2001;" horiz-adv-x="1859" />
<glyph unicode="&#x2002;" horiz-adv-x="929" />
<glyph unicode="&#x2003;" horiz-adv-x="1859" />
<glyph unicode="&#x2004;" horiz-adv-x="619" />
<glyph unicode="&#x2005;" horiz-adv-x="464" />
<glyph unicode="&#x2006;" horiz-adv-x="309" />
<glyph unicode="&#x2007;" horiz-adv-x="309" />
<glyph unicode="&#x2008;" horiz-adv-x="232" />
<glyph unicode="&#x2009;" horiz-adv-x="371" />
<glyph unicode="&#x200a;" horiz-adv-x="103" />
<glyph unicode="&#x2010;" horiz-adv-x="655" d="M29 410l34 200h566l-35 -200h-565z" />
<glyph unicode="&#x2011;" horiz-adv-x="655" d="M29 410l34 200h566l-35 -200h-565z" />
<glyph unicode="&#x2012;" horiz-adv-x="655" d="M29 410l34 200h566l-35 -200h-565z" />
<glyph unicode="&#x2013;" d="M29 410l34 200h1090l-35 -200h-1089z" />
<glyph unicode="&#x2014;" horiz-adv-x="1769" d="M29 410l34 200h1680l-35 -200h-1679z" />
<glyph unicode="&#x2018;" horiz-adv-x="509" d="M123 858l254 518h215l-197 -518h-272z" />
<glyph unicode="&#x2019;" horiz-adv-x="509" d="M132 858l198 518h273l-254 -518h-217z" />
<glyph unicode="&#x201a;" horiz-adv-x="509" d="M-104 -295l198 518h273l-254 -518h-217z" />
<glyph unicode="&#x201c;" horiz-adv-x="952" d="M123 858l254 518h215l-197 -518h-272zM567 858l254 518h215l-197 -518h-272z" />
<glyph unicode="&#x201d;" horiz-adv-x="952" d="M132 858l198 518h273l-254 -518h-217zM576 858l198 518h273l-254 -518h-217z" />
<glyph unicode="&#x201e;" horiz-adv-x="952" d="M-104 -295l198 518h273l-254 -518h-217zM340 -295l198 518h273l-254 -518h-217z" />
<glyph unicode="&#x2020;" horiz-adv-x="1001" d="M121 846l35 201h329l58 329h221l-57 -329h327l-35 -201h-329l-148 -846h-221l148 846h-328z" />
<glyph unicode="&#x2021;" horiz-adv-x="1001" d="M31 330l35 200h329l54 316h-328l35 201h329l58 329h221l-57 -329h327l-35 -201h-329l-54 -316h330l-37 -200h-329l-58 -330h-221l59 330h-329z" />
<glyph unicode="&#x2022;" horiz-adv-x="983" d="M213 590q0 61 22.5 114.5t62.5 93.5t94 63.5t116 23.5q61 0 114.5 -23.5t93.5 -63.5t63.5 -93.5t23.5 -114.5t-23.5 -115.5t-63.5 -94.5t-93.5 -62.5t-114.5 -22.5t-115.5 22.5t-94.5 62.5t-62.5 94.5t-22.5 115.5z" />
<glyph unicode="&#x2026;" horiz-adv-x="1769" d="M70 102q0 92 48 141.5t138 49.5q137 0 137 -125q0 -92 -47 -141.5t-137 -49.5q-139 0 -139 125zM660 102q0 92 48 141.5t138 49.5q137 0 137 -125q0 -92 -47 -141.5t-137 -49.5q-139 0 -139 125zM1250 102q0 92 48 141.5t138 49.5q137 0 137 -125q0 -92 -47 -141.5 t-137 -49.5q-139 0 -139 125z" />
<glyph unicode="&#x202f;" horiz-adv-x="371" />
<glyph unicode="&#x2030;" horiz-adv-x="2555" d="M156 920q0 227 108.5 354t302.5 127q166 0 239 -60.5t73 -195.5q0 -227 -108.5 -354t-301.5 -127q-166 0 -239.5 60.5t-73.5 195.5zM346 944q0 -68 32 -98.5t103 -30.5q98 0 153.5 83t55.5 226q0 68 -32.5 97.5t-104.5 29.5q-98 0 -152.5 -83t-54.5 -224zM406 0l849 1376 h172l-847 -1376h-174zM954 231q0 227 108.5 354.5t303.5 127.5q166 0 238.5 -60.5t72.5 -195.5q0 -227 -108.5 -354.5t-300.5 -127.5q-166 0 -240 60.5t-74 195.5zM1145 256q0 -68 31.5 -98.5t103.5 -30.5q98 0 153.5 83t55.5 226q0 68 -33 97.5t-104 29.5q-98 0 -152.5 -83 t-54.5 -224zM1741 231q0 227 108.5 354.5t302.5 127.5q166 0 239 -60.5t73 -195.5q0 -227 -108.5 -354.5t-301.5 -127.5q-166 0 -239.5 60.5t-73.5 195.5zM1931 256q0 -68 32 -98.5t103 -30.5q98 0 153.5 83t55.5 226q0 68 -32.5 97.5t-104.5 29.5q-98 0 -152.5 -83 t-54.5 -224z" />
<glyph unicode="&#x2039;" horiz-adv-x="608" d="M35 502l348 407h244l-334 -420l203 -395h-232z" />
<glyph unicode="&#x203a;" horiz-adv-x="608" d="M-18 94l333 420l-202 395h231l227 -407l-346 -408h-243z" />
<glyph unicode="&#x2044;" horiz-adv-x="262" d="M-348 0l850 1376h172l-848 -1376h-174z" />
<glyph unicode="&#x205f;" horiz-adv-x="464" />
<glyph unicode="&#x20ac;" d="M76 463l28 158h117q8 82 25 159h-115l29 158h133q86 223 253 343t408 120q172 0 326 -47l-35 -195q-131 47 -270 47q-133 0 -234.5 -69.5t-165.5 -198.5h455l-29 -158h-485q-20 -78 -29 -159h488l-29 -158h-465q4 -156 79 -224.5t241 -68.5q72 0 140.5 8t135.5 25 l-35 -197q-139 -31 -290 -31q-279 0 -409 114t-130 357v17h-137z" />
<glyph unicode="&#x2122;" horiz-adv-x="1939" d="M125 1221v155h737v-155h-268v-697h-201v697h-268zM1010 524v852h188l264 -444l267 444h188v-852h-184v561l-205 -340h-131l-203 340v-561h-184z" />
<glyph unicode="&#x25fc;" horiz-adv-x="1003" d="M0 0v1004h1004v-1004h-1004z" />
</font>
</defs>
</svg>
