<?xml version="1.0" encoding="UTF-8" standalone="no"?>
<!DOCTYPE svg PUBLIC "-//W3C//DTD SVG 1.1//EN" "http://www.w3.org/Graphics/SVG/1.1/DTD/svg11.dtd">
<svg xmlns="http://www.w3.org/2000/svg">
<metadata/>
<defs>
<font id="helvetica_neue_lt_cyrilmdcond" horiz-adv-x="985">
<font-face units-per-em="2048" ascent="1638" descent="-410"/>
<missing-glyph horiz-adv-x="491"/>
<glyph horiz-adv-x="2048"/>
<glyph horiz-adv-x="2048"/>
<glyph unicode="" horiz-adv-x="681"/>
<glyph unicode=" " horiz-adv-x="491"/>
<glyph unicode="	" horiz-adv-x="491"/>
<glyph unicode=" " horiz-adv-x="491"/>
<glyph unicode="!" horiz-adv-x="569" d="M166 995v461h231v-461l-37 -602h-155zM168 0v227h231v-227h-231z"/>
<glyph unicode="&quot;" horiz-adv-x="872" d="M182 1458h170l-28 -588h-113zM520 1458h170l-28 -588h-115z"/>
<glyph unicode="#" horiz-adv-x="983" d="M-2 424v141h195l61 326h-170v141h197l77 426h166l-80 -426h209l80 426h164l-80 -426h168l-2 -141h-192l-60 -326h166v-141h-192l-78 -424h-166l80 424h-209l-78 -424h-164l78 424h-170zM358 565h207l62 326h-209z"/>
<glyph unicode="$" horiz-adv-x="983" d="M39 408v30h213v-32q0 -106 44 -182.5t144 -82.5v508q-92 35 -149.5 64.5t-114.5 78t-83.5 116t-26.5 157.5q0 174 97 274.5t279 114.5v148h95v-148q174 -10 269 -106.5t95 -260.5v-16h-207q-4 104 -42 154.5t-115 56.5v-438q203 -68 300 -163t97 -286q0 -180 -105.5 -301 t-283.5 -121h-10v-178h-93v178q-195 4 -299 116t-104 319zM279 1090q0 -76 37.5 -124t125.5 -85v401q-164 -25 -163 -192zM535 141q84 10 133 75t49 165q0 94 -43 142t-139 87v-469z"/>
<glyph unicode="%" horiz-adv-x="1554" d="M80 1055q0 74 4 123t19.5 106t45 91t83 56.5t128.5 22.5q72 0 124.5 -21.5t81 -54t45 -87t20.5 -104.5t4 -122q0 -74 -4 -123t-20.5 -104.5t-46 -88t-85 -54t-131.5 -21.5q-88 0 -144.5 28.5t-82 87t-33.5 117t-8 148.5zM254 1065q0 -150 18.5 -206t83.5 -56 q37 0 60.5 20.5t32 64.5t10.5 75.5t2 89.5v12q0 68 -2 103.5t-11.5 78.5t-31 61.5t-58.5 18.5q-68 0 -86 -60.5t-18 -201.5zM377 -27l643 1495h154l-644 -1495h-153zM920 362q0 74 4 123.5t19 106.5t45 91t83 56.5t129 22.5q72 0 124 -21.5t81 -54.5t45 -87t20.5 -104.5 t4.5 -121.5q0 -74 -4.5 -123t-20.5 -104.5t-46 -88t-85 -54t-131 -21.5q-88 0 -144.5 28.5t-82 87t-33.5 116.5t-8 148zM1094 373q0 -150 18 -206t84 -56q37 0 60.5 20.5t31.5 64.5t10 75.5t2 88.5v13q0 68 -2 103.5t-11 78.5t-30.5 61.5t-58.5 18.5q-68 0 -86 -60.5 t-18 -201.5z"/>
<glyph unicode="&amp;" horiz-adv-x="1175" d="M43 377q0 78 18.5 138t62.5 112.5t80 85t105 88.5q18 14 29 22q-6 8 -28.5 42t-31 47.5t-28 44t-26.5 49t-18 46t-15.5 53t-4.5 52.5q0 133 94.5 215t246 82t240.5 -80t89 -213q0 -84 -40 -154.5t-84 -108.5t-128 -99l256 -361q51 86 55 254h203q-4 -113 -40 -231.5 t-93 -196.5l191 -264h-248l-90 129q-141 -156 -367 -156q-184 0 -306 111t-122 293zM264 399q0 -104 69.5 -173.5t174.5 -69.5q135 0 229 123l-288 405q-184 -109 -185 -285zM385 1171q0 -81 117 -237q53 45 76.5 66.5t53.5 69.5t30 95q0 63 -37 98t-100.5 35t-101.5 -34.5 t-38 -92.5z"/>
<glyph unicode="'" horiz-adv-x="491" d="M162 1458h170l-31 -588h-108z"/>
<glyph unicode="(" horiz-adv-x="530" d="M96 557q0 463 289 918h152q-129 -256 -182.5 -455t-53.5 -463q0 -258 56.5 -473t179.5 -449h-152q-289 451 -289 922z"/>
<glyph unicode=")" horiz-adv-x="530" d="M-8 -365q123 233 179 448.5t56 473.5q0 264 -53 463t-182 455h151q289 -455 289 -918q0 -471 -289 -922h-151z"/>
<glyph unicode="*" horiz-adv-x="757" d="M31 1165l47 133l141 -53q53 -20 96 -43q-4 31 -4 121v141h138v-166q0 -33 -9 -94q31 14 68 29l168 63l47 -127l-143 -53q-68 -23 -95 -29q39 -39 74 -86l90 -116l-112 -84l-91 121q-39 49 -65 98q-4 -4 -21.5 -31.5t-29.5 -44.5l-103 -141l-112 84l86 114q29 39 75 86 q-6 2 -44.5 12.5t-51.5 14.5z"/>
<glyph unicode="+" horiz-adv-x="1228" d="M76 547v160h454v460h168v-460h457v-160h-457v-463h-168v463h-454z"/>
<glyph unicode="," horiz-adv-x="491" d="M133 0v264h232v-170q0 -70 -2.5 -112.5t-15.5 -100t-36.5 -92.5t-67.5 -63.5t-110 -40.5v116q45 12 68.5 46t27.5 66t4 87h-100z"/>
<glyph unicode="-" horiz-adv-x="720" d="M98 487v199h533v-199h-533z"/>
<glyph unicode="." horiz-adv-x="491" d="M131 0v264h231v-264h-231z"/>
<glyph unicode="../../../../default.htm" horiz-adv-x="606" d="M-18 -18l462 1491h181l-461 -1491h-182z"/>
<glyph unicode="0" horiz-adv-x="983" d="M61 621.5v95.5v24q0 113 6.5 196t32 188.5t69.5 173t128 114.5t200.5 47t199.5 -46t126 -110.5t67.5 -170t30 -186.5t5.5 -195q0 -98 -1 -152.5t-10.5 -150t-26 -150.5t-49 -126t-79.5 -109.5t-121 -66.5t-168 -28q-59 0 -110.5 12.5t-89.5 38t-69.5 53t-52 74t-37 82 t-25.5 95t-14 97.5t-8.5 103.5t-3.5 97zM293 741q0 -317 24 -440q35 -168 170 -168q145 0 179 176q27 141 26 432q0 309 -39 428q-39 123 -157.5 123t-163.5 -135q-39 -117 -39 -416z"/>
<glyph unicode="1" horiz-adv-x="983" d="M125 1061v149h18q315 0 344 242h166v-1452h-227v1061h-301z"/>
<glyph unicode="2" horiz-adv-x="983" d="M72 0v12q0 184 79.5 325.5t233.5 276.5l121 107q98 86 134 155.5t36 174.5q0 238 -189 237q-193 0 -192 -293v-10h-221v12q0 457 430 457q195 0 299 -104.5t104 -300.5q0 -199 -110 -328q-39 -47 -74 -81t-170 -153q-119 -104 -168 -166.5t-61 -140.5q12 0 38.5 3t40.5 3 h512v-186h-843z"/>
<glyph unicode="3" horiz-adv-x="983" d="M57 406h224q8 -272 198 -273q96 0 148.5 69.5t52.5 196.5q0 113 -45 189q-33 51 -79 67.5t-155 16.5h-47v157q16 -2 31 -2q94 0 147 21q111 41 111 227q0 213 -172 213q-178 0 -178 -246v-8h-217q0 203 102.5 310.5t302.5 107.5q186 0 287.5 -96t101.5 -273 q0 -129 -61 -216t-166 -107q131 -16 200.5 -105.5t69.5 -240.5q0 -215 -115.5 -330t-330.5 -115q-199 0 -303.5 112t-106.5 325z"/>
<glyph unicode="4" horiz-adv-x="983" d="M49 330v198l502 922h237v-936h154v-184h-154v-330h-219v330h-520zM227 510q12 4 52 4h292v449q0 115 19 227q-37 -96 -70 -156l-231 -430q-37 -65 -62 -94z"/>
<glyph unicode="5" horiz-adv-x="983" d="M59 389h224v-14q0 -113 49 -176.5t139 -63.5q61 0 105.5 33t65 87t28.5 107.5t8 112.5q0 313 -207 313q-141 0 -180 -131l-203 9l66 764h696v-187h-520l-49 -401q78 119 254 119q182 0 278 -124t96 -358q0 -250 -112.5 -380t-329.5 -130q-408 0 -408 420z"/>
<glyph unicode="6" horiz-adv-x="983" d="M59 678q0 92 2 152.5t11.5 150.5t27 149.5t51 127t82 107.5t121 66.5t164.5 26.5q178 0 276.5 -92t102.5 -262h-223q-10 190 -168 190q-63 0 -105.5 -30.5t-62 -88t-28.5 -113.5t-15 -134q-2 -23 -2 -33l-10 -121q92 164 286 164q176 0 271.5 -119t95.5 -342 q0 -231 -107.5 -370.5t-332.5 -139.5q-86 0 -154 23.5t-113 59.5t-77.5 94.5t-50 114.5t-28 135t-12.5 139.5t-2 144.5zM305 473q0 -57 7 -108.5t26.5 -107.5t62 -89t101.5 -33q199 0 198 318q0 307 -200 307q-195 0 -195 -287z"/>
<glyph unicode="7" horiz-adv-x="983" d="M59 1227v203h859v-185q-201 -281 -298.5 -565.5t-156.5 -679.5h-246q10 276 161.5 651t330.5 584q-55 -8 -127 -8h-523z"/>
<glyph unicode="8" horiz-adv-x="983" d="M59 406q0 152 63.5 247.5t184.5 124.5q-98 23 -153.5 112t-55.5 197q0 176 103.5 273.5t290.5 97.5q188 0 291.5 -96t103.5 -272q0 -121 -55.5 -206t-147.5 -106q119 -27 182.5 -123t63.5 -249q0 -213 -112.5 -325t-325.5 -112q-209 0 -321 113t-112 324zM293 412 q0 -283 202.5 -283t202.5 285q0 276 -204 276q-201 1 -201 -278zM324 1071q0 -104 44 -161.5t125.5 -57.5t126 57.5t44.5 163.5q0 221 -172 221q-168 0 -168 -223z"/>
<glyph unicode="9" horiz-adv-x="983" d="M51 952q0 244 115 375t328 131q86 0 153.5 -23.5t112.5 -60.5t76.5 -96t49 -114.5t27 -136.5t11.5 -139.5t2 -142.5q0 -86 -2 -147t-12.5 -148.5t-28 -148.5t-51 -129t-82 -108.5t-120 -68.5t-163.5 -28q-176 0 -275.5 92.5t-101.5 262.5h223q4 -190 166 -191 q45 0 80 16.5t56.5 49t36 63.5t22.5 83t10 81t6 80q2 20 2 31q8 102 13 124q-86 -170 -283 -170q-180 0 -275.5 119t-95.5 344zM285 969q0 -303 200 -303q113 0 154 87t41 234q0 139 -53.5 221t-143.5 82q-199 0 -198 -321z"/>
<glyph unicode=":" horiz-adv-x="491" d="M129 0v264h231v-264h-231zM129 784v263h231v-263h-231z"/>
<glyph unicode=";" horiz-adv-x="491" d="M131 0v264h231v-170q0 -70 -2 -112.5t-15 -100t-36.5 -92.5t-67.5 -63.5t-110 -40.5v116q45 12 68.5 46t27.5 66t4 87h-100zM131 784v263h231v-263h-231z"/>
<glyph unicode="&lt;" horiz-adv-x="1228" d="M92 543v168l1043 409v-176l-830 -317l830 -316v-178z"/>
<glyph unicode="=" horiz-adv-x="1228" d="M76 365v153h1077v-153h-1077zM76 729v156h1077v-156h-1077z"/>
<glyph unicode="&gt;" horiz-adv-x="1228" d="M92 133v178l832 316l-832 317v176l1043 -409v-168z"/>
<glyph unicode="?" horiz-adv-x="948" d="M72 1040q0 209 104.5 323t294.5 114q184 0 288.5 -103.5t104.5 -283.5q0 -186 -133 -332l-72 -78q-68 -74 -87 -128t-19 -159h-209v19q0 141 26.5 210.5t114.5 170.5l68 75q92 104 92 238q0 96 -47 151.5t-129 55.5q-182 0 -182 -279v-12h-213q-2 8 -2 18zM338 0v227h231 v-227h-231z"/>
<glyph unicode="@" horiz-adv-x="1638" d="M66 707q0 338 239.5 556t579.5 218q287 0 485.5 -162t198.5 -440q0 -158 -77 -301.5t-212 -202.5q-63 -29 -129 -29q-68 0 -115 39t-47 104q0 33 8 58q-102 -201 -288 -201q-129 0 -202 89t-73 220q0 180 117 334t289 154q190 0 237 -164l39 131h141l-124 -422 q-33 -115 -33 -156q0 -84 90 -83q66 0 137 63q70 61 109 165.5t39 207.5q0 240 -172.5 373t-417.5 133q-305 0 -515 -195t-210 -494q0 -293 202.5 -466t495.5 -173q160 0 292 47.5t273 147.5l52 -68q-154 -111 -299.5 -164t-321.5 -53q-330 0 -559 202t-229 532zM600 645 q0 -80 37 -138t113 -58q117 0 193.5 151.5t76.5 282.5q0 68 -40 112.5t-108 44.5q-117 0 -194.5 -134t-77.5 -261z"/>
<glyph unicode="A" horiz-adv-x="1062" d="M-16 0l403 1458h301l391 -1458h-245l-91 358h-424l-94 -358h-241zM356 547h349l-117 487q-37 158 -51 264h-2q-10 -92 -56 -262z"/>
<glyph unicode="B" horiz-adv-x="1099" d="M119 0v1458h430q426 0 426 -366q0 -123 -56.5 -206t-160.5 -114q266 -57 266 -354q0 -418 -475 -418h-430zM348 176h160q139 0 208.5 57.5t69.5 196.5q0 131 -84 199q-59 51 -217 51h-137v-504zM348 844h90q61 0 95 2t80 13t71 33.5t42 65.5t17 107q0 125 -61 170 t-174 45h-160v-436z"/>
<glyph unicode="C" horiz-adv-x="1062" d="M76 715q0 106 5 183t19.5 173t47 164t84 128t133 91t190.5 31q440 0 440 -481h-229v2q0 303 -211 303q-80 0 -130 -43t-73.5 -133.5t-31 -182.5t-7.5 -237q0 -197 17.5 -313.5t72 -186.5t150.5 -70q221 0 223 379h230v-20q0 -248 -112 -390.5t-349 -142.5 q-74 0 -134.5 15.5t-105.5 40t-81 64.5t-59.5 80t-41 97.5t-26.5 105.5t-14 113.5t-6 114.5t-1 115z"/>
<glyph unicode="D" horiz-adv-x="1138" d="M115 0v1458h331q162 0 253.5 -20.5t158.5 -73.5q98 -78 143.5 -219t45.5 -377q0 -451 -144 -627q-68 -84 -160 -112.5t-219 -28.5h-409zM346 178h127q172 0 238 76q98 117 98 508q0 195 -27.5 302t-93.5 163q-61 53 -252 53h-90v-1102z"/>
<glyph unicode="E" d="M129 0v1458h780v-194h-551v-410h519v-192h-519v-467h574v-195h-803z"/>
<glyph unicode="F" horiz-adv-x="948" d="M125 0v1458h778v-194h-545v-410h512v-192h-512v-662h-233z"/>
<glyph unicode="G" horiz-adv-x="1099" d="M86 717q0 104 4 180t19.5 173t48 163.5t83 127t134.5 91.5t192 31q426 0 437 -445h-230q-6 272 -209 273q-45 0 -79.5 -12.5t-59.5 -41t-43 -57.5t-29.5 -81t-17.5 -89t-8 -106.5t-3 -109.5t-1 -118q0 -133 9 -224t33.5 -172t75 -121t125.5 -40q78 0 129.5 43t71.5 119 t26.5 135.5t6.5 138.5v17h-248v172h465v-764h-170l-4 178q-82 -209 -322 -209q-100 0 -176 33t-122 95.5t-75.5 129t-42 162.5t-16.5 165t-4 163z"/>
<glyph unicode="H" horiz-adv-x="1138" d="M123 0v1458h233v-584h426v584h234v-1458h-234v676h-426v-676h-233z"/>
<glyph unicode="I" horiz-adv-x="454" d="M111 0v1458h235v-1458h-235z"/>
<glyph unicode="J" horiz-adv-x="909" d="M37 416v22h221v-22q0 -49 1 -75t8 -70t22.5 -66.5t46.5 -41t76 -18.5q39 0 67.5 10.5t45 38t25.5 46t13 62.5t4 59.5v64.5v1032h232v-1024q0 -106 -13.5 -178t-51.5 -142.5t-121 -106.5t-212 -36q-207 0 -285.5 113t-78.5 332z"/>
<glyph unicode="K" horiz-adv-x="1062" d="M119 0v1458h227v-581q0 -68 -4 -111q12 23 41 77t50.5 93t45.5 74l316 448h254l-420 -616l465 -842h-265l-352 651l-131 -182v-469h-227z"/>
<glyph unicode="L" horiz-adv-x="909" d="M94 1458h234v-1261h563v-197h-795z"/>
<glyph unicode="M" horiz-adv-x="1478" d="M123 0v1458h356l152 -600q92 -367 110 -592h7q8 195 86 508l165 684h357v-1458h-219v889q0 190 16 393h-12q-20 -117 -97 -432l-208 -850h-195l-205 819q-49 197 -104 463h-13q20 -358 21 -432v-850h-217z"/>
<glyph unicode="N" horiz-adv-x="1175" d="M125 0v1458h281l280 -717q109 -279 160 -508h8q-20 162 -20 398l-3 827h220v-1458h-283l-299 782q-117 305 -139 445h-11q23 -168 23 -418l2 -809h-219z"/>
<glyph unicode="O" horiz-adv-x="1138" d="M88 731q0 86 3 153.5t14.5 149.5t32 142.5t57 122t87 99.5t124 62.5t167.5 24.5q127 0 219.5 -45t140.5 -110.5t75.5 -171t35 -193.5t7.5 -211q0 -92 -3.5 -160t-14.5 -155t-30.5 -149.5t-55.5 -127t-87 -103.5t-127 -64.5t-172 -25.5q-92 0 -165.5 25.5t-123 65.5 t-84 103.5t-54 125t-30 145.5t-13.5 147.5t-3 149.5zM324 727q0 -147 9 -246.5t34.5 -180.5t75 -120t122.5 -39q137 0 192.5 129t55.5 449q0 336 -53 464t-191 128q-82 0 -134 -43t-74.5 -133.5t-29.5 -177.5t-7 -230z"/>
<glyph unicode="P" horiz-adv-x="1024" d="M109 0v1458h434q190 0 308 -98t118 -328q0 -225 -125 -334q-51 -45 -122 -67.5t-118 -25.5t-141 -3h-123v-602h-231zM338 778h149q119 0 182.5 56.5t63.5 200t-69.5 195.5t-212.5 52h-113v-504z"/>
<glyph unicode="Q" horiz-adv-x="1138" d="M86 717q0 88 3 154.5t14.5 150.5t32 145.5t56 124t86 102.5t125 64.5t168.5 24.5q106 0 187.5 -29t131.5 -85t83 -119.5t48 -153.5t20.5 -165t5.5 -175q0 -461 -115 -604l162 -154l-133 -129l-173 170q-88 -66 -239 -68h-10q-115 0 -200 47q-89 48 -136 118.5t-75 179 t-35 197.5t-7 204zM322 727q0 -86 2 -145.5t9 -134t23.5 -124t42 -94.5t67.5 -67.5t97 -22.5q51 0 94 27l-112 104l131 133l90 -92q43 111 43 420q0 301 -47 439.5t-193 138.5q-78 0 -128 -37t-75.5 -117t-34.5 -178t-9 -250z"/>
<glyph unicode="R" horiz-adv-x="1099" d="M115 0v1458h481q399 0 399 -385q0 -291 -235 -350q139 -25 184 -121q33 -72 41 -248l6 -123q2 -59 4 -87.5t18.5 -76t49.5 -61.5v-6h-266q-31 45 -39 211l-6 121q-4 74 -6.5 103.5t-11.5 74.5t-24.5 61.5t-44 36t-69.5 24.5t-102 5h-150v-637h-229zM344 805h158 q131 0 196.5 56.5t65.5 191.5q0 127 -67.5 178t-192.5 51h-160v-477z"/>
<glyph unicode="S" horiz-adv-x="1062" d="M68 424v29h229v-23q0 -287 221 -287q111 0 171.5 59.5t60.5 170.5q0 94 -45.5 149.5t-155.5 93.5l-152 56q-162 59 -234.5 154.5t-72.5 248.5q0 195 114.5 301.5t325.5 106.5q205 0 311.5 -101.5t106.5 -298.5v-14h-227q0 115 -42 177.5t-157 62.5q-98 0 -150.5 -53.5 t-52.5 -151.5q0 -104 55.5 -156.5t170.5 -95.5l147 -55q160 -59 227.5 -150.5t67.5 -245.5q0 -430 -481 -430q-438 0 -438 453z"/>
<glyph unicode="T" horiz-adv-x="948" d="M12 1262v196h924v-196h-344v-1262h-230v1262h-350z"/>
<glyph unicode="U" horiz-adv-x="1099" d="M104 449v1009h234v-985q0 -59 2 -94t12 -86t32 -80t63.5 -50.5t101.5 -21.5q72 0 118 27t65.5 80t25.5 100t6 121v989h231v-966q0 -260 -103.5 -391.5t-359.5 -131.5q-428 0 -428 480z"/>
<glyph unicode="V" d="M-6 1458h248l202 -921q31 -133 50 -361h6q14 205 47 359l205 923h241l-352 -1458h-297z"/>
<glyph unicode="W" horiz-adv-x="1517" d="M16 1458h232l145 -835q41 -238 47 -400h6q10 205 56 453l135 782h248l139 -803q49 -287 53 -432h8q4 127 58 455l131 780h227l-282 -1458h-271l-135 762q-39 223 -51 448h-8q-4 -162 -47 -411l-138 -799h-270z"/>
<glyph unicode="X" horiz-adv-x="1024" d="M0 0l379 743l-350 715h258l159 -348q43 -98 70 -192h4q37 137 72 208l158 332h249l-354 -717l379 -741h-260l-201 416q-29 63 -53 159h-2q-12 -72 -59 -172l-197 -403h-252z"/>
<glyph unicode="Y" d="M-6 1458h258l182 -461q39 -100 60 -213h4q31 139 63 217l182 457h248l-385 -885v-573h-229v573z"/>
<glyph unicode="Z" horiz-adv-x="948" d="M37 0v180l549 981q33 57 65 107q-35 -4 -104 -4h-471v194h825v-190l-610 -1080q37 6 69 7h549v-195h-872z"/>
<glyph unicode="[" horiz-adv-x="569" d="M162 -348v1806h411v-164h-206l-2 -1474h208v-168h-411z"/>
<glyph unicode="\" horiz-adv-x="606" d="M-18 1473h180l463 -1491h-183z"/>
<glyph unicode="]" horiz-adv-x="569" d="M-6 -180h209v1474h-209v164h414v-1804h-414v166z"/>
<glyph unicode="^" horiz-adv-x="1228" d="M182 596l353 862h157l352 -862h-178l-258 651l-250 -651h-176z"/>
<glyph unicode="_" horiz-adv-x="1024" d="M0 -154h1024v-102h-1024v102z"/>
<glyph unicode="`" horiz-adv-x="454" d="M-25 1499h242l127 -293h-156z"/>
<glyph unicode="a" horiz-adv-x="948" d="M61 293q0 180 113 266q61 47 209.5 83t194.5 65q39 25 38 108q0 160 -153 160q-94 0 -130 -51.5t-36 -147.5v-8h-203v4q0 184 92.5 270t282.5 86q176 0 274 -79q47 -39 65.5 -93.5t18.5 -156.5v-533q0 -88 27 -108q14 -10 37 -11q18 0 33 7v-146q-51 -16 -117 -16 q-88 0 -131 37t-49 118q-51 -90 -117 -128.5t-166 -38.5q-137 0 -210 80.5t-73 232.5zM285 307q0 -164 139 -164q98 0 156 80q36 52 36 164v6v107q0 14 2.5 44t2.5 44q-37 -37 -113 -62l-72 -22q-84 -27 -117.5 -69t-33.5 -128z"/>
<glyph unicode="b" d="M109 0v1458h219v-389q0 -66 -2 -102q81 155 254 155h2q86 0 149.5 -37.5t97 -92t53 -135.5t24.5 -146.5t5 -149.5q0 -588 -350 -588q-178 0 -246 166q2 -31 2 -80v-59h-208zM322 545q0 -195 36.5 -296.5t143.5 -101.5q49 0 84 25t53 60.5t29.5 95t13.5 110.5t2 125 q0 90 -5 147.5t-21.5 118t-53.5 90t-96 29.5t-98 -28.5t-57.5 -89t-24.5 -125t-6 -160.5z"/>
<glyph unicode="c" horiz-adv-x="909" d="M70 547q0 98 8 176t34.5 158t70.5 131t120 83.5t178 32.5q367 0 371 -391h-215q-4 121 -42 175.5t-118 54.5q-100 0 -143 -95.5t-43 -316.5q0 -193 28 -295q39 -127 158 -127q164 0 166 268h209q0 -428 -391 -428q-98 0 -171 33t-115 85t-66.5 131t-31.5 154t-7 171z"/>
<glyph unicode="d" d="M76 549q0 84 5 151.5t26.5 150.5t56.5 139.5t100.5 95t153.5 38.5q178 0 244 -147q0 12 -2.5 36.5t-2.5 37.5v407h222v-1458h-207v55q0 55 4 92q-43 -92 -104.5 -133t-159.5 -41q-174 0 -255 139.5t-81 436.5zM301 470q0 -26 3 -77t10.5 -78.5t19.5 -65.5t30.5 -56.5 t48 -33t66.5 -14.5q63 0 104.5 36t57.5 106.5t20.5 123t4.5 134.5q0 63 -1 98t-6.5 90t-17.5 87t-31.5 65t-51.5 48t-77 15q-43 0 -75.5 -15t-51 -50t-31 -67t-16.5 -87t-5 -87t-1 -91v-81z"/>
<glyph unicode="e" horiz-adv-x="948" d="M78 547q0 301 99 439t312 138q98 0 171 -31.5t113 -80.5t63.5 -127t30.5 -149.5t7 -168.5v-47h-569v-14q0 -205 41 -292t139 -87q160 0 172 238h207q-8 -188 -106.5 -291t-280.5 -103q-209 0 -304 138.5t-95 437.5zM307 668h346q0 59 -4 98t-17.5 92t-50 82t-94.5 29 q-180 0 -180 -301z"/>
<glyph unicode="f" horiz-adv-x="569" d="M16 934v164h154v102q0 147 64.5 211t238.5 64q33 0 94 -5v-165h-61q-43 0 -67.5 -8.5t-35 -34t-11.5 -41t-1 -58.5v-65h176v-164h-176v-934h-221v934h-154z"/>
<glyph unicode="g" d="M82 557q0 70 4 127t16.5 127t37 122t61.5 97t95 69.5t134 24.5q170 0 248 -166q-4 74 -4 105v35h209v-983q0 -90 -8.5 -155.5t-34 -132.5t-69.5 -108t-120 -66.5t-182 -25.5q-336 0 -356 279h209q16 -125 155 -125q190 0 191 225v80q0 41 6 84q-49 -82 -107.5 -121 t-150.5 -39q-334 0 -334 547zM309 559q0 -80 4 -132t19.5 -115.5t53.5 -96.5t97 -33q53 0 90 27t55.5 61.5t29 95t12.5 102.5t2 105q0 197 -44 287t-139 90q-98 0 -139 -89t-41 -302z"/>
<glyph unicode="h" d="M109 0v1458h221v-387q0 -55 -8 -102q87 157 276 157h2q147 0 213 -87t66 -224v-815h-222v700v69.5t-7 63t-21.5 62.5t-44 35.5t-72.5 17.5q-25 0 -52.5 -8t-58 -28.5t-51 -64.5t-20.5 -106v-741h-221z"/>
<glyph unicode="i" horiz-adv-x="454" d="M117 0v1098h223v-1098h-223zM117 1245v219h223v-219h-223z"/>
<glyph unicode="j" horiz-adv-x="454" d="M-39 -199q6 0 19.5 -1t19.5 -1q78 0 101.5 36t23.5 116v1147h221v-1161q0 -170 -66.5 -239t-238.5 -69q-43 0 -80 2v170zM125 1245v219h221v-219h-221z"/>
<glyph unicode="k" horiz-adv-x="948" d="M113 0v1458h217v-786q0 -12 -4 -58q37 66 67 111l279 373h250l-324 -422l377 -676h-252l-272 502l-123 -154v-348h-215z"/>
<glyph unicode="l" horiz-adv-x="454" d="M117 0v1458h221v-1458h-221z"/>
<glyph unicode="m" horiz-adv-x="1515" d="M121 0v1098h209v-27q0 -72 -4 -106q91 161 272 161h2q188 0 250 -172q100 174 276 174q88 0 146.5 -27.5t85 -78.5t36 -99.5t9.5 -111.5v-811h-221v758q0 39 -2 60.5t-13.5 57t-40 54t-75.5 18.5q-72 0 -126.5 -53t-54.5 -127v-768h-221v805q0 70 -34.5 106.5t-96.5 36.5 q-74 0 -126 -53t-52 -135v-760h-219z"/>
<glyph unicode="n" d="M109 0v1098h208v-58q0 -45 -4 -77q91 163 285 163h2q147 0 213 -88t66 -207v-831h-222v694v23q0 43 -1 65.5t-8 59.5t-20.5 55t-43 33.5t-70.5 15.5q-82 0 -133 -56t-51 -130v-760h-221z"/>
<glyph unicode="o" horiz-adv-x="948" d="M66 547q0 129 17 225t60 180t128 128t210 44q102 0 176 -32.5t117 -83t67.5 -129t33 -154.5t8.5 -174q0 -289 -92.5 -433.5t-331.5 -144.5q-207 0 -300 135.5t-93 438.5zM289 541q0 -201 36.5 -305.5t147.5 -104.5q100 0 143 97.5t43 326.5t-40.5 318.5t-143 89.5 t-144.5 -96.5t-42 -325.5z"/>
<glyph unicode="p" d="M106 -365v1463h211v-51q0 -61 -4 -95q68 170 258 170q90 0 155 -36.5t99.5 -89t54 -132.5t24.5 -145.5t5 -149.5q0 -70 -4 -128t-15 -131.5t-36 -129t-61.5 -104.5t-96 -76t-135.5 -27q-162 0 -235 148q4 -90 4 -135v-351h-224zM319 563q0 -66 1.5 -106.5t11.5 -107 t27.5 -104.5t54.5 -68t88 -30q59 0 97 34t55.5 98.5t23.5 127t6 148.5q0 203 -36 298t-140 95q-66 0 -108 -38t-57 -110.5t-19.5 -118.5t-4.5 -118z"/>
<glyph unicode="q" d="M76 543q0 92 7 166.5t28.5 154.5t57.5 134.5t99.5 89t149.5 34.5q92 0 152.5 -40t101.5 -130q-6 51 -6 95v51h213v-1463h-215v392q0 61 4 96q-76 -150 -252 -150q-156 0 -236 109q-104 137 -104 461zM301 551q0 -96 4 -153.5t20.5 -123t54.5 -97.5t99 -32q63 0 103.5 33 t57.5 101.5t21.5 127t4.5 152.5q0 68 -2 112t-12.5 102t-29 92t-54.5 58.5t-87 24.5q-41 0 -72.5 -16.5t-51 -49t-32 -67.5t-17.5 -86t-6 -88t-1 -90z"/>
<glyph unicode="r" horiz-adv-x="645" d="M113 0v1098h213v-72q0 -68 -4 -104q86 196 266 196h2q29 0 53 -2v-215q-29 4 -68 4q-115 0 -180 -61.5t-65 -161.5v-682h-217z"/>
<glyph unicode="s" horiz-adv-x="872" d="M53 336v18h203v-14q0 -106 37 -159.5t137 -53.5q80 0 125 41t45 115q0 119 -135 166l-133 47q-145 51 -203.5 121.5t-58.5 195.5q0 147 95 228t271 81q178 0 263 -78.5t85 -252.5v-15h-202v12q0 88 -32 134.5t-118 46.5q-74 0 -115 -36t-41 -102q0 -31 12.5 -57t25 -41.5 t44 -32t46 -21.5t56.5 -18.5t50 -15.5q78 -27 123 -47t92 -58t67.5 -93.5t20.5 -133.5q0 -164 -102.5 -253t-290.5 -89q-193 0 -280 87t-87 278z"/>
<glyph unicode="t" horiz-adv-x="569" d="M6 934v164h154v309h221v-309h178v-164h-178v-639q0 -41 2 -60.5t12.5 -40t35 -27.5t65.5 -7q20 0 63 6v-164q-66 -12 -151 -12q-154 0 -201 62.5t-47 215.5v666h-154z"/>
<glyph unicode="u" d="M106 317v781h224v-736q0 -47 3 -76.5t15 -64.5t43 -52t78 -17q66 0 126 44t60 134v768h222v-1098h-209v35q0 16 2 49t2 49q-106 -160 -283 -160q-283 0 -283 344z"/>
<glyph unicode="v" horiz-adv-x="872" d="M18 1098h238l152 -684q31 -133 34 -213h9q6 88 28 200l144 697h229l-281 -1098h-260z"/>
<glyph unicode="w" horiz-adv-x="1402" d="M33 1098h227l107 -588q41 -233 47 -320h6q8 96 51 330l111 578h249l127 -656q29 -152 35 -252h6q6 66 37 265l113 643h221l-246 -1098h-250l-112 516q-49 227 -55 391h-7q-10 -141 -53 -364l-108 -543h-258z"/>
<glyph unicode="x" horiz-adv-x="872" d="M8 0l299 569l-287 529h240l139 -289q27 -57 39 -96q4 25 41 102l135 283h234l-283 -529l297 -569h-235l-142 295q-31 66 -51 123q-14 -41 -53 -127l-137 -291h-236z"/>
<glyph unicode="y" horiz-adv-x="872" d="M18 1098h238l154 -645q31 -135 39 -240h4q8 117 34 244l136 641h231l-285 -1078q-39 -139 -71 -219q-37 -90 -104.5 -130t-186.5 -40q-55 0 -119 4v170q29 -4 82 -4q109 0 139 93l29 81z"/>
<glyph unicode="z" horiz-adv-x="833" d="M45 0v172l369 588q16 25 34.5 52.5t41 61t34.5 52.5q-74 -6 -213 -6h-241v178h702v-174l-385 -613q-61 -94 -92 -135q68 6 182 6h295v-182h-727z"/>
<glyph unicode="{" horiz-adv-x="569" d="M2 502v104q135 12 177 73.5t42 211.5v135q0 92 5 147.5t24.5 118t55.5 96t101.5 58t161.5 31.5v-103q-63 -6 -102 -27.5t-56.5 -63.5t-22.5 -81t-5 -102v-154q0 -82 -2 -123t-13.5 -98t-35 -86t-68.5 -53.5t-110 -32.5q66 -6 110.5 -30.5t67 -52.5t35 -85t14.5 -99 t2 -124v-156q0 -63 4 -100t21.5 -80t57.5 -65.5t103 -26.5v-103q-119 6 -190.5 38t-105 97.5t-43 132t-9.5 181.5v121q0 162 -39 225t-180 76z"/>
<glyph unicode="|" horiz-adv-x="454" d="M143 -438v2048h170v-2048h-170z"/>
<glyph unicode="}" horiz-adv-x="569" d="M0 -266q51 4 87 21.5t55.5 40t29.5 60.5t12 69.5t2 80.5v156q0 70 1 104.5t7.5 87t20.5 79t39 56t64.5 44t95.5 20.5q-66 8 -110 32.5t-67.5 53.5t-35 86t-13.5 98t-2 123v154q0 63 -5 102t-22.5 81t-56.5 63.5t-102 27.5v103q94 -6 159.5 -31t102.5 -59.5t56.5 -96 t24.5 -118t5 -146.5v-135q0 -150 42 -211.5t177 -73.5v-104q-141 -12 -180 -76t-39 -225v-121q0 -115 -9 -181.5t-43 -132t-105.5 -97t-190.5 -38.5v103z"/>
<glyph unicode="~" horiz-adv-x="1228" d="M72 469q16 131 81.5 220t188.5 89q35 0 77 -8t71.5 -17.5t77.5 -25.5t69 -22q16 -6 59 -21.5t71 -24t64.5 -16.5t65.5 -8q119 0 150 149h108q-14 -133 -80.5 -220t-191.5 -87q-70 0 -279 68q-10 4 -77.5 28.5t-112.5 37t-80 12.5q-61 0 -100 -45.5t-50 -108.5h-112z"/>
<glyph unicode="£" horiz-adv-x="983" d="M27 143q115 72 181 170.5t66 196.5q0 72 -34 135h-201v139h141q-55 109 -75.5 168.5t-20.5 137.5q0 166 115.5 265t308.5 99q199 0 310.5 -104.5t111.5 -305.5v-8h-213q0 256 -205 256q-92 0 -146.5 -52t-54.5 -140q0 -61 24.5 -126t88.5 -190h340v-139h-289 q23 -66 23 -115q0 -98 -56.5 -182t-187.5 -186q102 47 160 47q47 0 129 -29q84 -31 123 -30q84 0 213 86l82 -164q-152 -100 -299 -101q-68 0 -181 41q-117 41 -180 41q-76 0 -192 -67z"/>
<glyph unicode="¤" horiz-adv-x="983" d="M2 344l133 133q-82 117 -82 254t82 254l-133 133l100 101l134 -134q123 82 256 82q127 0 253 -82l132 134l100 -101l-131 -133q82 -119 82 -256q0 -129 -84 -252l135 -133l-102 -100l-134 133q-119 -82 -251 -82q-143 0 -254 82l-136 -133zM205 731q0 -119 83 -202 t201.5 -83t201.5 83t83 202t-83 202t-201.5 83t-201.5 -83t-83 -202z"/>
<glyph unicode="¦" horiz-adv-x="454" d="M143 -182v512h170v-512h-170zM143 842v512h170v-512h-170z"/>
<glyph unicode="§" d="M53 629q0 100 48.5 167.5t142.5 125.5q-129 88 -129 235.5t102 231.5t283 84q168 0 266 -83t98 -227v-8h-213q-4 158 -164 158q-68 0 -109.5 -37t-41.5 -96q0 -18 4 -34t13 -31t19.5 -27.5t32 -28t38 -26.5t48 -28.5t55 -29.5t67.5 -36t75 -40q121 -66 184.5 -141.5 t63.5 -196.5q0 -178 -166 -295q117 -104 117 -254q0 -156 -102.5 -245t-282.5 -89q-184 0 -287.5 90.5t-103.5 272.5v6h219v-6q0 -86 40 -141.5t126 -55.5q74 0 117.5 42t43.5 114q0 59 -35.5 104.5t-117.5 90.5l-230 129q-117 66 -169 138.5t-52 166.5zM250 663.5 q0 -38.5 26.5 -74.5t50 -51.5t70.5 -41.5q177 -101 234 -146q111 74 110 174q0 104 -151 193l-213 121q-45 -33 -63.5 -49.5t-41 -51.5t-22.5 -73.5z"/>
<glyph unicode="©" horiz-adv-x="1638" d="M70 723q0 311 220 531.5t531.5 220.5t530.5 -220.5t219 -531.5q0 -309 -220.5 -529.5t-529.5 -220.5q-311 0 -531 220.5t-220 529.5zM158 723q0 -274 194.5 -467t468.5 -193q272 0 466 194t194 466q0 274 -194 467.5t-466 193.5q-274 0 -468.5 -193.5t-194.5 -467.5z M430 727q0 182 107.5 311t285.5 129q139 0 245 -84t116 -221h-129q-16 88 -76.5 140.5t-151.5 52.5q-123 0 -188.5 -96.5t-65.5 -225.5q0 -137 68 -235.5t199 -98.5q86 0 144 48.5t75 132.5h129q-14 -129 -114.5 -211t-233.5 -82q-180 0 -295 129t-115 311z"/>
<glyph unicode="«" horiz-adv-x="833" d="M100 451v241l293 271v-222l-100 -94l-84 -74q53 -41 78 -65l106 -107v-217zM430 451v241l293 271v-222l-100 -94l-84 -74q53 -41 77 -65l107 -107v-217z"/>
<glyph unicode="¬" horiz-adv-x="1228" d="M86 727v160h1042v-576h-161v416h-881z"/>
<glyph unicode="­" horiz-adv-x="720" d="M98 487v199h533v-199h-533z"/>
<glyph unicode="®" horiz-adv-x="819" d="M35 1093.5q0 155.5 109.5 265t265 109.5t265 -109.5t109.5 -265t-109.5 -265t-265 -109.5t-265 109.5t-109.5 265zM96 1094q0 -129 92.5 -222.5t221.5 -93.5t221 93.5t92 222.5t-92 221t-221 92v2q-129 0 -221.5 -92t-92.5 -223zM258 895v399h150q176 0 176 -116 q0 -68 -74 -95q43 -18 55.5 -48.5t12.5 -73.5t10 -66h-84q-10 23 -9 69t-17.5 65.5t-84.5 19.5h-53v-154h-82zM340 1114h66q94 0 94 60q0 57 -101 57h-59v-117z"/>
<glyph unicode="°" horiz-adv-x="819" d="M90 1139q0 131 94.5 225t225.5 94t225 -94t94 -225q0 -133 -93 -227.5t-226.5 -94.5t-226.5 94.5t-93 227.5zM231 1139q0 -74 52.5 -126t126 -52t126 52t52.5 126q0 72 -52.5 125t-126 53t-126 -53.5t-52.5 -124.5z"/>
<glyph unicode="±" horiz-adv-x="1228" d="M86 0v160h1042v-160h-1042zM86 580v157h434v346h172v-346h436v-157h-436v-340h-172v340h-434z"/>
<glyph unicode="¶" horiz-adv-x="1228" d="M68 973q0 236 147 360.5t381 124.5h557v-133h-111v-1692h-159v1692h-240v-1692h-160v887q-197 14 -306 136t-109 317z"/>
<glyph unicode="·" horiz-adv-x="491" d="M131 492v264h231v-264h-231z"/>
<glyph unicode="»" horiz-adv-x="833" d="M111 184v217l106 107l78 65q-57 49 -84 74l-100 94v222l292 -271v-241zM440 184v217l107 107l78 65q-57 49 -84 74l-101 94v222l293 -271v-241z"/>
<glyph unicode="÷" horiz-adv-x="1228" d="M76 543v162h1077v-162h-1077zM498 156v247h231v-247h-231zM498 846v248h231v-248h-231z"/>
<glyph unicode="ƒ" horiz-adv-x="983" d="M-53 -356l33 159q55 -6 73 -6q92 0 128 43t63 183l139 722h-215l27 140h215l39 198q25 125 50 183.5t74 105.5q78 78 265 78q63 0 116 -6l-32 -160q-61 4 -64 4q-98 0 -136 -52t-60 -171l-35 -180h223l-27 -140h-223l-141 -733q-39 -201 -118 -290t-271 -89 q-57 0 -123 11z"/>
<glyph unicode="Ё" d="M129 0v1458h780v-194h-551v-410h519v-192h-519v-467h574v-195h-803zM248 1581v219h198v-219h-198zM625 1581v219h198v-219h-198z"/>
<glyph unicode="Ђ" horiz-adv-x="1353" d="M10 1264v194h967v-194h-406v-488q39 66 120 108t179 42q201 0 301.5 -134.5t100.5 -433.5q0 -666 -529 -665h-28v190q174 8 246.5 131t72.5 344q0 215 -60.5 302.5t-182.5 87.5q-78 0 -129.5 -52.5t-71 -125t-19.5 -164.5v-406h-233v1264h-328z"/>
<glyph unicode="Ѓ" horiz-adv-x="899" d="M123 0v1458h762v-196h-529v-1262h-233zM358 1542l127 293h242l-215 -293h-154z"/>
<glyph unicode="Є" horiz-adv-x="1062" d="M74 717q0 92 3 158.5t13 152.5t29.5 146.5t55.5 123t86 100.5t124 62.5t168 24.5q428 0 440 -451h-229q-14 276 -211 277q-72 0 -120 -34t-73.5 -101.5t-36 -142.5t-12.5 -181h402v-193h-402q0 -88 4 -149t19.5 -136t40 -121t72 -78t110.5 -32q213 0 221 346h230 q-6 -246 -110.5 -383t-350.5 -137q-104 0 -184 29t-130.5 86t-84 122.5t-49 158t-20.5 171t-5 181.5z"/>
<glyph unicode="Ѕ" horiz-adv-x="1062" d="M68 424v29h229v-23q0 -287 221 -287q111 0 171.5 59.5t60.5 170.5q0 94 -45.5 149.5t-155.5 93.5l-152 56q-162 59 -234.5 154.5t-72.5 248.5q0 195 114.5 301.5t325.5 106.5q205 0 311.5 -101.5t106.5 -298.5v-14h-227q0 115 -42 177.5t-157 62.5q-98 0 -150.5 -53.5 t-52.5 -151.5q0 -104 55.5 -156.5t170.5 -95.5l147 -55q160 -59 227.5 -150.5t67.5 -245.5q0 -430 -481 -430q-438 0 -438 453z"/>
<glyph unicode="І" horiz-adv-x="454" d="M111 0v1458h235v-1458h-235z"/>
<glyph unicode="Ї" horiz-adv-x="454" d="M-59 1581v219h198v-219h-198zM111 0v1458h235v-1458h-235zM317 1581v219h199v-219h-199z"/>
<glyph unicode="Ј" horiz-adv-x="909" d="M37 416v22h221v-22q0 -49 1 -75t8 -70t22.5 -66.5t46.5 -41t76 -18.5q39 0 67.5 10.5t45 38t25.5 46t13 62.5t4 59.5v64.5v1032h232v-1024q0 -106 -13.5 -178t-51.5 -142.5t-121 -106.5t-212 -36q-207 0 -285.5 113t-78.5 332z"/>
<glyph unicode="Љ" horiz-adv-x="1716" d="M0 -8v194q51 -10 70 -10q66 0 98.5 32t50 131t23.5 302l20 817h754v-575h182q225 0 342 -100.5t117 -323.5q0 -238 -115 -348.5t-342 -110.5h-418v1264h-299l-20 -709q-4 -111 -13.5 -189.5t-32 -156.5t-58 -126t-96 -77t-142.5 -29q-35 0 -121 15zM1014 180h114 q156 0 224.5 56.5t68.5 212.5q0 143 -67.5 198t-206.5 55h-133v-522z"/>
<glyph unicode="Њ" horiz-adv-x="1716" d="M123 0v1458h233v-584h426v584h234v-584h180q225 0 343 -96t118 -319q0 -238 -113.5 -348.5t-341.5 -110.5h-420v682h-426v-682h-233zM1016 180h114q154 0 222.5 55t68.5 207q0 145 -66.5 198.5t-207.5 53.5h-131v-514z"/>
<glyph unicode="Ћ" horiz-adv-x="1306" d="M10 1264v194h967v-194h-406v-387q123 35 232 34q406 0 405 -397v-514h-233v502q0 125 -57.5 172t-155.5 47q-66 0 -191 -27v-694h-233v1264h-328z"/>
<glyph unicode="Ќ" horiz-adv-x="1062" d="M119 0v1458h227v-581q0 -68 -4 -111q12 23 41 77t50.5 93t45.5 74l316 448h254l-420 -616l465 -842h-265l-352 651l-131 -182v-469h-227zM434 1542l127 293h242l-215 -293h-154z"/>
<glyph unicode="Ў" horiz-adv-x="1013" d="M0 1458h258l170 -467q88 -248 100 -344h7q10 70 108 373l139 438h246l-391 -1118q-68 -195 -143.5 -271.5t-241.5 -76.5q-45 0 -113 8v180q53 -8 88 -8q121 0 162 123l33 94zM240 1835h125q25 -139 162 -139t159 139h125q-4 -137 -79 -212t-206 -75t-205.5 75t-80.5 212z "/>
<glyph unicode="Џ" horiz-adv-x="1138" d="M123 0v1458h233v-1263h426v1263h234v-1458h-338v-350h-217v350h-338z"/>
<glyph unicode="А" horiz-adv-x="1062" d="M-16 0l403 1458h301l391 -1458h-245l-91 358h-424l-94 -358h-241zM356 547h349l-117 487q-37 158 -51 264h-2q-10 -92 -56 -262z"/>
<glyph unicode="Б" horiz-adv-x="1099" d="M121 0v1458h805v-192h-574v-394h215q225 0 341 -97t116 -320q0 -238 -113.5 -346.5t-341.5 -108.5h-448zM352 182h146q156 0 223 52.5t67 203.5q0 145 -66.5 199.5t-207.5 54.5h-162v-510z"/>
<glyph unicode="В" horiz-adv-x="1099" d="M119 0v1458h430q426 0 426 -366q0 -123 -56.5 -206t-160.5 -114q266 -57 266 -354q0 -418 -475 -418h-430zM348 176h160q139 0 208.5 57.5t69.5 196.5q0 131 -84 199q-59 51 -217 51h-137v-504zM348 844h90q61 0 95 2t80 13t71 33.5t42 65.5t17 107q0 125 -61 170 t-174 45h-160v-436z"/>
<glyph unicode="Г" horiz-adv-x="899" d="M123 0v1458h762v-196h-529v-1262h-233z"/>
<glyph unicode="Д" horiz-adv-x="1191" d="M0 195h111q195 354 194 942v321h727v-1263h144v-545h-220v350h-739v-350h-217v545zM362 195h439v1069h-273v-230q0 -535 -166 -839z"/>
<glyph unicode="Е" d="M129 0v1458h780v-194h-551v-410h519v-192h-519v-467h574v-195h-803z"/>
<glyph unicode="Ж" horiz-adv-x="1599" d="M-20 0l430 868l-381 590h258l278 -459q55 -90 127 -233q-6 70 -6 211v481h227v-481q0 -141 -6 -211q72 143 127 233l279 459h258l-381 -590l430 -868h-264l-312 674l-131 -209v-465h-227v465l-131 209l-311 -674h-264z"/>
<glyph unicode="З" horiz-adv-x="1062" d="M72 426v29h229v-23q0 -131 48 -208t173 -77q106 0 164.5 66t58.5 193q0 143 -62 205.5t-200 62.5q-61 0 -86 -4v182q12 -4 58 -4q133 0 194.5 55t61.5 193q0 213 -189 213q-115 0 -157.5 -63.5t-42.5 -178.5h-228v14q0 399 426 400q207 0 314.5 -99.5t107.5 -277.5 q0 -123 -61.5 -216t-165.5 -118q129 -23 198.5 -113t69.5 -237q0 -215 -122 -330t-349 -115q-440 0 -440 451z"/>
<glyph unicode="И" horiz-adv-x="1165" d="M123 0v1458h233v-745q0 -258 -10 -342h6q29 119 142 393l284 694h264v-1458h-233v743q0 276 12 355h-6q-12 -51 -145 -385l-283 -713h-264z"/>
<glyph unicode="Й" horiz-adv-x="1165" d="M123 0v1458h233v-745q0 -258 -10 -342h6q29 119 142 393l284 694h264v-1458h-233v743q0 276 12 355h-6q-12 -51 -145 -385l-283 -713h-264zM297 1835h125q23 -139 162 -139q137 0 159 139h125q-4 -137 -78.5 -212t-205.5 -75q-133 0 -208 75t-79 212z"/>
<glyph unicode="К" horiz-adv-x="1062" d="M119 0v1458h227v-581q0 -68 -4 -111q12 23 41 77t50.5 93t45.5 74l316 448h254l-420 -616l465 -842h-265l-352 651l-131 -182v-469h-227z"/>
<glyph unicode="Л" horiz-adv-x="1138" d="M-2 -2v195q51 -10 70 -11q66 0 98.5 32t49.5 131t24 302l20 811h754v-1458h-234v1264h-299l-20 -703q-4 -111 -13.5 -189.5t-32 -156.5t-58 -126t-96 -76.5t-142.5 -28.5q-35 0 -121 14z"/>
<glyph unicode="М" horiz-adv-x="1478" d="M123 0v1458h356l152 -600q92 -367 110 -592h7q8 195 86 508l165 684h357v-1458h-219v889q0 190 16 393h-12q-20 -117 -97 -432l-208 -850h-195l-205 819q-49 197 -104 463h-13q20 -358 21 -432v-850h-217z"/>
<glyph unicode="Н" horiz-adv-x="1138" d="M123 0v1458h233v-584h426v584h234v-1458h-234v676h-426v-676h-233z"/>
<glyph unicode="О" horiz-adv-x="1138" d="M88 731q0 86 3 153.5t14.5 149.5t32 142.5t57 122t87 99.5t124 62.5t167.5 24.5q127 0 219.5 -45t140.5 -110.5t75.5 -171t35 -193.5t7.5 -211q0 -92 -3.5 -160t-14.5 -155t-30.5 -149.5t-55.5 -127t-87 -103.5t-127 -64.5t-172 -25.5q-92 0 -165.5 25.5t-123 65.5 t-84 103.5t-54 125t-30 145.5t-13.5 147.5t-3 149.5zM324 727q0 -147 9 -246.5t34.5 -180.5t75 -120t122.5 -39q137 0 192.5 129t55.5 449q0 336 -53 464t-191 128q-82 0 -134 -43t-74.5 -133.5t-29.5 -177.5t-7 -230z"/>
<glyph unicode="П" horiz-adv-x="1138" d="M123 0v1458h893v-1458h-234v1264h-426v-1264h-233z"/>
<glyph unicode="Р" horiz-adv-x="1024" d="M109 0v1458h434q190 0 308 -98t118 -328q0 -225 -125 -334q-51 -45 -122 -67.5t-118 -25.5t-141 -3h-123v-602h-231zM338 778h149q119 0 182.5 56.5t63.5 200t-69.5 195.5t-212.5 52h-113v-504z"/>
<glyph unicode="С" horiz-adv-x="1062" d="M76 715q0 106 5 183t19.5 173t47 164t84 128t133 91t190.5 31q440 0 440 -481h-229v2q0 303 -211 303q-80 0 -130 -43t-73.5 -133.5t-31 -182.5t-7.5 -237q0 -197 17.5 -313.5t72 -186.5t150.5 -70q221 0 223 379h230v-20q0 -248 -112 -390.5t-349 -142.5 q-74 0 -134.5 15.5t-105.5 40t-81 64.5t-59.5 80t-41 97.5t-26.5 105.5t-14 113.5t-6 114.5t-1 115z"/>
<glyph unicode="Т" horiz-adv-x="948" d="M12 1262v196h924v-196h-344v-1262h-230v1262h-350z"/>
<glyph unicode="У" horiz-adv-x="1013" d="M0 1458h258l170 -467q88 -248 100 -344h7q10 70 108 373l139 438h246l-391 -1118q-68 -195 -143.5 -271.5t-241.5 -76.5q-45 0 -113 8v180q53 -8 88 -8q121 0 162 123l33 94z"/>
<glyph unicode="Ф" horiz-adv-x="1519" d="M78 729q0 106 30.5 204.5t91 184.5t169 137.5t249.5 51.5h25v168h234v-168h24q141 0 250 -51.5t169 -137.5t91 -184.5t31 -204.5q0 -104 -32 -202.5t-93.5 -182.5t-169 -134t-244.5 -50h-26v-178h-234v178h-27q-137 0 -244.5 50t-169 134t-93 182.5t-31.5 202.5zM315 733 q0 -182 91.5 -285.5t222.5 -103.5h20v776h-12q-145 0 -233.5 -98t-88.5 -289zM870 344h21q131 0 222 103.5t91 285.5q0 190 -88 288.5t-233 98.5h-13v-776z"/>
<glyph unicode="Х" horiz-adv-x="1024" d="M0 0l379 743l-350 715h258l159 -348q43 -98 70 -192h4q37 137 72 208l158 332h249l-354 -717l379 -741h-260l-201 416q-29 63 -53 159h-2q-12 -72 -59 -172l-197 -403h-252z"/>
<glyph unicode="Ц" horiz-adv-x="1171" d="M123 0v1458h233v-1263h426v1263h234v-1263h143v-543h-215v348h-821z"/>
<glyph unicode="Ч" horiz-adv-x="1089" d="M88 973v485h234v-473q0 -125 57 -171t156 -46q80 0 194 25v665h234v-1458h-234v610q-135 -33 -233 -32q-408 0 -408 395z"/>
<glyph unicode="Ш" horiz-adv-x="1691" d="M123 0v1458h233v-1263h373v1263h234v-1263h372v1263h234v-1458h-1446z"/>
<glyph unicode="Щ" horiz-adv-x="1724" d="M123 0v1458h233v-1263h373v1263h234v-1263h372v1263h234v-1263h143v-543h-215v348h-1374z"/>
<glyph unicode="Ъ" horiz-adv-x="1269" d="M12 1264v194h555v-573h187q223 0 339.5 -100.5t116.5 -325.5q0 -238 -113.5 -348.5t-340.5 -110.5h-422v1264h-322zM567 180h115q156 0 223.5 56.5t67.5 212.5q0 145 -67.5 200.5t-207.5 55.5h-131v-525z"/>
<glyph unicode="Ы" horiz-adv-x="1462" d="M123 0v1458h233v-573h187q223 0 339.5 -100.5t116.5 -325.5q0 -238 -113.5 -348.5t-340.5 -110.5h-422zM356 180h115q156 0 223.5 56.5t67.5 212.5q0 145 -67.5 200.5t-207.5 55.5h-131v-525zM1106 0v1458h233v-1458h-233z"/>
<glyph unicode="Ь" horiz-adv-x="1062" d="M127 0v1458h233v-573h187q223 0 340 -100.5t117 -325.5q0 -238 -114 -348.5t-341 -110.5h-422zM360 180h115q156 0 223.5 56.5t67.5 212.5q0 145 -67.5 200.5t-206.5 55.5h-132v-525z"/>
<glyph unicode="Э" horiz-adv-x="1062" d="M55 489h228q12 -348 221 -348q63 0 110.5 32t73 79t40.5 120.5t19.5 137t4.5 149.5h-404v193h402q-4 143 -20.5 235.5t-71 158t-148.5 65.5q-201 0 -211 -277h-229q12 451 442 451q94 0 168 -24.5t123 -62.5t85 -100.5t55.5 -123t29.5 -146.5t13 -152.5t3 -158.5 q0 -102 -6 -181t-21.5 -171.5t-49 -158t-84 -121.5t-131.5 -86t-185 -30q-244 0 -347.5 136.5t-109.5 383.5z"/>
<glyph unicode="Ю" horiz-adv-x="1585" d="M123 0v1458h233v-594h181q4 104 17 186.5t46 167.5t84 140t136 91t200 36q127 0 219 -45t140 -110.5t76 -171t35 -193.5t7 -211q0 -92 -3 -160t-14.5 -155t-30.5 -149.5t-55 -127t-87.5 -103.5t-127 -64.5t-171.5 -25.5q-121 0 -208 43t-136.5 107.5t-79 163t-38.5 184.5 t-11 199h-179v-666h-233zM770 727q0 -147 9 -246.5t35 -180.5t75 -120t123 -39q137 0 192.5 129t55.5 449q0 336 -53.5 464t-190.5 128q-82 0 -134.5 -43t-75 -133.5t-29.5 -177.5t-7 -230z"/>
<glyph unicode="Я" horiz-adv-x="1099" d="M29 0l333 618q-279 86 -278 416q0 215 124 319.5t335 104.5h434v-1458h-234v592h-145l-305 -592h-264zM322 1034q0 -143 66.5 -203.5t201.5 -60.5h155v510h-141q-143 0 -212.5 -52t-69.5 -194z"/>
<glyph unicode="а" horiz-adv-x="948" d="M61 293q0 180 113 266q61 47 209.5 83t194.5 65q39 25 38 108q0 160 -153 160q-94 0 -130 -51.5t-36 -147.5v-8h-203v4q0 184 92.5 270t282.5 86q176 0 274 -79q47 -39 65.5 -93.5t18.5 -156.5v-533q0 -88 27 -108q14 -10 37 -11q18 0 33 7v-146q-51 -16 -117 -16 q-88 0 -131 37t-49 118q-51 -90 -117 -128.5t-166 -38.5q-137 0 -210 80.5t-73 232.5zM285 307q0 -164 139 -164q98 0 156 80q37 53 36 170v107q0 14 2.5 44t2.5 44q-37 -37 -113 -62l-72 -22q-84 -27 -117.5 -69t-33.5 -128z"/>
<glyph unicode="б" horiz-adv-x="960" d="M80 629q0 150 12 262.5t47 233t110 198.5t187 107q31 8 73 15t68.5 13t53 13.5t42 16.5t17.5 23h172q-2 -57 -21.5 -99t-42 -65.5t-65.5 -42t-72.5 -25.5t-83 -17.5t-79.5 -16.5q-143 -35 -215 -118t-84 -261h6q39 111 127 171.5t186 60.5q199 0 288 -140t89 -421 q0 -289 -95 -427.5t-327 -138.5q-104 0 -179 39t-116 96.5t-63.5 151.5t-28.5 175t-6 196zM303 528q0 -211 41 -306t141.5 -95t144.5 93.5t44 320.5q0 225 -42 313t-140.5 88t-143.5 -93t-45 -321z"/>
<glyph unicode="в" horiz-adv-x="952" d="M106 0v1098h416q324 0 324 -279q0 -88 -43 -151.5t-123 -85.5q201 -44 201 -269q0 -313 -357 -313h-418zM324 158h116q109 0 163 33t54 137q0 98 -51 134t-155 36h-127v-340zM324 647h116q96 0 141.5 31t45.5 117q0 88 -46 116.5t-149 28.5h-108v-293z"/>
<glyph unicode="г" horiz-adv-x="737" d="M113 0v1098h618v-176h-397v-922h-221z"/>
<glyph unicode="д" horiz-adv-x="1024" d="M8 195h103q125 233 125 657v246h647v-903h127v-490h-207v295h-588v-295h-207v490zM332 195h332v729h-220v-127q0 -147 -29.5 -325.5t-82.5 -276.5z"/>
<glyph unicode="е" horiz-adv-x="948" d="M78 547q0 301 99 439t312 138q98 0 171 -31.5t113 -80.5t63.5 -127t30.5 -149.5t7 -168.5v-47h-569v-14q0 -205 41 -292t139 -87q160 0 172 238h207q-8 -188 -106.5 -291t-280.5 -103q-209 0 -304 138.5t-95 437.5zM307 668h346q0 59 -4 98t-17.5 92t-50 82t-94.5 29 q-180 0 -180 -301z"/>
<glyph unicode="ж" horiz-adv-x="1384" d="M-16 0l350 666l-295 432h242l184 -291q84 -131 127 -225q-6 111 -6 168v348h213v-348q0 -57 -6 -168q41 88 127 225l184 291h242l-293 -432l348 -666h-246l-233 487l-123 -180v-307h-213v307l-121 180l-234 -487h-247z"/>
<glyph unicode="з" horiz-adv-x="880" d="M45 338v18h203v-14q0 -106 37 -159.5t137 -53.5q78 0 123 48t45 134q0 98 -43 141.5t-139 43.5q-66 0 -78 -4v159q2 0 28.5 -1t34.5 -1q84 0 128 39t44 133q0 150 -137 150q-86 0 -117.5 -47t-31.5 -136v-12h-203v15q0 176 86 254.5t268 78.5q172 0 262 -77.5t90 -217.5 q0 -90 -49 -159.5t-131 -89.5q98 -16 153.5 -84t55.5 -179q0 -166 -100.5 -255t-288.5 -89q-197 0 -287 87t-90 278z"/>
<glyph unicode="и" horiz-adv-x="1017" d="M109 0v1098h210v-557q0 -178 -12 -258h6q31 96 103 256l246 559h247v-1098h-211v557q0 119 11 268h-7q-8 -51 -73 -202l-273 -623h-247z"/>
<glyph unicode="й" horiz-adv-x="1017" d="M109 0v1098h210v-557q0 -178 -12 -258h6q31 96 103 256l246 559h247v-1098h-211v557q0 119 11 268h-7q-8 -51 -73 -202l-273 -623h-247zM238 1487h118q10 -66 50 -101.5t101.5 -35.5t101.5 35.5t50 101.5h119q-4 -125 -76.5 -199t-193.5 -74t-193.5 74t-76.5 199z"/>
<glyph unicode="к" horiz-adv-x="948" d="M115 0v1098h215v-379q0 -10 -2 -67.5t-2 -69.5q31 55 120 192l220 324h254l-322 -445l371 -653h-256l-256 471l-127 -176v-295h-215z"/>
<glyph unicode="л" d="M0 0v174q41 -10 57 -10q39 0 60.5 10t42 71.5t24.5 182.5l21 670h669v-1098h-221v922h-239l-13 -486q-4 -147 -28.5 -243.5t-68.5 -139.5t-84 -56t-99 -13q-55 0 -121 16z"/>
<glyph unicode="м" horiz-adv-x="1271" d="M109 0v1098h321l137 -566q37 -137 66 -315h6q29 178 66 315l137 566h321v-1098h-211v639q0 45 15 274h-6q-20 -109 -52 -225l-176 -688h-194l-177 688q-31 117 -51 225h-6q14 -229 14 -274v-639h-210z"/>
<glyph unicode="н" d="M109 0v1098h221v-422h325v422h222v-1098h-222v494h-325v-494h-221z"/>
<glyph unicode="о" horiz-adv-x="948" d="M66 547q0 129 17 225t60 180t128 128t210 44q102 0 176 -32.5t117 -83t67.5 -129t33 -154.5t8.5 -174q0 -289 -92.5 -433.5t-331.5 -144.5q-207 0 -300 135.5t-93 438.5zM289 541q0 -201 36.5 -305.5t147.5 -104.5q100 0 143 97.5t43 326.5t-40.5 318.5t-143 89.5 t-144.5 -96.5t-42 -325.5z"/>
<glyph unicode="п" d="M109 0v1098h768v-1098h-222v922h-325v-922h-221z"/>
<glyph unicode="р" d="M106 -365v1463h211v-51q0 -61 -4 -95q68 170 258 170q90 0 155 -36.5t99.5 -89t54 -132.5t24.5 -145.5t5 -149.5q0 -70 -4 -128t-15 -131.5t-36 -129t-61.5 -104.5t-96 -76t-135.5 -27q-162 0 -235 148q4 -90 4 -135v-351h-224zM319 563q0 -66 1.5 -106.5t11.5 -107 t27.5 -104.5t54.5 -68t88 -30q59 0 97 34t55.5 98.5t23.5 127t6 148.5q0 203 -36 298t-140 95q-66 0 -108 -38t-57 -110.5t-19.5 -118.5t-4.5 -118z"/>
<glyph unicode="с" horiz-adv-x="909" d="M70 547q0 98 8 176t34.5 158t70.5 131t120 83.5t178 32.5q367 0 371 -391h-215q-4 121 -42 175.5t-118 54.5q-100 0 -143 -95.5t-43 -316.5q0 -193 28 -295q39 -127 158 -127q164 0 166 268h209q0 -428 -391 -428q-98 0 -171 33t-115 85t-66.5 131t-31.5 154t-7 171z"/>
<glyph unicode="т" horiz-adv-x="819" d="M8 922v176h803v-176h-291v-922h-221v922h-291z"/>
<glyph unicode="у" horiz-adv-x="872" d="M18 1098h238l154 -645q31 -135 39 -240h4q8 117 34 244l136 641h231l-285 -1078q-39 -139 -71 -219q-37 -90 -104.5 -130t-186.5 -40q-55 0 -119 4v170q29 -4 82 -4q109 0 139 93l29 81z"/>
<glyph unicode="ф" horiz-adv-x="1433" d="M70 569q0 96 5 168t24.5 149t53 125t92 79.5t140.5 31.5q160 0 225 -129q-4 25 -4 135v330h221v-330q0 -111 -6 -135q70 129 226 129q82 0 140 -31.5t92 -79.5t53.5 -125t24.5 -149t5 -168q0 -133 -11.5 -228t-43 -184t-99 -135.5t-168.5 -46.5q-145 0 -217 115 q4 -33 4 -102v-353h-221v353q0 8 1 51t1 51q-70 -115 -215 -115q-100 0 -167.5 46.5t-99.5 135.5t-44 184t-12 228zM291 553q0 -211 34.5 -307t131.5 -96q116 0 151 133v534q-41 131 -157 131q-96 0 -128 -91t-32 -304zM825 283q35 -133 150 -133q98 0 132 95t34 308 t-31 304t-127 91q-119 0 -158 -131v-534z"/>
<glyph unicode="х" horiz-adv-x="872" d="M8 0l299 569l-287 529h240l139 -289q27 -57 39 -96q4 25 41 102l135 283h234l-283 -529l297 -569h-235l-142 295q-31 66 -51 123q-14 -41 -53 -127l-137 -291h-236z"/>
<glyph unicode="ц" horiz-adv-x="1017" d="M109 0v1098h221v-922h325v922h222v-922h131v-471h-207v295h-692z"/>
<glyph unicode="ч" horiz-adv-x="937" d="M78 721v377h221v-369q0 -82 40 -111.5t110 -29.5q76 0 153 16v494h221v-1098h-221v434q-119 -20 -196 -20q-158 0 -243 77.5t-85 229.5z"/>
<glyph unicode="ш" horiz-adv-x="1445" d="M109 0v1098h219v-922h284v922h222v-922h284v922h219v-1098h-1228z"/>
<glyph unicode="щ" horiz-adv-x="1478" d="M109 0v1098h219v-922h284v922h222v-922h284v922h219v-922h131v-471h-206v295h-1153z"/>
<glyph unicode="ъ" horiz-adv-x="1046" d="M8 922v176h461v-393h162q362 0 362 -338q0 -367 -358 -367h-387v922h-240zM469 170h104q109 0 155 40t46 144q0 98 -46 139.5t-140 41.5h-119v-365z"/>
<glyph unicode="ы" horiz-adv-x="1277" d="M109 0v1098h221v-393h145q363 0 363 -338q0 -367 -359 -367h-370zM330 170h86q109 0 154.5 40t45.5 144q0 98 -46 139.5t-140 41.5h-100v-365zM948 0v1098h221v-1098h-221z"/>
<glyph unicode="ь" horiz-adv-x="909" d="M113 0v1098h221v-393h162q362 0 362 -338q0 -367 -358 -367h-387zM334 170h102q109 0 155 40t46 144q0 98 -46 139.5t-140 41.5h-117v-365z"/>
<glyph unicode="э" horiz-adv-x="909" d="M55 358h211q12 -227 166 -227q74 0 117 56.5t55 127t14 172.5h-307v166h305q-8 172 -49 242t-131 70q-78 0 -120 -53.5t-44 -143.5h-217q8 166 103.5 261t273.5 95q127 0 211 -42t125 -127t56.5 -178t15.5 -228q0 -123 -16.5 -217t-56.5 -180t-122 -132.5t-201 -46.5 q-195 0 -286.5 98.5t-102.5 286.5z"/>
<glyph unicode="ю" horiz-adv-x="1366" d="M109 0v1098h221v-434h157q16 217 108.5 338.5t303.5 121.5q102 0 176 -32.5t117 -83t67.5 -129t32.5 -154.5t8 -174q0 -289 -92 -433.5t-331 -144.5q-197 0 -291 122t-103 390h-153v-485h-221zM707 541q0 -201 36.5 -305.5t147.5 -104.5q100 0 143 97.5t43 326.5 t-41 318.5t-143 89.5t-144 -96.5t-42 -325.5z"/>
<glyph unicode="я" horiz-adv-x="948" d="M27 0l262 449q-98 31 -155.5 112.5t-57.5 200.5q0 168 96 252t264 84h404v-1098h-222v422h-112l-223 -422h-256zM297 762q0 -176 190 -176h131v348h-114q-102 0 -154.5 -40t-52.5 -132z"/>
<glyph unicode="ё" horiz-adv-x="948" d="M78 547q0 301 99 439t312 138q98 0 171 -31.5t113 -80.5t63.5 -127t30.5 -149.5t7 -168.5v-47h-569v-14q0 -205 41 -292t139 -87q160 0 172 238h207q-8 -188 -106.5 -291t-280.5 -103q-209 0 -304 138.5t-95 437.5zM213 1245v219h199v-219h-199zM307 668h346q0 59 -4 98 t-17.5 92t-50 82t-94.5 29q-180 0 -180 -301zM559 1245v219h199v-219h-199z"/>
<glyph unicode="ђ" d="M10 946v164h111v348h221v-348h385v-164h-385v-129q0 -63 -4 -100q106 147 274 147q279 0 279 -332v-337q0 -137 -17.5 -233.5t-64.5 -176.5t-136 -119t-222 -39q-27 0 -72 4v170q18 -2 59 -2q129 0 180.5 86t51.5 287v266v19q0 43 -1 65.5t-8.5 59t-21.5 55t-43 34 t-72 15.5q-78 0 -130 -56.5t-52 -137.5v-492h-221v946h-111z"/>
<glyph unicode="ѓ" horiz-adv-x="737" d="M113 0v1098h618v-176h-397v-922h-221zM297 1206l127 293h242l-215 -293h-154z"/>
<glyph unicode="є" horiz-adv-x="909" d="M70 549q0 106 9 185t34.5 156t70.5 126t120 78.5t177 29.5q178 0 271.5 -94t101.5 -262h-217q-2 90 -42 143.5t-118 53.5q-90 0 -133 -70t-51 -242h305v-166h-307q2 -102 14 -172.5t55 -127t117 -56.5q154 0 166 227h211q-10 -188 -102.5 -286.5t-286.5 -98.5 q-119 0 -201 46.5t-122 132.5t-56 180t-16 217z"/>
<glyph unicode="ѕ" horiz-adv-x="872" d="M53 336v18h203v-14q0 -106 37 -159.5t137 -53.5q80 0 125 41t45 115q0 119 -135 166l-133 47q-145 51 -203.5 121.5t-58.5 195.5q0 147 95 228t271 81q178 0 263 -78.5t85 -252.5v-15h-202v12q0 88 -32 134.5t-118 46.5q-74 0 -115 -36t-41 -102q0 -31 12.5 -57t25 -41.5 t44 -32t46 -21.5t56.5 -18.5t50 -15.5q78 -27 123 -47t92 -58t67.5 -93.5t20.5 -133.5q0 -164 -102.5 -253t-290.5 -89q-193 0 -280 87t-87 278z"/>
<glyph unicode="і" horiz-adv-x="454" d="M117 0v1098h223v-1098h-223zM117 1245v219h223v-219h-223z"/>
<glyph unicode="ї" horiz-adv-x="454" d="M-45 1245v219h199v-219h-199zM117 0v1098h223v-1098h-223zM301 1245v219h199v-219h-199z"/>
<glyph unicode="ј" horiz-adv-x="454" d="M-39 -199q6 0 19.5 -1t19.5 -1q78 0 101.5 36t23.5 116v1147h221v-1161q0 -170 -66.5 -239t-238.5 -69q-43 0 -80 2v170zM125 1245v219h221v-219h-221z"/>
<glyph unicode="љ" horiz-adv-x="1454" d="M2 -2v178q33 -12 70 -12q27 0 42 5t33.5 28.5t28.5 81t12 149.5l19 670h670v-410h159q365 0 365 -330q0 -358 -361 -358h-385v920h-239l-13 -484q-2 -121 -19 -206t-42 -133t-62.5 -74.5t-71.5 -33.5t-81 -7q-53 0 -125 16zM877 170h102q109 0 156 37t47 139 q0 98 -46.5 135t-144.5 37h-114v-348z"/>
<glyph unicode="њ" horiz-adv-x="1454" d="M109 0v1098h221v-422h327v422h222v-422h165q359 0 359 -324q0 -352 -354 -352h-392v494h-327v-494h-221zM879 176h108q106 0 151.5 35t45.5 135q0 94 -44.5 130t-138.5 36h-122v-336z"/>
<glyph unicode="ћ" d="M10 946v164h111v348h221v-348h385v-164h-385v-129q0 -63 -4 -100q106 147 274 147q279 0 279 -332v-532h-221v438v19q0 43 -1 65.5t-8.5 59t-21.5 55t-43 34t-72 15.5q-78 0 -130 -56.5t-52 -137.5v-492h-221v946h-111z"/>
<glyph unicode="ќ" horiz-adv-x="948" d="M115 0v1098h215v-379q0 -10 -2 -67.5t-2 -69.5q31 55 120 192l220 324h254l-322 -445l371 -653h-256l-256 471l-127 -176v-295h-215zM379 1206l127 293h242l-216 -293h-153z"/>
<glyph unicode="ў" horiz-adv-x="872" d="M18 1098h238l154 -645q31 -135 39 -240h4q8 117 34 244l136 641h231l-285 -1078q-39 -139 -71 -219q-37 -90 -104.5 -130t-186.5 -40q-55 0 -119 4v170q29 -4 82 -4q109 0 139 93l29 81zM166 1487h119q10 -66 50 -101.5t101.5 -35.5t101.5 35.5t50 101.5h119 q-4 -125 -77 -199t-194 -74t-193.5 74t-76.5 199z"/>
<glyph unicode="џ" d="M109 0v1098h221v-922h325v922h222v-1098h-281v-295h-207v295h-280z"/>
<glyph unicode="Ґ" horiz-adv-x="899" d="M123 0v1458h543v309h219v-505h-529v-1262h-233z"/>
<glyph unicode="ґ" horiz-adv-x="737" d="M113 0v1098h411v286h207v-462h-397v-922h-221z"/>
<glyph unicode=" " horiz-adv-x="917"/>
<glyph unicode=" " horiz-adv-x="1835"/>
<glyph unicode=" " horiz-adv-x="917"/>
<glyph unicode=" " horiz-adv-x="1835"/>
<glyph unicode=" " horiz-adv-x="611"/>
<glyph unicode=" " horiz-adv-x="458"/>
<glyph unicode=" " horiz-adv-x="305"/>
<glyph unicode=" " horiz-adv-x="305"/>
<glyph unicode=" " horiz-adv-x="229"/>
<glyph unicode=" " horiz-adv-x="367"/>
<glyph unicode=" " horiz-adv-x="101"/>
<glyph unicode="‐" horiz-adv-x="720" d="M98 487v199h533v-199h-533z"/>
<glyph unicode="‑" horiz-adv-x="720" d="M98 487v199h533v-199h-533z"/>
<glyph unicode="‒" horiz-adv-x="720" d="M98 487v199h533v-199h-533z"/>
<glyph unicode="–" horiz-adv-x="1024" d="M0 492v188h1024v-188h-1024z"/>
<glyph unicode="—" horiz-adv-x="2048" d="M0 492v188h2048v-188h-2048z"/>
<glyph unicode="‘" horiz-adv-x="491" d="M131 893v180q0 84 6 138.5t26.5 116t71 97t127.5 48.5v-117q-59 -20 -79.5 -59.5t-22.5 -139.5h102v-264h-231z"/>
<glyph unicode="’" horiz-adv-x="491" d="M129 879v116q59 20 79.5 59.5t22.5 139.5h-102v264h231v-180q0 -84 -6 -138.5t-26.5 -115.5t-70.5 -97t-128 -48z"/>
<glyph unicode="‚" horiz-adv-x="491" d="M129 0v264h231v-180q0 -84 -6 -138.5t-26.5 -115.5t-70.5 -97t-128 -48v116q59 20 79.5 59.5t22.5 139.5h-102z"/>
<glyph unicode="“" horiz-adv-x="872" d="M139 893v180q0 84 6.5 138.5t27 116t70.5 97t128 48.5v-117q-59 -20 -80 -59.5t-23 -139.5h103v-264h-232zM498 893v180q0 84 6 138.5t26.5 116t70.5 97t128 48.5v-117q-59 -20 -79.5 -59.5t-22.5 -139.5h102v-264h-231z"/>
<glyph unicode="”" horiz-adv-x="872" d="M137 879v116q59 20 80 59.5t23 139.5h-103v264h232v-180q0 -84 -6.5 -138.5t-27 -115.5t-70.5 -97t-128 -48zM496 879v116q59 20 79.5 59.5t22.5 139.5h-102v264h231v-180q0 -84 -6 -138.5t-26.5 -115.5t-71 -97t-127.5 -48z"/>
<glyph unicode="„" horiz-adv-x="872" d="M137 0v264h232v-180q0 -84 -6.5 -138.5t-27 -115.5t-70.5 -97t-128 -48v116q59 20 80 59.5t23 139.5h-103zM496 0v264h231v-180q0 -84 -6 -138.5t-26.5 -115.5t-71 -97t-127.5 -48v116q59 20 79.5 59.5t22.5 139.5h-102z"/>
<glyph unicode="†" horiz-adv-x="987" d="M33 860v187h348v411h221v-411h348v-187h-348v-1145h-221v1145h-348z"/>
<glyph unicode="‡" horiz-adv-x="987" d="M33 293h350v590h-350v180h350v395h219v-395h348v-180h-348v-590h348v-178h-348l2 -400h-221v400h-348z"/>
<glyph unicode="•" horiz-adv-x="1024" d="M147 729q0 150 107.5 257.5t257.5 107.5q152 0 258.5 -106.5t106.5 -258t-106.5 -258t-258.5 -106.5t-258.5 106.5t-106.5 257.5z"/>
<glyph unicode="…" horiz-adv-x="2048" d="M225 0v264h232v-264h-232zM907 0v264h232v-264h-232zM1589 0v264h232v-264h-232z"/>
<glyph unicode=" " horiz-adv-x="367"/>
<glyph unicode="‰" horiz-adv-x="2162" d="M70 1055q0 74 4 123t19.5 106t45 91t82.5 56.5t129 22.5q72 0 124 -21.5t81 -54t45 -87t20.5 -104.5t4.5 -122q0 -74 -4.5 -123t-20.5 -104.5t-46 -88t-85 -54t-131 -21.5q-88 0 -144.5 28.5t-82 87t-33.5 117t-8 148.5zM244 1065q0 -150 18.5 -206t83.5 -56 q37 0 60.5 20.5t31.5 64.5t10.5 75.5t2.5 89.5v12q0 68 -2.5 103.5t-11.5 78.5t-30.5 61.5t-58.5 18.5q-68 0 -86 -60.5t-18 -201.5zM348 -27l645 1495h154l-643 -1495h-156zM877 362q0 74 4 123.5t19 106.5t45 91t83 56.5t129 22.5q72 0 124 -21.5t81 -54.5t45 -87 t20.5 -104.5t4.5 -121.5q0 -74 -4.5 -123t-20.5 -104.5t-46 -88t-85 -54t-131 -21.5q-88 0 -144.5 28.5t-82 87t-33.5 116.5t-8 148zM1051 373q0 -150 18 -206t84 -56q37 0 60.5 20.5t31.5 64.5t10 75.5t2 88.5v13q0 68 -2 103.5t-11 78.5t-30.5 61.5t-58.5 18.5 q-68 0 -86 -60.5t-18 -201.5zM1536 362q0 74 4 123.5t19.5 106.5t45 91t83 56.5t129.5 22.5q72 0 124 -21.5t80.5 -54.5t45 -87t20.5 -104.5t4 -121.5q0 -74 -4 -123t-20.5 -104.5t-46 -88t-85 -54t-131.5 -21.5q-88 0 -144 28.5t-82 87t-34 116.5t-8 148zM1710 373 q0 -150 18.5 -206t83.5 -56q37 0 60.5 20.5t32 64.5t10.5 75.5t2 88.5v13q0 68 -2 103.5t-11.5 78.5t-31 61.5t-57.5 18.5q-68 0 -86.5 -60.5t-18.5 -201.5z"/>
<glyph unicode="‹" horiz-adv-x="491" d="M96 451v241l293 271v-222l-100 -94l-84 -74q53 -41 78 -65l106 -107v-217z"/>
<glyph unicode="›" horiz-adv-x="491" d="M102 184v217l107 107l78 65q-57 49 -84 74l-101 94v222l293 -271v-241z"/>
<glyph unicode=" " horiz-adv-x="458"/>
<glyph unicode="€" horiz-adv-x="983" d="M0 506l49 139h96q-4 76 0 143h-145l49 140h105q18 307 182 434q113 88 301 88q123 0 213 -39q78 -34 133 -102l-70 -189q-35 76 -106 121q-70 45 -164 45q-106 0 -166 -67q-78 -88 -90 -291h459l-49 -140h-418q-4 -68 0 -143h379l-49 -139h-322q6 -205 90 -299 q63 -72 170 -72q90 0 174 43q82 41 129 117v-225q-43 -37 -94 -58q-94 -41 -213 -41q-195 0 -307 88q-168 135 -182 447h-154z"/>
<glyph unicode="™" horiz-adv-x="2048" d="M236 1360v98h606v-98h-242v-631h-121v631h-243zM967 729v729h182l203 -547l200 547h179v-729h-111v617l-223 -617h-97l-223 617v-617h-110z"/>
<glyph unicode="√" horiz-adv-x="1042" d="M-20 326l241 114l303 -635l371 1805h170l-432 -2048h-164l-330 678l-96 -47z"/>
<glyph unicode="∞" horiz-adv-x="1574" d="M86 633q0 139 84 233.5t221 94.5q111 0 202 -62.5t195 -173.5q4 4 40 41t44.5 44t41 37t48 39t46 29.5t54 26.5t54.5 13.5t62 7.5q137 0 223 -93.5t86 -232.5q0 -141 -83 -235.5t-224 -94.5q-109 0 -199 59.5t-193 163.5q-8 -6 -41.5 -37.5t-45 -41t-42 -36t-47 -35.5 t-47 -26.5t-53.5 -24.5t-53.5 -13.5t-61.5 -6.5q-139 0 -225 92.5t-86 231.5zM227 631q0 -78 46 -126t124 -48q129 0 297 172q-6 6 -48 44t-61.5 52t-57.5 41t-70.5 37t-65.5 10q-74 0 -119 -53t-45 -129zM881 629q178 -174 303 -174q74 0 118 50t44 126q0 80 -45.5 132 t-122.5 52q-51 0 -114 -36t-95.5 -65.5t-87.5 -84.5z"/>
<glyph unicode="≈" horiz-adv-x="1228" d="M72 279q16 131 81.5 220t188.5 89q35 0 77 -8.5t71.5 -17.5t77.5 -25.5t69 -22.5q16 -6 59 -21.5t71 -23.5t64.5 -16.5t65.5 -8.5q119 0 150 150h108q-14 -133 -80.5 -220t-191.5 -87q-70 0 -279 67q-10 4 -77.5 29t-112.5 37t-80 12q-61 0 -100 -45t-50 -108h-112z M72 659q16 131 81.5 220.5t188.5 89.5q35 0 77 -8.5t71.5 -17.5t77.5 -25.5t69 -22.5q16 -6 59 -21.5t71 -23.5t64.5 -16.5t65.5 -8.5q119 0 150 150h108q-14 -133 -80.5 -220t-191.5 -87q-70 0 -279 67q-10 4 -77.5 28.5t-112.5 37t-80 12.5q-61 0 -100 -45t-50 -109h-112z "/>
<glyph unicode="≠" horiz-adv-x="1228" d="M86 340v158h363l133 256h-496v159h580l157 306l140 -72l-123 -234h288v-159h-370l-133 -256h503v-158h-585l-158 -301l-139 72l121 229h-281z"/>
<glyph unicode="≤" horiz-adv-x="1228" d="M86 0v160h1042v-160h-1042zM86 610v166l1042 377v-170l-825 -291l825 -284v-170z"/>
<glyph unicode="≥" horiz-adv-x="1228" d="M86 0v160h1042v-160h-1042zM86 238v170l823 284l-823 291v170l1042 -377v-166z"/>
<glyph unicode="" horiz-adv-x="1095" d="M0 0v1096h1096v-1096h-1096z"/>
<glyph unicode="" horiz-adv-x="1048" d="M0 0v1470h1049v-1470h-1049zM102 102h844v1264h-844v-1264zM254 967q14 141 88 210.5t188 69.5q111 0 182.5 -73.5t71.5 -194.5q0 -70 -26.5 -123t-102.5 -123q-76 -68 -88 -106q-12 -42 -12 -148h-94l-4 35q0 115 26 166q31 57 95 121q63 59 82.5 94t19.5 76 q0 74 -46 124t-110 50q-145 0 -168 -195zM455 240v137h114v-137h-114z"/>
</font>
</defs>
</svg>
